<svg width="70" height="70" viewBox="0 0 70 70" fill="none" xmlns="http://www.w3.org/2000/svg">
<g clip-path="url(#clip0_4830_193)">
<path d="M7.00008 16.3334H42.0001C43.2888 16.3334 44.3334 15.2887 44.3334 14.0001V7.00008C44.3334 5.71142 43.2888 4.66675 42.0001 4.66675H7.00008C5.71142 4.66675 4.66675 5.71142 4.66675 7.00008V14.0001C4.66675 15.2887 5.71142 16.3334 7.00008 16.3334ZM22.7501 14.0001H18.6667L23.9168 7.00008H28.0001L22.7501 14.0001ZM30.9168 7.00008H33.8334L28.5834 14.0001H25.6668L30.9168 7.00008ZM15.7501 14.0001H11.6667L16.9167 7.00008H21.0001L15.7501 14.0001ZM42.0001 14.0001H31.5001L36.7501 7.00008H42.0001V14.0001ZM7.00008 7.00008H14.0001L8.75008 14.0001H7.00008V7.00008Z" fill="white"/>
<path d="M10.8418 32.3248C11.2974 32.7803 12.0359 32.7803 12.4915 32.3248L15.1667 29.6497L17.8418 32.3248C18.2996 32.767 19.0273 32.7606 19.4773 32.3106C19.9273 31.8606 19.9336 31.1329 19.4915 30.6752L16.8163 28L19.4915 25.3248C19.9336 24.867 19.9273 24.1394 19.4773 23.6894C19.0273 23.2393 18.2996 23.233 17.8418 23.6752L15.1667 26.3503L12.4915 23.6752C12.0337 23.233 11.3061 23.2393 10.856 23.6894C10.406 24.1394 10.3997 24.867 10.8418 25.3248L13.517 28L10.8418 30.6752C10.3864 31.1307 10.3864 31.8692 10.8418 32.3248Z" fill="white"/>
<path d="M11.6667 47.8333H14V50.1667C14 50.811 14.5223 51.3333 15.1667 51.3333C15.811 51.3333 16.3333 50.811 16.3333 50.1667V47.8333H18.6667C19.311 47.8333 19.8333 47.311 19.8333 46.6667C19.8333 46.0223 19.311 45.5 18.6667 45.5H16.3333V43.1667C16.3333 42.5223 15.811 42 15.1667 42C14.5223 42 14 42.5223 14 43.1667V45.5H11.6667C11.0223 45.5 10.5 46.0223 10.5 46.6667C10.5 47.311 11.0223 47.8333 11.6667 47.8333Z" fill="white"/>
<path d="M37.3334 45.5H30.3334C29.6891 45.5 29.1667 46.0223 29.1667 46.6667C29.1667 47.311 29.6891 47.8333 30.3334 47.8333H37.3334C37.9777 47.8333 38.5001 47.311 38.5001 46.6667C38.5001 46.0223 37.9777 45.5 37.3334 45.5Z" fill="white"/>
<path d="M37.3334 29.1667H30.3334C29.6891 29.1667 29.1667 29.6891 29.1667 30.3334C29.1667 30.9777 29.6891 31.5001 30.3334 31.5001H37.3334C37.9777 31.5001 38.5001 30.9777 38.5001 30.3334C38.5001 29.6891 37.9777 29.1667 37.3334 29.1667Z" fill="white"/>
<path d="M37.3334 24.5H30.3334C29.6891 24.5 29.1667 25.0223 29.1667 25.6667C29.1667 26.311 29.6891 26.8333 30.3334 26.8333H37.3334C37.9777 26.8333 38.5001 26.311 38.5001 25.6667C38.5001 25.0223 37.9777 24.5 37.3334 24.5Z" fill="white"/>
<path d="M54.8333 39.6667C52.8307 39.6645 50.8477 40.0611 49 40.8333V4.66667C49 2.08934 46.9107 0 44.3333 0H4.66667C2.08934 0 0 2.08934 0 4.66667V56C0 58.5773 2.08934 60.6667 4.66667 60.6667H40.8333C43.7591 67.6886 51.4341 71.4568 58.7792 69.4777C66.1243 67.4986 70.8671 60.3845 69.8689 52.8432C68.8707 45.3019 62.4404 39.6667 54.8333 39.6667ZM4.66667 58.3333C3.378 58.3333 2.33333 57.2887 2.33333 56V4.66667C2.33333 3.378 3.378 2.33333 4.66667 2.33333H44.3333C45.622 2.33333 46.6667 3.378 46.6667 4.66667V42.0735C45.8307 42.6096 45.0492 43.2262 44.3333 43.9145V22.1667C44.3333 20.2337 42.7663 18.6667 40.8333 18.6667H8.16667C6.23367 18.6667 4.66667 20.2337 4.66667 22.1667V52.5C4.66667 54.433 6.23367 56 8.16667 56H39.7262C39.7863 56.7861 39.908 57.5663 40.0902 58.3333H4.66667ZM39.7262 53.6667H25.6667V38.5H42V46.7833C40.6921 48.858 39.9114 51.2211 39.7262 53.6667ZM42 36.1667H25.6667V21H40.8333C41.4777 21 42 21.5223 42 22.1667V36.1667ZM23.3333 36.1667H7V22.1667C7 21.5223 7.52234 21 8.16667 21H23.3333V36.1667ZM7 38.5H23.3333V53.6667H8.16667C7.52234 53.6667 7 53.1443 7 52.5V38.5ZM54.8333 67.6667C47.7457 67.6667 42 61.921 42 54.8333C42 47.7457 47.7457 42 54.8333 42C61.921 42 67.6667 47.7457 67.6667 54.8333C67.6583 61.9175 61.9175 67.6583 54.8333 67.6667Z" fill="white"/>
<path d="M61.1883 60.8733L59.5269 56.9918L60.6598 46.7951C60.7056 46.3808 60.527 45.9735 60.1911 45.7266C59.8552 45.4798 59.4131 45.4308 59.0314 45.5983C58.6497 45.7657 58.3863 46.1241 58.3404 46.5384L57.8073 51.3334H47.8334C47.1891 51.3334 46.6668 51.8558 46.6668 52.5001C46.6668 53.1444 47.1891 53.6668 47.8334 53.6668H49.0001V56.0001H47.9933C47.3489 56.0001 46.8266 56.5224 46.8266 57.1668C46.8266 57.8111 47.3489 58.3334 47.9933 58.3334H50.6101L49.1366 61.2734C48.9348 61.1451 48.7224 61.0401 48.5276 60.8954C48.1925 60.6474 47.7505 60.597 47.3682 60.7633C46.9859 60.9295 46.7212 61.287 46.674 61.7013C46.6268 62.1155 46.8042 62.5234 47.1393 62.7714C51.6999 66.1878 57.967 66.1878 62.5276 62.7714C62.9849 62.3798 63.0692 61.7046 62.7221 61.2126C62.375 60.7207 61.7105 60.5737 61.1883 60.8733ZM51.3334 53.6668H57.5483L57.2834 56.0001H51.3334V53.6668ZM51.2273 62.3129L53.2211 58.3334H57.5646L59.1431 62.0213C56.6394 63.1296 53.8057 63.234 51.2273 62.3129Z" fill="white"/>
</g>
<defs>
<clipPath id="clip0_4830_193">
<rect width="70" height="70" fill="white"/>
</clipPath>
</defs>
</svg>
