<svg id="Layer_1" data-name="Layer 1" xmlns="http://www.w3.org/2000/svg" xmlns:xlink="http://www.w3.org/1999/xlink" viewBox="0 0 680 600"><defs><style>.cls-1{fill:#fff;}.cls-2{fill:none;}.cls-3{clip-path:url(#clip-path);}.cls-4{opacity:0.3;}.cls-5{mask:url(#mask);}.cls-6{fill:url(#radial-gradient);}.cls-7{fill:url(#radial-gradient-2);}.cls-8{fill:url(#radial-gradient-3);}.cls-9{fill:url(#radial-gradient-4);}.cls-10{fill:url(#radial-gradient-5);}.cls-11{fill:url(#radial-gradient-6);}.cls-12{fill:url(#radial-gradient-7);}.cls-13{fill:url(#radial-gradient-8);}.cls-14{fill:url(#radial-gradient-9);}.cls-15{fill:url(#radial-gradient-10);}.cls-16{fill:url(#radial-gradient-11);}.cls-17{fill:url(#radial-gradient-12);}.cls-18{fill:url(#radial-gradient-13);}.cls-19{fill:url(#radial-gradient-14);}.cls-20{fill:url(#radial-gradient-15);}.cls-21{fill:url(#radial-gradient-16);}.cls-22{fill:url(#radial-gradient-17);}.cls-23{fill:url(#radial-gradient-18);}.cls-24{fill:url(#radial-gradient-20);}.cls-25{fill:url(#radial-gradient-21);}.cls-26{fill:url(#radial-gradient-23);}.cls-27{fill:url(#radial-gradient-24);}.cls-28{fill:url(#radial-gradient-25);}.cls-29{fill:url(#radial-gradient-27);}.cls-30{fill:url(#radial-gradient-28);}.cls-31{fill:url(#radial-gradient-29);}.cls-32{fill:url(#radial-gradient-31);}</style><clipPath id="clip-path"><rect class="cls-2" width="680" height="600"/></clipPath><mask id="mask" x="-339.69" y="-55.47" width="1351.38" height="784.11" maskUnits="userSpaceOnUse"><g id="mask0_748_687" data-name="mask0 748 687"><path class="cls-1" d="M336,661.77c193.85,0,351-145.59,351-325.18S529.85,11.41,336,11.41-15,157-15,336.59,142.15,661.77,336,661.77Z"/></g></mask><radialGradient id="radial-gradient" cx="360.94" cy="360.84" r="319.12" gradientTransform="translate(0 3.59) scale(1 1.06)" gradientUnits="userSpaceOnUse"><stop offset="0" stop-color="#e31e24"/><stop offset="1" stop-color="#e31e24" stop-opacity="0"/></radialGradient><radialGradient id="radial-gradient-2" cx="-83.79" cy="457.47" r="1" gradientTransform="matrix(328.72, 0, 0, -304.43, 27904.75, 139553.86)" xlink:href="#radial-gradient"/><radialGradient id="radial-gradient-3" cx="-83.79" cy="457.47" r="1" gradientTransform="matrix(328.72, 0, 0, -304.44, 27904.75, 139560.13)" xlink:href="#radial-gradient"/><radialGradient id="radial-gradient-4" cx="-83.79" cy="457.47" r="1" gradientTransform="matrix(328.72, 0, 0, -304.43, 27904.75, 139556.73)" xlink:href="#radial-gradient"/><radialGradient id="radial-gradient-5" cx="-83.79" cy="457.47" r="1" gradientTransform="matrix(328.72, 0, 0, -304.43, 27904.75, 139556.71)" xlink:href="#radial-gradient"/><radialGradient id="radial-gradient-6" cx="-83.79" cy="457.47" r="1" gradientTransform="matrix(328.72, 0, 0, -304.44, 27904.75, 139560.1)" xlink:href="#radial-gradient"/><radialGradient id="radial-gradient-7" cx="-83.79" cy="457.47" r="1" gradientTransform="matrix(328.72, 0, 0, -304.44, 27904.75, 139560.08)" xlink:href="#radial-gradient"/><radialGradient id="radial-gradient-8" cx="-83.79" cy="457.47" r="1" gradientTransform="matrix(328.72, 0, 0, -304.44, 27904.75, 139560.07)" xlink:href="#radial-gradient"/><radialGradient id="radial-gradient-9" cx="-83.79" cy="457.47" r="1" gradientTransform="matrix(328.72, 0, 0, -304.44, 27904.75, 139560.06)" xlink:href="#radial-gradient"/><radialGradient id="radial-gradient-10" cx="-83.79" cy="457.47" r="1" gradientTransform="matrix(328.72, 0, 0, -304.43, 27904.75, 139556.65)" xlink:href="#radial-gradient"/><radialGradient id="radial-gradient-11" cx="-83.79" cy="457.47" r="1" gradientTransform="matrix(328.72, 0, 0, -304.44, 27904.75, 139558.1)" xlink:href="#radial-gradient"/><radialGradient id="radial-gradient-12" cx="-83.79" cy="457.47" r="1" gradientTransform="matrix(328.72, 0, 0, -304.44, 27904.75, 139558.08)" xlink:href="#radial-gradient"/><radialGradient id="radial-gradient-13" cx="-83.79" cy="457.47" r="1" gradientTransform="matrix(328.72, 0, 0, -304.44, 27904.75, 139560.01)" xlink:href="#radial-gradient"/><radialGradient id="radial-gradient-14" cx="-83.79" cy="457.47" r="1" gradientTransform="matrix(328.72, 0, 0, -304.44, 27904.75, 139558.06)" xlink:href="#radial-gradient"/><radialGradient id="radial-gradient-15" cx="-83.79" cy="457.47" r="1" gradientTransform="matrix(328.72, 0, 0, -304.44, 27904.75, 139558.04)" xlink:href="#radial-gradient"/><radialGradient id="radial-gradient-16" cx="-83.79" cy="457.47" r="1" gradientTransform="matrix(328.72, 0, 0, -304.44, 27904.75, 139558.99)" xlink:href="#radial-gradient"/><radialGradient id="radial-gradient-17" cx="-83.79" cy="457.47" r="1" gradientTransform="matrix(328.73, 0, 0, -304.54, 27905, 139605.09)" xlink:href="#radial-gradient"/><radialGradient id="radial-gradient-18" cx="-83.79" cy="457.47" r="1" gradientTransform="matrix(328.73, 0, 0, -304.54, 27905, 139605.09)" xlink:href="#radial-gradient"/><radialGradient id="radial-gradient-20" cx="-83.79" cy="457.47" r="1" gradientTransform="matrix(328.71, 0, 0, -304.54, 27903.75, 139605.09)" xlink:href="#radial-gradient"/><radialGradient id="radial-gradient-21" cx="-83.79" cy="457.47" r="1" gradientTransform="matrix(328.73, 0, 0, -304.54, 27905, 139605.09)" xlink:href="#radial-gradient"/><radialGradient id="radial-gradient-23" cx="-83.79" cy="457.47" r="1" gradientTransform="matrix(328.73, 0, 0, -304.54, 27905, 139605.09)" xlink:href="#radial-gradient"/><radialGradient id="radial-gradient-24" cx="-83.79" cy="457.47" r="1" gradientTransform="matrix(328.71, 0, 0, -304.54, 27903.74, 139605.09)" xlink:href="#radial-gradient"/><radialGradient id="radial-gradient-25" cx="-83.79" cy="457.47" r="1" gradientTransform="matrix(328.72, 0, 0, -304.54, 27904.42, 139605.09)" xlink:href="#radial-gradient"/><radialGradient id="radial-gradient-27" cx="-83.79" cy="457.47" r="1" gradientTransform="matrix(328.73, 0, 0, -304.54, 27905, 139605.09)" xlink:href="#radial-gradient"/><radialGradient id="radial-gradient-28" cx="-83.79" cy="457.47" r="1" gradientTransform="matrix(328.73, 0, 0, -304.54, 27905.01, 139605.09)" xlink:href="#radial-gradient"/><radialGradient id="radial-gradient-29" cx="-83.79" cy="457.47" r="1" gradientTransform="matrix(328.72, 0, 0, -304.54, 27904.41, 139605.09)" xlink:href="#radial-gradient"/><radialGradient id="radial-gradient-31" cx="-83.79" cy="457.47" r="1" gradientTransform="matrix(328.73, 0, 0, -304.54, 27905.01, 139605.09)" xlink:href="#radial-gradient"/></defs><g class="cls-3"><g class="cls-4"><g class="cls-5"><path class="cls-6" d="M1011.69,728.64H-339.69V-55.47H1011.69ZM-337.95,727H1010V-53.85H-337.95Z"/><path class="cls-7" d="M1010.84,570.52H-338.8v1.61H1010.84Z"/><path class="cls-8" d="M1010.84,531.4H-338.8V533H1010.84Z"/><path class="cls-9" d="M1010.84,492.28H-338.8v1.61H1010.84Z"/><path class="cls-10" d="M1010.84,453.16H-338.8v1.61H1010.84Z"/><path class="cls-11" d="M1010.84,414H-338.8v1.61H1010.84Z"/><path class="cls-12" d="M1010.84,374.92H-338.8v1.61H1010.84Z"/><path class="cls-13" d="M1010.84,335.8H-338.8v1.61H1010.84Z"/><path class="cls-14" d="M1010.84,296.65H-338.8v1.61H1010.84Z"/><path class="cls-15" d="M1010.84,257.53H-338.8v1.61H1010.84Z"/><path class="cls-16" d="M1010.84,218.41H-338.8V220H1010.84Z"/><path class="cls-17" d="M1010.84,179.29H-338.8v1.61H1010.84Z"/><path class="cls-18" d="M1010.84,140.17H-338.8v1.61H1010.84Z"/><path class="cls-19" d="M1010.84,101H-338.8v1.62H1010.84Z"/><path class="cls-20" d="M1010.84,61.89H-338.8v1.62H1010.84Z"/><path class="cls-21" d="M1010.84,22.77H-338.8v1.62H1010.84Z"/><path class="cls-22" d="M643.62-54.64h-1.74V727.85h1.74Z"/><path class="cls-23" d="M602.71-54.64H601V727.85h1.74Z"/><path class="cls-23" d="M561.8-54.64h-1.74V727.85h1.74Z"/><path class="cls-24" d="M520.92-54.64h-1.74V727.85h1.74Z"/><path class="cls-25" d="M480-54.64h-1.74V727.85H480Z"/><path class="cls-25" d="M439.1-54.64h-1.74V727.85h1.74Z"/><path class="cls-26" d="M398.22-54.64h-1.74V727.85h1.74Z"/><path class="cls-27" d="M357.31-54.64h-1.74V727.85h1.74Z"/><path class="cls-28" d="M316.43-54.64h-1.74V727.85h1.74Z"/><path class="cls-28" d="M275.52-54.64h-1.74V727.85h1.74Z"/><path class="cls-29" d="M234.61-54.64h-1.74V727.85h1.74Z"/><path class="cls-30" d="M193.73-54.64H192V727.85h1.74Z"/><path class="cls-31" d="M152.82-54.64h-1.74V727.85h1.74Z"/><path class="cls-30" d="M111.94-54.64H110.2V727.85h1.74Z"/><path class="cls-32" d="M71-54.64H69.29V727.85H71Z"/><path class="cls-32" d="M30.12-54.64H28.38V727.85h1.74Z"/></g></g></g></svg>