<?xml version="1.0" encoding="utf-8"?>
<!-- Generator: Adobe Illustrator 24.3.0, SVG Export Plug-In . SVG Version: 6.00 Build 0)  -->
<svg version="1.1" id="Layer_1" xmlns="http://www.w3.org/2000/svg" xmlns:xlink="http://www.w3.org/1999/xlink" x="0px" y="0px"
	 viewBox="0 0 325 130" style="enable-background:new 0 0 325 130;" xml:space="preserve">
<style type="text/css">
	.st0{clip-path:url(#SVGID_2_);fill:#F7F7F7;}
	.st1{opacity:0.2;clip-path:url(#SVGID_2_);fill-rule:evenodd;clip-rule:evenodd;fill:#7EBF18;}
	.st2{clip-path:url(#SVGID_2_);}
	.st3{fill:url(#SVGID_3_);}
	.st4{fill:url(#SVGID_4_);}
	.st5{fill:url(#SVGID_5_);}
	.st6{fill:url(#SVGID_6_);}
	.st7{fill:url(#SVGID_7_);}
	.st8{fill:url(#SVGID_8_);}
	.st9{fill:url(#SVGID_9_);}
	.st10{fill:url(#SVGID_10_);}
	.st11{fill:url(#SVGID_11_);}
	.st12{fill:url(#SVGID_12_);}
	.st13{clip-path:url(#SVGID_14_);fill:#F7F7F7;}
	.st14{opacity:0.2;clip-path:url(#SVGID_14_);fill-rule:evenodd;clip-rule:evenodd;fill:#3363B5;}
	.st15{clip-path:url(#SVGID_14_);}
	.st16{fill:url(#SVGID_15_);}
	.st17{fill:url(#SVGID_16_);}
	.st18{fill:url(#SVGID_17_);}
	.st19{fill:url(#SVGID_18_);}
	.st20{fill:url(#SVGID_19_);}
	.st21{fill:url(#SVGID_20_);}
	.st22{fill:url(#SVGID_21_);}
	.st23{fill:url(#SVGID_22_);}
	.st24{fill:url(#SVGID_23_);}
	.st25{fill:url(#SVGID_24_);}
	.st26{fill:url(#SVGID_25_);}
</style>
<g>
	<defs>
		
			<rect id="SVGID_13_" x="-20.9" y="-45.7" transform="matrix(-1 -1.224647e-16 1.224647e-16 -1 312.9412 145.0588)" width="354.8" height="236.5"/>
	</defs>
	<use xlink:href="#SVGID_13_"  style="overflow:visible;fill:#FFFFFF;"/>
	<clipPath id="SVGID_2_">
		<use xlink:href="#SVGID_13_"  style="overflow:visible;"/>
	</clipPath>
	<path class="st0" d="M350.7-56.2v4.9h-9.5v-4.9h-0.4v4.9h-9.5v-4.9h-0.4v4.9h-9.5v-4.9h-0.4v4.9h-9.5v-4.9h-0.4v4.9h-9.5v-4.9h-0.4
		v4.9h-9.5v-4.9h-0.4v4.9h-9.5v-4.9h-0.4v4.9h-9.5v-4.9h-0.4v4.9h-9.5v-4.9H261v4.9h-9.5v-4.9H251v4.9h-9.5v-4.9H241v4.9h-9.5v-4.9
		H231v4.9h-9.5v-4.9h-0.4v4.9h-9.5v-4.9h-0.4v4.9h-9.5v-4.9h-0.4v4.9h-9.5v-4.9h-0.4v4.9h-9.5v-4.9h-0.4v4.9h-9.5v-4.9h-0.4v4.9
		h-9.5v-4.9h-0.4v4.9h-9.5v-4.9h-0.4v4.9h-9.5v-4.9h-0.4v4.9h-9.5v-4.9h-0.4v4.9h-9.5v-4.9h-0.4v4.9h-9.5v-4.9h-0.4v4.9h-9.5v-4.9
		h-0.4v4.9h-9.5v-4.9h-0.4v4.9h-9.5v-4.9h-0.4v4.9h-9.5v-4.9h-0.4v4.9h-9.5v-4.9h-0.4v4.9H52v-4.9h-0.4v4.9H42v-4.9h-0.4v4.9H32
		v-4.9h-0.4v4.9h-9.5v-4.9h-0.4v4.9h-9.5v-4.9h-0.4v4.9H2.1v-4.9H1.7v4.9h-9.5v-4.9h-0.4v4.9h-9.5v-4.9h-0.4v4.9h-9.5v-4.9h-0.4v4.9
		h-9.5v-4.9h-0.4v257.5h0.4v-3.6h9.5v3.6h0.4v-3.6h9.5v3.6h0.4v-3.6h9.5v3.6h0.4v-3.6h9.5v3.6h0.4v-3.6h9.5v3.6h0.4v-3.6h9.5v3.6
		h0.4v-3.6h9.5v3.6H32v-3.6h9.5v3.6H42v-3.6h9.5v3.6H52v-3.6h9.5v3.6h0.4v-3.6h9.5v3.6h0.4v-3.6h9.5v3.6h0.4v-3.6h9.5v3.6h0.4v-3.6
		h9.5v3.6h0.4v-3.6h9.5v3.6h0.4v-3.6h9.5v3.6h0.4v-3.6h9.5v3.6h0.4v-3.6h9.5v3.6h0.4v-3.6h9.5v3.6h0.4v-3.6h9.5v3.6h0.4v-3.6h9.5
		v3.6h0.4v-3.6h9.5v3.6h0.4v-3.6h9.5v3.6h0.4v-3.6h9.5v3.6h0.4v-3.6h9.5v3.6h0.4v-3.6h9.5v3.6h0.4v-3.6h9.5v3.6h0.4v-3.6h9.5v3.6
		h0.4v-3.6h9.5v3.6h0.4v-3.6h9.5v3.6h0.4v-3.6h9.5v3.6h0.4v-3.6h9.5v3.6h0.4v-3.6h9.5v3.6h0.4v-3.6h9.5v3.6h0.4v-3.6h9.5v3.6h0.4
		v-3.6h9.5v3.6h0.4v-3.6h9.5v3.6h0.4v-3.6h9.5v3.6h0.4v-3.6h9.5v3.6h0.4V-56.2H350.7z M-28.3,197.2h-9.5v-10.4h9.5V197.2z
		 M-28.3,186.4h-9.5V176h9.5V186.4z M-28.3,175.6h-9.5v-10.4h9.5V175.6z M-28.3,164.8h-9.5v-10.4h9.5V164.8z M-28.3,154h-9.5v-10.4
		h9.5V154z M-28.3,143.2h-9.5v-10.4h9.5V143.2z M-28.3,132.4h-9.5V122h9.5V132.4z M-28.3,121.5h-9.5v-10.4h9.5V121.5z M-28.3,110.7
		h-9.5v-10.4h9.5V110.7z M-28.3,99.9h-9.5V89.6h9.5V99.9z M-28.3,89.1h-9.5V78.8h9.5V89.1z M-28.3,78.3h-9.5V68h9.5V78.3z
		 M-28.3,67.5h-9.5V57.2h9.5V67.5z M-28.3,56.7h-9.5V46.4h9.5V56.7z M-28.3,45.9h-9.5V35.6h9.5V45.9z M-28.3,35.1h-9.5V24.8h9.5
		V35.1z M-28.3,24.3h-9.5V13.9h9.5V24.3z M-28.3,13.5h-9.5V3.1h9.5V13.5z M-28.3,2.7h-9.5V-7.7h9.5V2.7z M-28.3-8.1h-9.5v-10.4h9.5
		V-8.1z M-28.3-18.9h-9.5v-10.4h9.5V-18.9z M-28.3-29.7h-9.5v-10.4h9.5V-29.7z M-28.3-40.5h-9.5v-10.4h9.5V-40.5z M-18.3,197.2h-9.5
		v-10.4h9.5V197.2z M-18.3,186.4h-9.5V176h9.5V186.4z M-18.3,175.6h-9.5v-10.4h9.5V175.6z M-18.3,164.8h-9.5v-10.4h9.5V164.8z
		 M-18.3,154h-9.5v-10.4h9.5V154z M-18.3,143.2h-9.5v-10.4h9.5V143.2z M-18.3,132.4h-9.5V122h9.5V132.4z M-18.3,121.5h-9.5v-10.4
		h9.5V121.5z M-18.3,110.7h-9.5v-10.4h9.5V110.7z M-18.3,99.9h-9.5V89.6h9.5V99.9z M-18.3,89.1h-9.5V78.8h9.5V89.1z M-18.3,78.3
		h-9.5V68h9.5V78.3z M-18.3,67.5h-9.5V57.2h9.5V67.5z M-18.3,56.7h-9.5V46.4h9.5V56.7z M-18.3,45.9h-9.5V35.6h9.5V45.9z M-18.3,35.1
		h-9.5V24.8h9.5V35.1z M-18.3,24.3h-9.5V13.9h9.5V24.3z M-18.3,13.5h-9.5V3.1h9.5V13.5z M-18.3,2.7h-9.5V-7.7h9.5V2.7z M-18.3-8.1
		h-9.5v-10.4h9.5V-8.1z M-18.3-18.9h-9.5v-10.4h9.5V-18.9z M-18.3-29.7h-9.5v-10.4h9.5V-29.7z M-18.3-40.5h-9.5v-10.4h9.5V-40.5z
		 M-8.3,197.2h-9.5v-10.4h9.5V197.2z M-8.3,186.4h-9.5V176h9.5V186.4z M-8.3,175.6h-9.5v-10.4h9.5V175.6z M-8.3,164.8h-9.5v-10.4
		h9.5V164.8z M-8.3,154h-9.5v-10.4h9.5V154z M-8.3,143.2h-9.5v-10.4h9.5V143.2z M-8.3,132.4h-9.5V122h9.5V132.4z M-8.3,121.5h-9.5
		v-10.4h9.5V121.5z M-8.3,110.7h-9.5v-10.4h9.5V110.7z M-8.3,99.9h-9.5V89.6h9.5V99.9z M-8.3,89.1h-9.5V78.8h9.5V89.1z M-8.3,78.3
		h-9.5V68h9.5V78.3z M-8.3,67.5h-9.5V57.2h9.5V67.5z M-8.3,56.7h-9.5V46.4h9.5V56.7z M-8.3,45.9h-9.5V35.6h9.5V45.9z M-8.3,35.1
		h-9.5V24.8h9.5V35.1z M-8.3,24.3h-9.5V13.9h9.5V24.3z M-8.3,13.5h-9.5V3.1h9.5V13.5z M-8.3,2.7h-9.5V-7.7h9.5V2.7z M-8.3-8.1h-9.5
		v-10.4h9.5V-8.1z M-8.3-18.9h-9.5v-10.4h9.5V-18.9z M-8.3-29.7h-9.5v-10.4h9.5V-29.7z M-8.3-40.5h-9.5v-10.4h9.5V-40.5z M1.7,197.2
		h-9.5v-10.4h9.5V197.2z M1.7,186.4h-9.5V176h9.5V186.4z M1.7,175.6h-9.5v-10.4h9.5V175.6z M1.7,164.8h-9.5v-10.4h9.5V164.8z
		 M1.7,154h-9.5v-10.4h9.5V154z M1.7,143.2h-9.5v-10.4h9.5V143.2z M1.7,132.4h-9.5V122h9.5V132.4z M1.7,121.5h-9.5v-10.4h9.5V121.5z
		 M1.7,110.7h-9.5v-10.4h9.5V110.7z M1.7,99.9h-9.5V89.6h9.5V99.9z M1.7,89.1h-9.5V78.8h9.5V89.1z M1.7,78.3h-9.5V68h9.5V78.3z
		 M1.7,67.5h-9.5V57.2h9.5V67.5z M1.7,56.7h-9.5V46.4h9.5V56.7z M1.7,45.9h-9.5V35.6h9.5V45.9z M1.7,35.1h-9.5V24.8h9.5V35.1z
		 M1.7,24.3h-9.5V13.9h9.5V24.3z M1.7,13.5h-9.5V3.1h9.5V13.5z M1.7,2.7h-9.5V-7.7h9.5V2.7z M1.7-8.1h-9.5v-10.4h9.5V-8.1z
		 M1.7-18.9h-9.5v-10.4h9.5V-18.9z M1.7-29.7h-9.5v-10.4h9.5V-29.7z M1.7-40.5h-9.5v-10.4h9.5V-40.5z M11.6,197.2H2.1v-10.4h9.5
		V197.2z M11.6,186.4H2.1V176h9.5V186.4z M11.6,175.6H2.1v-10.4h9.5V175.6z M11.6,164.8H2.1v-10.4h9.5V164.8z M11.6,154H2.1v-10.4
		h9.5V154z M11.6,143.2H2.1v-10.4h9.5V143.2z M11.6,132.4H2.1V122h9.5V132.4z M11.6,121.5H2.1v-10.4h9.5V121.5z M11.6,110.7H2.1
		v-10.4h9.5V110.7z M11.6,99.9H2.1V89.6h9.5V99.9z M11.6,89.1H2.1V78.8h9.5V89.1z M11.6,78.3H2.1V68h9.5V78.3z M11.6,67.5H2.1V57.2
		h9.5V67.5z M11.6,56.7H2.1V46.4h9.5V56.7z M11.6,45.9H2.1V35.6h9.5V45.9z M11.6,35.1H2.1V24.8h9.5V35.1z M11.6,24.3H2.1V13.9h9.5
		V24.3z M11.6,13.5H2.1V3.1h9.5V13.5z M11.6,2.7H2.1V-7.7h9.5V2.7z M11.6-8.1H2.1v-10.4h9.5V-8.1z M11.6-18.9H2.1v-10.4h9.5V-18.9z
		 M11.6-29.7H2.1v-10.4h9.5V-29.7z M11.6-40.5H2.1v-10.4h9.5V-40.5z M21.6,197.2h-9.5v-10.4h9.5V197.2z M21.6,186.4h-9.5V176h9.5
		V186.4z M21.6,175.6h-9.5v-10.4h9.5V175.6z M21.6,164.8h-9.5v-10.4h9.5V164.8z M21.6,154h-9.5v-10.4h9.5V154z M21.6,143.2h-9.5
		v-10.4h9.5V143.2z M21.6,132.4h-9.5V122h9.5V132.4z M21.6,121.5h-9.5v-10.4h9.5V121.5z M21.6,110.7h-9.5v-10.4h9.5V110.7z
		 M21.6,99.9h-9.5V89.6h9.5V99.9z M21.6,89.1h-9.5V78.8h9.5V89.1z M21.6,78.3h-9.5V68h9.5V78.3z M21.6,67.5h-9.5V57.2h9.5V67.5z
		 M21.6,56.7h-9.5V46.4h9.5V56.7z M21.6,45.9h-9.5V35.6h9.5V45.9z M21.6,35.1h-9.5V24.8h9.5V35.1z M21.6,24.3h-9.5V13.9h9.5V24.3z
		 M21.6,13.5h-9.5V3.1h9.5V13.5z M21.6,2.7h-9.5V-7.7h9.5V2.7z M21.6-8.1h-9.5v-10.4h9.5V-8.1z M21.6-18.9h-9.5v-10.4h9.5V-18.9z
		 M21.6-29.7h-9.5v-10.4h9.5V-29.7z M21.6-40.5h-9.5v-10.4h9.5V-40.5z M31.6,197.2h-9.5v-10.4h9.5V197.2z M31.6,186.4h-9.5V176h9.5
		V186.4z M31.6,175.6h-9.5v-10.4h9.5V175.6z M31.6,164.8h-9.5v-10.4h9.5V164.8z M31.6,154h-9.5v-10.4h9.5V154z M31.6,143.2h-9.5
		v-10.4h9.5V143.2z M31.6,132.4h-9.5V122h9.5V132.4z M31.6,121.5h-9.5v-10.4h9.5V121.5z M31.6,110.7h-9.5v-10.4h9.5V110.7z
		 M31.6,99.9h-9.5V89.6h9.5V99.9z M31.6,89.1h-9.5V78.8h9.5V89.1z M31.6,78.3h-9.5V68h9.5V78.3z M31.6,67.5h-9.5V57.2h9.5V67.5z
		 M31.6,56.7h-9.5V46.4h9.5V56.7z M31.6,45.9h-9.5V35.6h9.5V45.9z M31.6,35.1h-9.5V24.8h9.5V35.1z M31.6,24.3h-9.5V13.9h9.5V24.3z
		 M31.6,13.5h-9.5V3.1h9.5V13.5z M31.6,2.7h-9.5V-7.7h9.5V2.7z M31.6-8.1h-9.5v-10.4h9.5V-8.1z M31.6-18.9h-9.5v-10.4h9.5V-18.9z
		 M31.6-29.7h-9.5v-10.4h9.5V-29.7z M31.6-40.5h-9.5v-10.4h9.5V-40.5z M41.6,197.2H32v-10.4h9.5V197.2z M41.6,186.4H32V176h9.5
		V186.4z M41.6,175.6H32v-10.4h9.5V175.6z M41.6,164.8H32v-10.4h9.5V164.8z M41.6,154H32v-10.4h9.5V154z M41.6,143.2H32v-10.4h9.5
		V143.2z M41.6,132.4H32V122h9.5V132.4z M41.6,121.5H32v-10.4h9.5V121.5z M41.6,110.7H32v-10.4h9.5V110.7z M41.6,99.9H32V89.6h9.5
		V99.9z M41.6,89.1H32V78.8h9.5V89.1z M41.6,78.3H32V68h9.5V78.3z M41.6,67.5H32V57.2h9.5V67.5z M41.6,56.7H32V46.4h9.5V56.7z
		 M41.6,45.9H32V35.6h9.5V45.9z M41.6,35.1H32V24.8h9.5V35.1z M41.6,24.3H32V13.9h9.5V24.3z M41.6,13.5H32V3.1h9.5V13.5z M41.6,2.7
		H32V-7.7h9.5V2.7z M41.6-8.1H32v-10.4h9.5V-8.1z M41.6-18.9H32v-10.4h9.5V-18.9z M41.6-29.7H32v-10.4h9.5V-29.7z M41.6-40.5H32
		v-10.4h9.5V-40.5z M51.5,197.2H42v-10.4h9.5V197.2z M51.5,186.4H42V176h9.5V186.4z M51.5,175.6H42v-10.4h9.5V175.6z M51.5,164.8H42
		v-10.4h9.5V164.8z M51.5,154H42v-10.4h9.5V154z M51.5,143.2H42v-10.4h9.5V143.2z M51.5,132.4H42V122h9.5V132.4z M51.5,121.5H42
		v-10.4h9.5V121.5z M51.5,110.7H42v-10.4h9.5V110.7z M51.5,99.9H42V89.6h9.5V99.9z M51.5,89.1H42V78.8h9.5V89.1z M51.5,78.3H42V68
		h9.5V78.3z M51.5,67.5H42V57.2h9.5V67.5z M51.5,56.7H42V46.4h9.5V56.7z M51.5,45.9H42V35.6h9.5V45.9z M51.5,35.1H42V24.8h9.5V35.1z
		 M51.5,24.3H42V13.9h9.5V24.3z M51.5,13.5H42V3.1h9.5V13.5z M51.5,2.7H42V-7.7h9.5V2.7z M51.5-8.1H42v-10.4h9.5V-8.1z M51.5-18.9
		H42v-10.4h9.5V-18.9z M51.5-29.7H42v-10.4h9.5V-29.7z M51.5-40.5H42v-10.4h9.5V-40.5z M61.5,197.2H52v-10.4h9.5V197.2z M61.5,186.4
		H52V176h9.5V186.4z M61.5,175.6H52v-10.4h9.5V175.6z M61.5,164.8H52v-10.4h9.5V164.8z M61.5,154H52v-10.4h9.5V154z M61.5,143.2H52
		v-10.4h9.5V143.2z M61.5,132.4H52V122h9.5V132.4z M61.5,121.5H52v-10.4h9.5V121.5z M61.5,110.7H52v-10.4h9.5V110.7z M61.5,99.9H52
		V89.6h9.5V99.9z M61.5,89.1H52V78.8h9.5V89.1z M61.5,78.3H52V68h9.5V78.3z M61.5,67.5H52V57.2h9.5V67.5z M61.5,56.7H52V46.4h9.5
		V56.7z M61.5,45.9H52V35.6h9.5V45.9z M61.5,35.1H52V24.8h9.5V35.1z M61.5,24.3H52V13.9h9.5V24.3z M61.5,13.5H52V3.1h9.5V13.5z
		 M61.5,2.7H52V-7.7h9.5V2.7z M61.5-8.1H52v-10.4h9.5V-8.1z M61.5-18.9H52v-10.4h9.5V-18.9z M61.5-29.7H52v-10.4h9.5V-29.7z
		 M61.5-40.5H52v-10.4h9.5V-40.5z M71.5,197.2h-9.5v-10.4h9.5V197.2z M71.5,186.4h-9.5V176h9.5V186.4z M71.5,175.6h-9.5v-10.4h9.5
		V175.6z M71.5,164.8h-9.5v-10.4h9.5V164.8z M71.5,154h-9.5v-10.4h9.5V154z M71.5,143.2h-9.5v-10.4h9.5V143.2z M71.5,132.4h-9.5V122
		h9.5V132.4z M71.5,121.5h-9.5v-10.4h9.5V121.5z M71.5,110.7h-9.5v-10.4h9.5V110.7z M71.5,99.9h-9.5V89.6h9.5V99.9z M71.5,89.1h-9.5
		V78.8h9.5V89.1z M71.5,78.3h-9.5V68h9.5V78.3z M71.5,67.5h-9.5V57.2h9.5V67.5z M71.5,56.7h-9.5V46.4h9.5V56.7z M71.5,45.9h-9.5
		V35.6h9.5V45.9z M71.5,35.1h-9.5V24.8h9.5V35.1z M71.5,24.3h-9.5V13.9h9.5V24.3z M71.5,13.5h-9.5V3.1h9.5V13.5z M71.5,2.7h-9.5
		V-7.7h9.5V2.7z M71.5-8.1h-9.5v-10.4h9.5V-8.1z M71.5-18.9h-9.5v-10.4h9.5V-18.9z M71.5-29.7h-9.5v-10.4h9.5V-29.7z M71.5-40.5
		h-9.5v-10.4h9.5V-40.5z M81.4,197.2h-9.5v-10.4h9.5V197.2z M81.4,186.4h-9.5V176h9.5V186.4z M81.4,175.6h-9.5v-10.4h9.5V175.6z
		 M81.4,164.8h-9.5v-10.4h9.5V164.8z M81.4,154h-9.5v-10.4h9.5V154z M81.4,143.2h-9.5v-10.4h9.5V143.2z M81.4,132.4h-9.5V122h9.5
		V132.4z M81.4,121.5h-9.5v-10.4h9.5V121.5z M81.4,110.7h-9.5v-10.4h9.5V110.7z M81.4,99.9h-9.5V89.6h9.5V99.9z M81.4,89.1h-9.5
		V78.8h9.5V89.1z M81.4,78.3h-9.5V68h9.5V78.3z M81.4,67.5h-9.5V57.2h9.5V67.5z M81.4,56.7h-9.5V46.4h9.5V56.7z M81.4,45.9h-9.5
		V35.6h9.5V45.9z M81.4,35.1h-9.5V24.8h9.5V35.1z M81.4,24.3h-9.5V13.9h9.5V24.3z M81.4,13.5h-9.5V3.1h9.5V13.5z M81.4,2.7h-9.5
		V-7.7h9.5V2.7z M81.4-8.1h-9.5v-10.4h9.5V-8.1z M81.4-18.9h-9.5v-10.4h9.5V-18.9z M81.4-29.7h-9.5v-10.4h9.5V-29.7z M81.4-40.5
		h-9.5v-10.4h9.5V-40.5z M91.4,197.2h-9.5v-10.4h9.5V197.2z M91.4,186.4h-9.5V176h9.5V186.4z M91.4,175.6h-9.5v-10.4h9.5V175.6z
		 M91.4,164.8h-9.5v-10.4h9.5V164.8z M91.4,154h-9.5v-10.4h9.5V154z M91.4,143.2h-9.5v-10.4h9.5V143.2z M91.4,132.4h-9.5V122h9.5
		V132.4z M91.4,121.5h-9.5v-10.4h9.5V121.5z M91.4,110.7h-9.5v-10.4h9.5V110.7z M91.4,99.9h-9.5V89.6h9.5V99.9z M91.4,89.1h-9.5
		V78.8h9.5V89.1z M91.4,78.3h-9.5V68h9.5V78.3z M91.4,67.5h-9.5V57.2h9.5V67.5z M91.4,56.7h-9.5V46.4h9.5V56.7z M91.4,45.9h-9.5
		V35.6h9.5V45.9z M91.4,35.1h-9.5V24.8h9.5V35.1z M91.4,24.3h-9.5V13.9h9.5V24.3z M91.4,13.5h-9.5V3.1h9.5V13.5z M91.4,2.7h-9.5
		V-7.7h9.5V2.7z M91.4-8.1h-9.5v-10.4h9.5V-8.1z M91.4-18.9h-9.5v-10.4h9.5V-18.9z M91.4-29.7h-9.5v-10.4h9.5V-29.7z M91.4-40.5
		h-9.5v-10.4h9.5V-40.5z M101.4,197.2h-9.5v-10.4h9.5V197.2z M101.4,186.4h-9.5V176h9.5V186.4z M101.4,175.6h-9.5v-10.4h9.5V175.6z
		 M101.4,164.8h-9.5v-10.4h9.5V164.8z M101.4,154h-9.5v-10.4h9.5V154z M101.4,143.2h-9.5v-10.4h9.5V143.2z M101.4,132.4h-9.5V122
		h9.5V132.4z M101.4,121.5h-9.5v-10.4h9.5V121.5z M101.4,110.7h-9.5v-10.4h9.5V110.7z M101.4,99.9h-9.5V89.6h9.5V99.9z M101.4,89.1
		h-9.5V78.8h9.5V89.1z M101.4,78.3h-9.5V68h9.5V78.3z M101.4,67.5h-9.5V57.2h9.5V67.5z M101.4,56.7h-9.5V46.4h9.5V56.7z M101.4,45.9
		h-9.5V35.6h9.5V45.9z M101.4,35.1h-9.5V24.8h9.5V35.1z M101.4,24.3h-9.5V13.9h9.5V24.3z M101.4,13.5h-9.5V3.1h9.5V13.5z M101.4,2.7
		h-9.5V-7.7h9.5V2.7z M101.4-8.1h-9.5v-10.4h9.5V-8.1z M101.4-18.9h-9.5v-10.4h9.5V-18.9z M101.4-29.7h-9.5v-10.4h9.5V-29.7z
		 M101.4-40.5h-9.5v-10.4h9.5V-40.5z M111.4,197.2h-9.5v-10.4h9.5V197.2z M111.4,186.4h-9.5V176h9.5V186.4z M111.4,175.6h-9.5v-10.4
		h9.5V175.6z M111.4,164.8h-9.5v-10.4h9.5V164.8z M111.4,154h-9.5v-10.4h9.5V154z M111.4,143.2h-9.5v-10.4h9.5V143.2z M111.4,132.4
		h-9.5V122h9.5V132.4z M111.4,121.5h-9.5v-10.4h9.5V121.5z M111.4,110.7h-9.5v-10.4h9.5V110.7z M111.4,99.9h-9.5V89.6h9.5V99.9z
		 M111.4,89.1h-9.5V78.8h9.5V89.1z M111.4,78.3h-9.5V68h9.5V78.3z M111.4,67.5h-9.5V57.2h9.5V67.5z M111.4,56.7h-9.5V46.4h9.5V56.7z
		 M111.4,45.9h-9.5V35.6h9.5V45.9z M111.4,35.1h-9.5V24.8h9.5V35.1z M111.4,24.3h-9.5V13.9h9.5V24.3z M111.4,13.5h-9.5V3.1h9.5V13.5
		z M111.4,2.7h-9.5V-7.7h9.5V2.7z M111.4-8.1h-9.5v-10.4h9.5V-8.1z M111.4-18.9h-9.5v-10.4h9.5V-18.9z M111.4-29.7h-9.5v-10.4h9.5
		V-29.7z M111.4-40.5h-9.5v-10.4h9.5V-40.5z M121.3,197.2h-9.5v-10.4h9.5V197.2z M121.3,186.4h-9.5V176h9.5V186.4z M121.3,175.6
		h-9.5v-10.4h9.5V175.6z M121.3,164.8h-9.5v-10.4h9.5V164.8z M121.3,154h-9.5v-10.4h9.5V154z M121.3,143.2h-9.5v-10.4h9.5V143.2z
		 M121.3,132.4h-9.5V122h9.5V132.4z M121.3,121.5h-9.5v-10.4h9.5V121.5z M121.3,110.7h-9.5v-10.4h9.5V110.7z M121.3,99.9h-9.5V89.6
		h9.5V99.9z M121.3,89.1h-9.5V78.8h9.5V89.1z M121.3,78.3h-9.5V68h9.5V78.3z M121.3,67.5h-9.5V57.2h9.5V67.5z M121.3,56.7h-9.5V46.4
		h9.5V56.7z M121.3,45.9h-9.5V35.6h9.5V45.9z M121.3,35.1h-9.5V24.8h9.5V35.1z M121.3,24.3h-9.5V13.9h9.5V24.3z M121.3,13.5h-9.5
		V3.1h9.5V13.5z M121.3,2.7h-9.5V-7.7h9.5V2.7z M121.3-8.1h-9.5v-10.4h9.5V-8.1z M121.3-18.9h-9.5v-10.4h9.5V-18.9z M121.3-29.7
		h-9.5v-10.4h9.5V-29.7z M121.3-40.5h-9.5v-10.4h9.5V-40.5z M131.3,197.2h-9.5v-10.4h9.5V197.2z M131.3,186.4h-9.5V176h9.5V186.4z
		 M131.3,175.6h-9.5v-10.4h9.5V175.6z M131.3,164.8h-9.5v-10.4h9.5V164.8z M131.3,154h-9.5v-10.4h9.5V154z M131.3,143.2h-9.5v-10.4
		h9.5V143.2z M131.3,132.4h-9.5V122h9.5V132.4z M131.3,121.5h-9.5v-10.4h9.5V121.5z M131.3,110.7h-9.5v-10.4h9.5V110.7z M131.3,99.9
		h-9.5V89.6h9.5V99.9z M131.3,89.1h-9.5V78.8h9.5V89.1z M131.3,78.3h-9.5V68h9.5V78.3z M131.3,67.5h-9.5V57.2h9.5V67.5z M131.3,56.7
		h-9.5V46.4h9.5V56.7z M131.3,45.9h-9.5V35.6h9.5V45.9z M131.3,35.1h-9.5V24.8h9.5V35.1z M131.3,24.3h-9.5V13.9h9.5V24.3z
		 M131.3,13.5h-9.5V3.1h9.5V13.5z M131.3,2.7h-9.5V-7.7h9.5V2.7z M131.3-8.1h-9.5v-10.4h9.5V-8.1z M131.3-18.9h-9.5v-10.4h9.5V-18.9
		z M131.3-29.7h-9.5v-10.4h9.5V-29.7z M131.3-40.5h-9.5v-10.4h9.5V-40.5z M141.3,197.2h-9.5v-10.4h9.5V197.2z M141.3,186.4h-9.5V176
		h9.5V186.4z M141.3,175.6h-9.5v-10.4h9.5V175.6z M141.3,164.8h-9.5v-10.4h9.5V164.8z M141.3,154h-9.5v-10.4h9.5V154z M141.3,143.2
		h-9.5v-10.4h9.5V143.2z M141.3,132.4h-9.5V122h9.5V132.4z M141.3,121.5h-9.5v-10.4h9.5V121.5z M141.3,110.7h-9.5v-10.4h9.5V110.7z
		 M141.3,99.9h-9.5V89.6h9.5V99.9z M141.3,89.1h-9.5V78.8h9.5V89.1z M141.3,78.3h-9.5V68h9.5V78.3z M141.3,67.5h-9.5V57.2h9.5V67.5z
		 M141.3,56.7h-9.5V46.4h9.5V56.7z M141.3,45.9h-9.5V35.6h9.5V45.9z M141.3,35.1h-9.5V24.8h9.5V35.1z M141.3,24.3h-9.5V13.9h9.5
		V24.3z M141.3,13.5h-9.5V3.1h9.5V13.5z M141.3,2.7h-9.5V-7.7h9.5V2.7z M141.3-8.1h-9.5v-10.4h9.5V-8.1z M141.3-18.9h-9.5v-10.4h9.5
		V-18.9z M141.3-29.7h-9.5v-10.4h9.5V-29.7z M141.3-40.5h-9.5v-10.4h9.5V-40.5z M151.3,197.2h-9.5v-10.4h9.5V197.2z M151.3,186.4
		h-9.5V176h9.5V186.4z M151.3,175.6h-9.5v-10.4h9.5V175.6z M151.3,164.8h-9.5v-10.4h9.5V164.8z M151.3,154h-9.5v-10.4h9.5V154z
		 M151.3,143.2h-9.5v-10.4h9.5V143.2z M151.3,132.4h-9.5V122h9.5V132.4z M151.3,121.5h-9.5v-10.4h9.5V121.5z M151.3,110.7h-9.5
		v-10.4h9.5V110.7z M151.3,99.9h-9.5V89.6h9.5V99.9z M151.3,89.1h-9.5V78.8h9.5V89.1z M151.3,78.3h-9.5V68h9.5V78.3z M151.3,67.5
		h-9.5V57.2h9.5V67.5z M151.3,56.7h-9.5V46.4h9.5V56.7z M151.3,45.9h-9.5V35.6h9.5V45.9z M151.3,35.1h-9.5V24.8h9.5V35.1z
		 M151.3,24.3h-9.5V13.9h9.5V24.3z M151.3,13.5h-9.5V3.1h9.5V13.5z M151.3,2.7h-9.5V-7.7h9.5V2.7z M151.3-8.1h-9.5v-10.4h9.5V-8.1z
		 M151.3-18.9h-9.5v-10.4h9.5V-18.9z M151.3-29.7h-9.5v-10.4h9.5V-29.7z M151.3-40.5h-9.5v-10.4h9.5V-40.5z M161.2,197.2h-9.5v-10.4
		h9.5V197.2z M161.2,186.4h-9.5V176h9.5V186.4z M161.2,175.6h-9.5v-10.4h9.5V175.6z M161.2,164.8h-9.5v-10.4h9.5V164.8z M161.2,154
		h-9.5v-10.4h9.5V154z M161.2,143.2h-9.5v-10.4h9.5V143.2z M161.2,132.4h-9.5V122h9.5V132.4z M161.2,121.5h-9.5v-10.4h9.5V121.5z
		 M161.2,110.7h-9.5v-10.4h9.5V110.7z M161.2,99.9h-9.5V89.6h9.5V99.9z M161.2,89.1h-9.5V78.8h9.5V89.1z M161.2,78.3h-9.5V68h9.5
		V78.3z M161.2,67.5h-9.5V57.2h9.5V67.5z M161.2,56.7h-9.5V46.4h9.5V56.7z M161.2,45.9h-9.5V35.6h9.5V45.9z M161.2,35.1h-9.5V24.8
		h9.5V35.1z M161.2,24.3h-9.5V13.9h9.5V24.3z M161.2,13.5h-9.5V3.1h9.5V13.5z M161.2,2.7h-9.5V-7.7h9.5V2.7z M161.2-8.1h-9.5v-10.4
		h9.5V-8.1z M161.2-18.9h-9.5v-10.4h9.5V-18.9z M161.2-29.7h-9.5v-10.4h9.5V-29.7z M161.2-40.5h-9.5v-10.4h9.5V-40.5z M171.2,197.2
		h-9.5v-10.4h9.5V197.2z M171.2,186.4h-9.5V176h9.5V186.4z M171.2,175.6h-9.5v-10.4h9.5V175.6z M171.2,164.8h-9.5v-10.4h9.5V164.8z
		 M171.2,154h-9.5v-10.4h9.5V154z M171.2,143.2h-9.5v-10.4h9.5V143.2z M171.2,132.4h-9.5V122h9.5V132.4z M171.2,121.5h-9.5v-10.4
		h9.5V121.5z M171.2,110.7h-9.5v-10.4h9.5V110.7z M171.2,99.9h-9.5V89.6h9.5V99.9z M171.2,89.1h-9.5V78.8h9.5V89.1z M171.2,78.3
		h-9.5V68h9.5V78.3z M171.2,67.5h-9.5V57.2h9.5V67.5z M171.2,56.7h-9.5V46.4h9.5V56.7z M171.2,45.9h-9.5V35.6h9.5V45.9z M171.2,35.1
		h-9.5V24.8h9.5V35.1z M171.2,24.3h-9.5V13.9h9.5V24.3z M171.2,13.5h-9.5V3.1h9.5V13.5z M171.2,2.7h-9.5V-7.7h9.5V2.7z M171.2-8.1
		h-9.5v-10.4h9.5V-8.1z M171.2-18.9h-9.5v-10.4h9.5V-18.9z M171.2-29.7h-9.5v-10.4h9.5V-29.7z M171.2-40.5h-9.5v-10.4h9.5V-40.5z
		 M181.2,197.2h-9.5v-10.4h9.5V197.2z M181.2,186.4h-9.5V176h9.5V186.4z M181.2,175.6h-9.5v-10.4h9.5V175.6z M181.2,164.8h-9.5
		v-10.4h9.5V164.8z M181.2,154h-9.5v-10.4h9.5V154z M181.2,143.2h-9.5v-10.4h9.5V143.2z M181.2,132.4h-9.5V122h9.5V132.4z
		 M181.2,121.5h-9.5v-10.4h9.5V121.5z M181.2,110.7h-9.5v-10.4h9.5V110.7z M181.2,99.9h-9.5V89.6h9.5V99.9z M181.2,89.1h-9.5V78.8
		h9.5V89.1z M181.2,78.3h-9.5V68h9.5V78.3z M181.2,67.5h-9.5V57.2h9.5V67.5z M181.2,56.7h-9.5V46.4h9.5V56.7z M181.2,45.9h-9.5V35.6
		h9.5V45.9z M181.2,35.1h-9.5V24.8h9.5V35.1z M181.2,24.3h-9.5V13.9h9.5V24.3z M181.2,13.5h-9.5V3.1h9.5V13.5z M181.2,2.7h-9.5V-7.7
		h9.5V2.7z M181.2-8.1h-9.5v-10.4h9.5V-8.1z M181.2-18.9h-9.5v-10.4h9.5V-18.9z M181.2-29.7h-9.5v-10.4h9.5V-29.7z M181.2-40.5h-9.5
		v-10.4h9.5V-40.5z M191.2,197.2h-9.5v-10.4h9.5V197.2z M191.2,186.4h-9.5V176h9.5V186.4z M191.2,175.6h-9.5v-10.4h9.5V175.6z
		 M191.2,164.8h-9.5v-10.4h9.5V164.8z M191.2,154h-9.5v-10.4h9.5V154z M191.2,143.2h-9.5v-10.4h9.5V143.2z M191.2,132.4h-9.5V122
		h9.5V132.4z M191.2,121.5h-9.5v-10.4h9.5V121.5z M191.2,110.7h-9.5v-10.4h9.5V110.7z M191.2,99.9h-9.5V89.6h9.5V99.9z M191.2,89.1
		h-9.5V78.8h9.5V89.1z M191.2,78.3h-9.5V68h9.5V78.3z M191.2,67.5h-9.5V57.2h9.5V67.5z M191.2,56.7h-9.5V46.4h9.5V56.7z M191.2,45.9
		h-9.5V35.6h9.5V45.9z M191.2,35.1h-9.5V24.8h9.5V35.1z M191.2,24.3h-9.5V13.9h9.5V24.3z M191.2,13.5h-9.5V3.1h9.5V13.5z M191.2,2.7
		h-9.5V-7.7h9.5V2.7z M191.2-8.1h-9.5v-10.4h9.5V-8.1z M191.2-18.9h-9.5v-10.4h9.5V-18.9z M191.2-29.7h-9.5v-10.4h9.5V-29.7z
		 M191.2-40.5h-9.5v-10.4h9.5V-40.5z M201.1,197.2h-9.5v-10.4h9.5V197.2z M201.1,186.4h-9.5V176h9.5V186.4z M201.1,175.6h-9.5v-10.4
		h9.5V175.6z M201.1,164.8h-9.5v-10.4h9.5V164.8z M201.1,154h-9.5v-10.4h9.5V154z M201.1,143.2h-9.5v-10.4h9.5V143.2z M201.1,132.4
		h-9.5V122h9.5V132.4z M201.1,121.5h-9.5v-10.4h9.5V121.5z M201.1,110.7h-9.5v-10.4h9.5V110.7z M201.1,99.9h-9.5V89.6h9.5V99.9z
		 M201.1,89.1h-9.5V78.8h9.5V89.1z M201.1,78.3h-9.5V68h9.5V78.3z M201.1,67.5h-9.5V57.2h9.5V67.5z M201.1,56.7h-9.5V46.4h9.5V56.7z
		 M201.1,45.9h-9.5V35.6h9.5V45.9z M201.1,35.1h-9.5V24.8h9.5V35.1z M201.1,24.3h-9.5V13.9h9.5V24.3z M201.1,13.5h-9.5V3.1h9.5V13.5
		z M201.1,2.7h-9.5V-7.7h9.5V2.7z M201.1-8.1h-9.5v-10.4h9.5V-8.1z M201.1-18.9h-9.5v-10.4h9.5V-18.9z M201.1-29.7h-9.5v-10.4h9.5
		V-29.7z M201.1-40.5h-9.5v-10.4h9.5V-40.5z M211.1,197.2h-9.5v-10.4h9.5V197.2z M211.1,186.4h-9.5V176h9.5V186.4z M211.1,175.6
		h-9.5v-10.4h9.5V175.6z M211.1,164.8h-9.5v-10.4h9.5V164.8z M211.1,154h-9.5v-10.4h9.5V154z M211.1,143.2h-9.5v-10.4h9.5V143.2z
		 M211.1,132.4h-9.5V122h9.5V132.4z M211.1,121.5h-9.5v-10.4h9.5V121.5z M211.1,110.7h-9.5v-10.4h9.5V110.7z M211.1,99.9h-9.5V89.6
		h9.5V99.9z M211.1,89.1h-9.5V78.8h9.5V89.1z M211.1,78.3h-9.5V68h9.5V78.3z M211.1,67.5h-9.5V57.2h9.5V67.5z M211.1,56.7h-9.5V46.4
		h9.5V56.7z M211.1,45.9h-9.5V35.6h9.5V45.9z M211.1,35.1h-9.5V24.8h9.5V35.1z M211.1,24.3h-9.5V13.9h9.5V24.3z M211.1,13.5h-9.5
		V3.1h9.5V13.5z M211.1,2.7h-9.5V-7.7h9.5V2.7z M211.1-8.1h-9.5v-10.4h9.5V-8.1z M211.1-18.9h-9.5v-10.4h9.5V-18.9z M211.1-29.7
		h-9.5v-10.4h9.5V-29.7z M211.1-40.5h-9.5v-10.4h9.5V-40.5z M221.1,197.2h-9.5v-10.4h9.5V197.2z M221.1,186.4h-9.5V176h9.5V186.4z
		 M221.1,175.6h-9.5v-10.4h9.5V175.6z M221.1,164.8h-9.5v-10.4h9.5V164.8z M221.1,154h-9.5v-10.4h9.5V154z M221.1,143.2h-9.5v-10.4
		h9.5V143.2z M221.1,132.4h-9.5V122h9.5V132.4z M221.1,121.5h-9.5v-10.4h9.5V121.5z M221.1,110.7h-9.5v-10.4h9.5V110.7z M221.1,99.9
		h-9.5V89.6h9.5V99.9z M221.1,89.1h-9.5V78.8h9.5V89.1z M221.1,78.3h-9.5V68h9.5V78.3z M221.1,67.5h-9.5V57.2h9.5V67.5z M221.1,56.7
		h-9.5V46.4h9.5V56.7z M221.1,45.9h-9.5V35.6h9.5V45.9z M221.1,35.1h-9.5V24.8h9.5V35.1z M221.1,24.3h-9.5V13.9h9.5V24.3z
		 M221.1,13.5h-9.5V3.1h9.5V13.5z M221.1,2.7h-9.5V-7.7h9.5V2.7z M221.1-8.1h-9.5v-10.4h9.5V-8.1z M221.1-18.9h-9.5v-10.4h9.5V-18.9
		z M221.1-29.7h-9.5v-10.4h9.5V-29.7z M221.1-40.5h-9.5v-10.4h9.5V-40.5z M231,197.2h-9.5v-10.4h9.5V197.2z M231,186.4h-9.5V176h9.5
		V186.4z M231,175.6h-9.5v-10.4h9.5V175.6z M231,164.8h-9.5v-10.4h9.5V164.8z M231,154h-9.5v-10.4h9.5V154z M231,143.2h-9.5v-10.4
		h9.5V143.2z M231,132.4h-9.5V122h9.5V132.4z M231,121.5h-9.5v-10.4h9.5V121.5z M231,110.7h-9.5v-10.4h9.5V110.7z M231,99.9h-9.5
		V89.6h9.5V99.9z M231,89.1h-9.5V78.8h9.5V89.1z M231,78.3h-9.5V68h9.5V78.3z M231,67.5h-9.5V57.2h9.5V67.5z M231,56.7h-9.5V46.4
		h9.5V56.7z M231,45.9h-9.5V35.6h9.5V45.9z M231,35.1h-9.5V24.8h9.5V35.1z M231,24.3h-9.5V13.9h9.5V24.3z M231,13.5h-9.5V3.1h9.5
		V13.5z M231,2.7h-9.5V-7.7h9.5V2.7z M231-8.1h-9.5v-10.4h9.5V-8.1z M231-18.9h-9.5v-10.4h9.5V-18.9z M231-29.7h-9.5v-10.4h9.5
		V-29.7z M231-40.5h-9.5v-10.4h9.5V-40.5z M241,197.2h-9.5v-10.4h9.5V197.2z M241,186.4h-9.5V176h9.5V186.4z M241,175.6h-9.5v-10.4
		h9.5V175.6z M241,164.8h-9.5v-10.4h9.5V164.8z M241,154h-9.5v-10.4h9.5V154z M241,143.2h-9.5v-10.4h9.5V143.2z M241,132.4h-9.5V122
		h9.5V132.4z M241,121.5h-9.5v-10.4h9.5V121.5z M241,110.7h-9.5v-10.4h9.5V110.7z M241,99.9h-9.5V89.6h9.5V99.9z M241,89.1h-9.5
		V78.8h9.5V89.1z M241,78.3h-9.5V68h9.5V78.3z M241,67.5h-9.5V57.2h9.5V67.5z M241,56.7h-9.5V46.4h9.5V56.7z M241,45.9h-9.5V35.6
		h9.5V45.9z M241,35.1h-9.5V24.8h9.5V35.1z M241,24.3h-9.5V13.9h9.5V24.3z M241,13.5h-9.5V3.1h9.5V13.5z M241,2.7h-9.5V-7.7h9.5V2.7
		z M241-8.1h-9.5v-10.4h9.5V-8.1z M241-18.9h-9.5v-10.4h9.5V-18.9z M241-29.7h-9.5v-10.4h9.5V-29.7z M241-40.5h-9.5v-10.4h9.5V-40.5
		z M251,197.2h-9.5v-10.4h9.5V197.2z M251,186.4h-9.5V176h9.5V186.4z M251,175.6h-9.5v-10.4h9.5V175.6z M251,164.8h-9.5v-10.4h9.5
		V164.8z M251,154h-9.5v-10.4h9.5V154z M251,143.2h-9.5v-10.4h9.5V143.2z M251,132.4h-9.5V122h9.5V132.4z M251,121.5h-9.5v-10.4h9.5
		V121.5z M251,110.7h-9.5v-10.4h9.5V110.7z M251,99.9h-9.5V89.6h9.5V99.9z M251,89.1h-9.5V78.8h9.5V89.1z M251,78.3h-9.5V68h9.5
		V78.3z M251,67.5h-9.5V57.2h9.5V67.5z M251,56.7h-9.5V46.4h9.5V56.7z M251,45.9h-9.5V35.6h9.5V45.9z M251,35.1h-9.5V24.8h9.5V35.1z
		 M251,24.3h-9.5V13.9h9.5V24.3z M251,13.5h-9.5V3.1h9.5V13.5z M251,2.7h-9.5V-7.7h9.5V2.7z M251-8.1h-9.5v-10.4h9.5V-8.1z
		 M251-18.9h-9.5v-10.4h9.5V-18.9z M251-29.7h-9.5v-10.4h9.5V-29.7z M251-40.5h-9.5v-10.4h9.5V-40.5z M261,197.2h-9.5v-10.4h9.5
		V197.2z M261,186.4h-9.5V176h9.5V186.4z M261,175.6h-9.5v-10.4h9.5V175.6z M261,164.8h-9.5v-10.4h9.5V164.8z M261,154h-9.5v-10.4
		h9.5V154z M261,143.2h-9.5v-10.4h9.5V143.2z M261,132.4h-9.5V122h9.5V132.4z M261,121.5h-9.5v-10.4h9.5V121.5z M261,110.7h-9.5
		v-10.4h9.5V110.7z M261,99.9h-9.5V89.6h9.5V99.9z M261,89.1h-9.5V78.8h9.5V89.1z M261,78.3h-9.5V68h9.5V78.3z M261,67.5h-9.5V57.2
		h9.5V67.5z M261,56.7h-9.5V46.4h9.5V56.7z M261,45.9h-9.5V35.6h9.5V45.9z M261,35.1h-9.5V24.8h9.5V35.1z M261,24.3h-9.5V13.9h9.5
		V24.3z M261,13.5h-9.5V3.1h9.5V13.5z M261,2.7h-9.5V-7.7h9.5V2.7z M261-8.1h-9.5v-10.4h9.5V-8.1z M261-18.9h-9.5v-10.4h9.5V-18.9z
		 M261-29.7h-9.5v-10.4h9.5V-29.7z M261-40.5h-9.5v-10.4h9.5V-40.5z M270.9,197.2h-9.5v-10.4h9.5V197.2z M270.9,186.4h-9.5V176h9.5
		V186.4z M270.9,175.6h-9.5v-10.4h9.5V175.6z M270.9,164.8h-9.5v-10.4h9.5V164.8z M270.9,154h-9.5v-10.4h9.5V154z M270.9,143.2h-9.5
		v-10.4h9.5V143.2z M270.9,132.4h-9.5V122h9.5V132.4z M270.9,121.5h-9.5v-10.4h9.5V121.5z M270.9,110.7h-9.5v-10.4h9.5V110.7z
		 M270.9,99.9h-9.5V89.6h9.5V99.9z M270.9,89.1h-9.5V78.8h9.5V89.1z M270.9,78.3h-9.5V68h9.5V78.3z M270.9,67.5h-9.5V57.2h9.5V67.5z
		 M270.9,56.7h-9.5V46.4h9.5V56.7z M270.9,45.9h-9.5V35.6h9.5V45.9z M270.9,35.1h-9.5V24.8h9.5V35.1z M270.9,24.3h-9.5V13.9h9.5
		V24.3z M270.9,13.5h-9.5V3.1h9.5V13.5z M270.9,2.7h-9.5V-7.7h9.5V2.7z M270.9-8.1h-9.5v-10.4h9.5V-8.1z M270.9-18.9h-9.5v-10.4h9.5
		V-18.9z M270.9-29.7h-9.5v-10.4h9.5V-29.7z M270.9-40.5h-9.5v-10.4h9.5V-40.5z M280.9,197.2h-9.5v-10.4h9.5V197.2z M280.9,186.4
		h-9.5V176h9.5V186.4z M280.9,175.6h-9.5v-10.4h9.5V175.6z M280.9,164.8h-9.5v-10.4h9.5V164.8z M280.9,154h-9.5v-10.4h9.5V154z
		 M280.9,143.2h-9.5v-10.4h9.5V143.2z M280.9,132.4h-9.5V122h9.5V132.4z M280.9,121.5h-9.5v-10.4h9.5V121.5z M280.9,110.7h-9.5
		v-10.4h9.5V110.7z M280.9,99.9h-9.5V89.6h9.5V99.9z M280.9,89.1h-9.5V78.8h9.5V89.1z M280.9,78.3h-9.5V68h9.5V78.3z M280.9,67.5
		h-9.5V57.2h9.5V67.5z M280.9,56.7h-9.5V46.4h9.5V56.7z M280.9,45.9h-9.5V35.6h9.5V45.9z M280.9,35.1h-9.5V24.8h9.5V35.1z
		 M280.9,24.3h-9.5V13.9h9.5V24.3z M280.9,13.5h-9.5V3.1h9.5V13.5z M280.9,2.7h-9.5V-7.7h9.5V2.7z M280.9-8.1h-9.5v-10.4h9.5V-8.1z
		 M280.9-18.9h-9.5v-10.4h9.5V-18.9z M280.9-29.7h-9.5v-10.4h9.5V-29.7z M280.9-40.5h-9.5v-10.4h9.5V-40.5z M290.9,197.2h-9.5v-10.4
		h9.5V197.2z M290.9,186.4h-9.5V176h9.5V186.4z M290.9,175.6h-9.5v-10.4h9.5V175.6z M290.9,164.8h-9.5v-10.4h9.5V164.8z M290.9,154
		h-9.5v-10.4h9.5V154z M290.9,143.2h-9.5v-10.4h9.5V143.2z M290.9,132.4h-9.5V122h9.5V132.4z M290.9,121.5h-9.5v-10.4h9.5V121.5z
		 M290.9,110.7h-9.5v-10.4h9.5V110.7z M290.9,99.9h-9.5V89.6h9.5V99.9z M290.9,89.1h-9.5V78.8h9.5V89.1z M290.9,78.3h-9.5V68h9.5
		V78.3z M290.9,67.5h-9.5V57.2h9.5V67.5z M290.9,56.7h-9.5V46.4h9.5V56.7z M290.9,45.9h-9.5V35.6h9.5V45.9z M290.9,35.1h-9.5V24.8
		h9.5V35.1z M290.9,24.3h-9.5V13.9h9.5V24.3z M290.9,13.5h-9.5V3.1h9.5V13.5z M290.9,2.7h-9.5V-7.7h9.5V2.7z M290.9-8.1h-9.5v-10.4
		h9.5V-8.1z M290.9-18.9h-9.5v-10.4h9.5V-18.9z M290.9-29.7h-9.5v-10.4h9.5V-29.7z M290.9-40.5h-9.5v-10.4h9.5V-40.5z M300.9,197.2
		h-9.5v-10.4h9.5V197.2z M300.9,186.4h-9.5V176h9.5V186.4z M300.9,175.6h-9.5v-10.4h9.5V175.6z M300.9,164.8h-9.5v-10.4h9.5V164.8z
		 M300.9,154h-9.5v-10.4h9.5V154z M300.9,143.2h-9.5v-10.4h9.5V143.2z M300.9,132.4h-9.5V122h9.5V132.4z M300.9,121.5h-9.5v-10.4
		h9.5V121.5z M300.9,110.7h-9.5v-10.4h9.5V110.7z M300.9,99.9h-9.5V89.6h9.5V99.9z M300.9,89.1h-9.5V78.8h9.5V89.1z M300.9,78.3
		h-9.5V68h9.5V78.3z M300.9,67.5h-9.5V57.2h9.5V67.5z M300.9,56.7h-9.5V46.4h9.5V56.7z M300.9,45.9h-9.5V35.6h9.5V45.9z M300.9,35.1
		h-9.5V24.8h9.5V35.1z M300.9,24.3h-9.5V13.9h9.5V24.3z M300.9,13.5h-9.5V3.1h9.5V13.5z M300.9,2.7h-9.5V-7.7h9.5V2.7z M300.9-8.1
		h-9.5v-10.4h9.5V-8.1z M300.9-18.9h-9.5v-10.4h9.5V-18.9z M300.9-29.7h-9.5v-10.4h9.5V-29.7z M300.9-40.5h-9.5v-10.4h9.5V-40.5z
		 M310.8,197.2h-9.5v-10.4h9.5V197.2z M310.8,186.4h-9.5V176h9.5V186.4z M310.8,175.6h-9.5v-10.4h9.5V175.6z M310.8,164.8h-9.5
		v-10.4h9.5V164.8z M310.8,154h-9.5v-10.4h9.5V154z M310.8,143.2h-9.5v-10.4h9.5V143.2z M310.8,132.4h-9.5V122h9.5V132.4z
		 M310.8,121.5h-9.5v-10.4h9.5V121.5z M310.8,110.7h-9.5v-10.4h9.5V110.7z M310.8,99.9h-9.5V89.6h9.5V99.9z M310.8,89.1h-9.5V78.8
		h9.5V89.1z M310.8,78.3h-9.5V68h9.5V78.3z M310.8,67.5h-9.5V57.2h9.5V67.5z M310.8,56.7h-9.5V46.4h9.5V56.7z M310.8,45.9h-9.5V35.6
		h9.5V45.9z M310.8,35.1h-9.5V24.8h9.5V35.1z M310.8,24.3h-9.5V13.9h9.5V24.3z M310.8,13.5h-9.5V3.1h9.5V13.5z M310.8,2.7h-9.5V-7.7
		h9.5V2.7z M310.8-8.1h-9.5v-10.4h9.5V-8.1z M310.8-18.9h-9.5v-10.4h9.5V-18.9z M310.8-29.7h-9.5v-10.4h9.5V-29.7z M310.8-40.5h-9.5
		v-10.4h9.5V-40.5z M320.8,197.2h-9.5v-10.4h9.5V197.2z M320.8,186.4h-9.5V176h9.5V186.4z M320.8,175.6h-9.5v-10.4h9.5V175.6z
		 M320.8,164.8h-9.5v-10.4h9.5V164.8z M320.8,154h-9.5v-10.4h9.5V154z M320.8,143.2h-9.5v-10.4h9.5V143.2z M320.8,132.4h-9.5V122
		h9.5V132.4z M320.8,121.5h-9.5v-10.4h9.5V121.5z M320.8,110.7h-9.5v-10.4h9.5V110.7z M320.8,99.9h-9.5V89.6h9.5V99.9z M320.8,89.1
		h-9.5V78.8h9.5V89.1z M320.8,78.3h-9.5V68h9.5V78.3z M320.8,67.5h-9.5V57.2h9.5V67.5z M320.8,56.7h-9.5V46.4h9.5V56.7z M320.8,45.9
		h-9.5V35.6h9.5V45.9z M320.8,35.1h-9.5V24.8h9.5V35.1z M320.8,24.3h-9.5V13.9h9.5V24.3z M320.8,13.5h-9.5V3.1h9.5V13.5z M320.8,2.7
		h-9.5V-7.7h9.5V2.7z M320.8-8.1h-9.5v-10.4h9.5V-8.1z M320.8-18.9h-9.5v-10.4h9.5V-18.9z M320.8-29.7h-9.5v-10.4h9.5V-29.7z
		 M320.8-40.5h-9.5v-10.4h9.5V-40.5z M330.8,197.2h-9.5v-10.4h9.5V197.2z M330.8,186.4h-9.5V176h9.5V186.4z M330.8,175.6h-9.5v-10.4
		h9.5V175.6z M330.8,164.8h-9.5v-10.4h9.5V164.8z M330.8,154h-9.5v-10.4h9.5V154z M330.8,143.2h-9.5v-10.4h9.5V143.2z M330.8,132.4
		h-9.5V122h9.5V132.4z M330.8,121.5h-9.5v-10.4h9.5V121.5z M330.8,110.7h-9.5v-10.4h9.5V110.7z M330.8,99.9h-9.5V89.6h9.5V99.9z
		 M330.8,89.1h-9.5V78.8h9.5V89.1z M330.8,78.3h-9.5V68h9.5V78.3z M330.8,67.5h-9.5V57.2h9.5V67.5z M330.8,56.7h-9.5V46.4h9.5V56.7z
		 M330.8,45.9h-9.5V35.6h9.5V45.9z M330.8,35.1h-9.5V24.8h9.5V35.1z M330.8,24.3h-9.5V13.9h9.5V24.3z M330.8,13.5h-9.5V3.1h9.5V13.5
		z M330.8,2.7h-9.5V-7.7h9.5V2.7z M330.8-8.1h-9.5v-10.4h9.5V-8.1z M330.8-18.9h-9.5v-10.4h9.5V-18.9z M330.8-29.7h-9.5v-10.4h9.5
		V-29.7z M330.8-40.5h-9.5v-10.4h9.5V-40.5z M340.8,197.2h-9.5v-10.4h9.5V197.2z M340.8,186.4h-9.5V176h9.5V186.4z M340.8,175.6
		h-9.5v-10.4h9.5V175.6z M340.8,164.8h-9.5v-10.4h9.5V164.8z M340.8,154h-9.5v-10.4h9.5V154z M340.8,143.2h-9.5v-10.4h9.5V143.2z
		 M340.8,132.4h-9.5V122h9.5V132.4z M340.8,121.5h-9.5v-10.4h9.5V121.5z M340.8,110.7h-9.5v-10.4h9.5V110.7z M340.8,99.9h-9.5V89.6
		h9.5V99.9z M340.8,89.1h-9.5V78.8h9.5V89.1z M340.8,78.3h-9.5V68h9.5V78.3z M340.8,67.5h-9.5V57.2h9.5V67.5z M340.8,56.7h-9.5V46.4
		h9.5V56.7z M340.8,45.9h-9.5V35.6h9.5V45.9z M340.8,35.1h-9.5V24.8h9.5V35.1z M340.8,24.3h-9.5V13.9h9.5V24.3z M340.8,13.5h-9.5
		V3.1h9.5V13.5z M340.8,2.7h-9.5V-7.7h9.5V2.7z M340.8-8.1h-9.5v-10.4h9.5V-8.1z M340.8-18.9h-9.5v-10.4h9.5V-18.9z M340.8-29.7
		h-9.5v-10.4h9.5V-29.7z M340.8-40.5h-9.5v-10.4h9.5V-40.5z M350.7,197.2h-9.5v-10.4h9.5V197.2z M350.7,186.4h-9.5V176h9.5V186.4z
		 M350.7,175.6h-9.5v-10.4h9.5V175.6z M350.7,164.8h-9.5v-10.4h9.5V164.8z M350.7,154h-9.5v-10.4h9.5V154z M350.7,143.2h-9.5v-10.4
		h9.5V143.2z M350.7,132.4h-9.5V122h9.5V132.4z M350.7,121.5h-9.5v-10.4h9.5V121.5z M350.7,110.7h-9.5v-10.4h9.5V110.7z M350.7,99.9
		h-9.5V89.6h9.5V99.9z M350.7,89.1h-9.5V78.8h9.5V89.1z M350.7,78.3h-9.5V68h9.5V78.3z M350.7,67.5h-9.5V57.2h9.5V67.5z M350.7,56.7
		h-9.5V46.4h9.5V56.7z M350.7,45.9h-9.5V35.6h9.5V45.9z M350.7,35.1h-9.5V24.8h9.5V35.1z M350.7,24.3h-9.5V13.9h9.5V24.3z
		 M350.7,13.5h-9.5V3.1h9.5V13.5z M350.7,2.7h-9.5V-7.7h9.5V2.7z M350.7-8.1h-9.5v-10.4h9.5V-8.1z M350.7-18.9h-9.5v-10.4h9.5V-18.9
		z M350.7-29.7h-9.5v-10.4h9.5V-29.7z M350.7-40.5h-9.5v-10.4h9.5V-40.5z"/>
	<path style="opacity:0.2;clip-path:url(#SVGID_2_);fill-rule:evenodd;clip-rule:evenodd;fill:#3363B5;" d="M-28.4,138.5
		c1.1,0.2,2.2,0.3,3.4,0.5c2.3-4.4,4.6-8.7,7-13.3c1.9,2,3.5,3.7,5,5.5c0.6,0.7,1.3,1.3,1.6,2c1.4,3.7,2.6,7.4,3.9,11.1
		c0.9,2.5,1.8,5.1,2.8,7.9c2.4-1.6,4.5-3,6.8-4.5c2.3,2.7,4.4,5.2,6.6,7.7c4-1,8.2-1.7,8.6-4.3c0.1-0.6,0.7-1.2,1.1-1.8
		c1.6-2.6,3.7-5.1,4.6-7.8c2.1-6.3,3.8-12.6,5.2-18.9c0.7-3.4,2.5-6.4,7.3-8.9c0.5-0.3,0.9-0.7,1.1-1.1c0.9-1.9,1.7-3.8,2.6-5.8
		c1.1-2.5,2.3-5.1,3.4-7.6c0.2,0,0.3,0,0.5,0c2.1,6.4,4.2,12.8,6.4,19.4c0.6-0.4,1-0.7,1.3-0.9c1.6-1.3,3.3-2.7,4.7-4
		c1-1,2.1-1.2,4.1-0.7c1.2,0.3,2.6,0.4,4.1,0.6c2.2-3.3,4.5-6.5,6.6-9.8c0.8-1.2,1.2-2.6,1.7-3.8c2.8-7.2,5.4-14.5,11.3-21.3
		c0.3-0.3,0.6-0.8,1.2-0.9c1.9-0.4,3.8-0.7,5.8-1.1c2.4,3,4.7,5.8,7.2,8.7c2.3-0.8,4.2-1.7,6.4-2.3c2.2-0.7,4.6-1.2,7-1.8
		c2.3,1.6,4.5,3.2,6.9,4.9c1.8-2.4,3.4-4.6,4.9-6.7c1.8-2.5,1.8-2.5,7.1-2.4c1.2,0,1.7-0.2,2.3-0.7c1.2-1.1,2.7-2.2,3.8-3.4
		c1.5-1.7,3.9-2.7,7.4-3.1c1.3-0.2,2-0.1,2.9,0.3c1.7,0.9,3.6,1.8,5.6,2.8c1-1.9,1.9-3.6,2.8-5.3c2.1-4,3.7-8.2,9.4-11.5
		c1.1-0.6,2-1.4,3.4-1.8c3.9-1.3,6.1-3,7.1-5.2c0.8-1.7,2.1-3.4,3.3-5c0.3-0.5,0.7-0.9,1-1.4c4,6.1,7.7,12.2,13.6,18.1
		c1.7-0.2,3.4-0.5,5.2-0.6c0.7,0,1.8,0.1,2.2,0.4c1.8,1.3,3.2,2.7,5.2,3.9c2.3,1.3,5.1,2.4,8,3.8c0.2-0.4,0.3-0.6,0.4-0.7
		c2.1-5.2,4.2-10.4,6.2-15.6c0.2-0.6,0.7-0.9,1.9-1c3.3-0.3,6.7-0.6,10-0.9c1.3-0.1,2-0.2,2.2-0.9c0.4-1.1,1-2.1,1.5-3.1
		c2.6-4.8,4.1-9.7,9-14.1c2.1-1.9,4.2-3.5,8.3-4.3c0.7-0.2,1.4-0.6,1.7-1c2-3,3.9-5.9,5.8-8.9c0.3-0.5,0.8-0.9,2.1-0.9
		c3.8-0.2,7.3-0.9,10.5-1.8c0.8-0.2,1.5-0.6,1.9-1c2-1.9,3.8-3.8,5.8-5.9c0.4,0.5,0.7,0.8,0.9,1.1c1.9,2.6,3.7,5.1,5.7,7.7
		c0.3,0.3,1.1,0.7,1.8,0.8c3.8,0.4,7.6,0.3,11.4-0.2c0.6-0.1,1.3-0.4,1.5-0.7c1.3-1.6,2.5-3.2,3.8-4.7c0.8-1,1.7-2.1,2.6-3.2
		c1.7,0.2,3.2,0.3,4.7,0.6c1.4,0.2,2.3,0.1,3.1-0.6c1.8-1.5,3.7-2.9,5.8-4.4c0.3,0.4,0.4,0.7,0.6,0.9c1.9,3.6,3.9,7.3,5.8,10.9
		c0.1,0.2,0.2,0.6,0.5,0.7c2.2,0.5,4.5,1,6.9,1.5c1.1-2.2,2.1-4.4,3.2-6.5v188.4H-28.4V138.5z"/>
	<g class="st2">
		<linearGradient id="SVGID_3_" gradientUnits="userSpaceOnUse" x1="271.3798" y1="62.1934" x2="238.1995" y2="90.0553">
			<stop  offset="0" style="stop-color:#2F64B4"/>
			<stop  offset="0.401" style="stop-color:#1B4E83"/>
			<stop  offset="1" style="stop-color:#042340"/>
		</linearGradient>
		<polygon class="st3" points="295,77.6 295,79.6 245.2,49.2 245.1,47 		"/>
		<linearGradient id="SVGID_4_" gradientUnits="userSpaceOnUse" x1="297.8446" y1="38.1486" x2="217.8313" y2="100.6988">
			<stop  offset="0" style="stop-color:#2F64B4"/>
			<stop  offset="0.401" style="stop-color:#1B4E83"/>
			<stop  offset="1" style="stop-color:#042340"/>
		</linearGradient>
		<polygon class="st4" points="218.3,108.9 201.6,97.9 275.7,46.9 292.4,57.9 		"/>
		<linearGradient id="SVGID_5_" gradientUnits="userSpaceOnUse" x1="214.5599" y1="133.5294" x2="198.0491" y2="69.0737">
			<stop  offset="0" style="stop-color:#2F64B4"/>
			<stop  offset="0.401" style="stop-color:#1B4E83"/>
			<stop  offset="1" style="stop-color:#042340"/>
		</linearGradient>
		<polygon class="st5" points="217.1,111.8 200.4,100.8 186.7,56.5 203.4,67.5 		"/>
		<linearGradient id="SVGID_6_" gradientUnits="userSpaceOnUse" x1="196.3654" y1="60.2294" x2="99.5237" y2="124.6848">
			<stop  offset="0" style="stop-color:#2F64B4"/>
			<stop  offset="0.401" style="stop-color:#1B4E83"/>
			<stop  offset="1" style="stop-color:#042340"/>
		</linearGradient>
		<polygon class="st6" points="105,133.2 88.4,122.2 187.9,53.6 204.6,64.6 		"/>
		<linearGradient id="SVGID_7_" gradientUnits="userSpaceOnUse" x1="102.7925" y1="156.5082" x2="85.3292" y2="97.133">
			<stop  offset="0" style="stop-color:#2F64B4"/>
			<stop  offset="0.401" style="stop-color:#1B4E83"/>
			<stop  offset="1" style="stop-color:#042340"/>
		</linearGradient>
		<polygon class="st7" points="103.8,136.1 87.2,125.1 74.4,83.8 91,94.9 		"/>
		<linearGradient id="SVGID_8_" gradientUnits="userSpaceOnUse" x1="82.9976" y1="86.6487" x2="-48.7706" y2="178.4102">
			<stop  offset="0" style="stop-color:#2F64B4"/>
			<stop  offset="0.401" style="stop-color:#1B4E83"/>
			<stop  offset="1" style="stop-color:#042340"/>
		</linearGradient>
		<polygon class="st8" points="-33.3,178.5 -50,167.5 75.6,81 92.2,92 		"/>
		<linearGradient id="SVGID_9_" gradientUnits="userSpaceOnUse" x1="217.5632" y1="40.2826" x2="69.4431" y2="173.1623">
			<stop  offset="0" style="stop-color:#2F64B4"/>
			<stop  offset="0.401" style="stop-color:#1B4E83"/>
			<stop  offset="1" style="stop-color:#042340"/>
		</linearGradient>
		<polygon class="st9" points="292.4,57.9 292.9,59.6 217.1,111.8 203.4,67.5 103.8,136.1 91,94.9 -32.8,180.2 -33.3,178.5 92.2,92 
			105,133.2 204.6,64.6 218.3,108.9 		"/>
		<linearGradient id="SVGID_10_" gradientUnits="userSpaceOnUse" x1="299.0229" y1="39.6558" x2="218.9793" y2="102.2296">
			<stop  offset="0" style="stop-color:#2F64B4"/>
			<stop  offset="0.401" style="stop-color:#1B4E83"/>
			<stop  offset="1" style="stop-color:#042340"/>
		</linearGradient>
		<polygon class="st10" points="245.1,47 295,77.6 303.2,38.9 		"/>
		<linearGradient id="SVGID_11_" gradientUnits="userSpaceOnUse" x1="279.2874" y1="64.2451" x2="324.5331" y2="52.8145">
			<stop  offset="0" style="stop-color:#2F64B4"/>
			<stop  offset="0.401" style="stop-color:#1B4E83"/>
			<stop  offset="1" style="stop-color:#042340"/>
		</linearGradient>
		<polygon class="st11" points="303.2,38.9 303,41.3 295,79.6 295,77.6 		"/>
	</g>
</g>
</svg>
