<svg width="16" height="16" viewBox="0 0 16 16" fill="none" xmlns="http://www.w3.org/2000/svg">
<path d="M8.27755 0.324707C4.01166 0.324707 0.552734 3.78209 0.552734 8.04608C0.552734 11.207 2.45635 13.9233 5.17728 15.1194C5.15659 14.5817 5.17383 13.9336 5.31178 13.3476C5.46006 12.7203 6.30497 9.13879 6.30497 9.13879C6.30497 9.13879 6.05667 8.64586 6.05667 7.91854C6.05667 6.77412 6.7188 5.91925 7.54645 5.91925C8.24997 5.91925 8.58793 6.44665 8.58793 7.07746C8.58793 7.7841 8.13616 8.8389 7.90511 9.81786C7.71199 10.6383 8.31549 11.3035 9.1259 11.3035C10.5881 11.3035 11.5744 9.42489 11.5744 7.19811C11.5744 5.50561 10.4329 4.24055 8.36032 4.24055C6.01873 4.24055 4.55654 5.98819 4.55654 7.93922C4.55654 8.61139 4.75655 9.08708 5.06693 9.45247C5.20832 9.62138 5.22901 9.69032 5.17728 9.88335C5.13935 10.0247 5.05658 10.3659 5.01865 10.5038C4.96692 10.7003 4.80828 10.7692 4.6324 10.6969C3.553 10.2556 3.04951 9.07674 3.04951 7.74619C3.04951 5.55387 4.90139 2.92378 8.57068 2.92378C11.5192 2.92378 13.4608 5.05749 13.4608 7.34633C13.4608 10.3763 11.7744 12.6375 9.29144 12.6375C8.45688 12.6375 7.67405 12.186 7.40506 11.6758C7.40506 11.6758 6.95675 13.4545 6.86019 13.7992C6.6981 14.3955 6.37739 14.9884 6.08426 15.4538C6.79531 15.6634 7.53275 15.7702 8.27411 15.7709C12.54 15.7709 15.9989 12.3135 15.9989 8.04953C15.9989 3.78554 12.5434 0.324707 8.27755 0.324707Z" fill="white"/>
</svg>
