<svg width="32" height="32" viewBox="0 0 32 32" fill="none" xmlns="http://www.w3.org/2000/svg">
<path d="M3 10C2.447 10 2 9.552 2 9V5C2 3.346 3.346 2 5 2H9C9.553 2 10 2.448 10 3C10 3.552 9.553 4 9 4H5C4.448 4 4 4.449 4 5V9C4 9.552 3.553 10 3 10ZM30 9V5C30 3.346 28.654 2 27 2H23C22.447 2 22 2.448 22 3C22 3.552 22.447 4 23 4H27C27.552 4 28 4.449 28 5V9C28 9.552 28.447 10 29 10C29.553 10 30 9.552 30 9ZM10 29C10 28.448 9.553 28 9 28H5C4.448 28 4 27.551 4 27V23C4 22.448 3.553 22 3 22C2.447 22 2 22.448 2 23V27C2 28.654 3.346 30 5 30H9C9.553 30 10 29.552 10 29ZM30 27V23C30 22.448 29.553 22 29 22C28.447 22 28 22.448 28 23V27C28 27.551 27.552 28 27 28H23C22.447 28 22 28.448 22 29C22 29.552 22.447 30 23 30H27C28.654 30 30 28.654 30 27ZM15 13V9C15 7.897 14.103 7 13 7H9C7.897 7 7 7.897 7 9V13C7 14.103 7.897 15 9 15H13C14.103 15 15 14.103 15 13ZM13 9V13H9V9H13ZM15 23V19C15 17.897 14.103 17 13 17H9C7.897 17 7 17.897 7 19V23C7 24.103 7.897 25 9 25H13C14.103 25 15 24.103 15 23ZM13 19V23H9V19H13ZM25 13V9C25 7.897 24.103 7 23 7H19C17.897 7 17 7.897 17 9V13C17 14.103 17.897 15 19 15H23C24.103 15 25 14.103 25 13ZM23 9V13H19V9H23Z" fill="#11474D"/>
<path d="M18 22C17.447 22 17 21.552 17 21V19C17 17.897 17.897 17 19 17H24C24.553 17 25 17.448 25 18C25 18.552 24.553 19 24 19H19V21C19 21.552 18.553 22 18 22ZM22 24V21C22 20.448 21.553 20 21 20C20.447 20 20 20.448 20 21V23H18C17.447 23 17 23.448 17 24C17 24.552 17.447 25 18 25H21C21.553 25 22 24.552 22 24ZM25 24V21C25 20.448 24.553 20 24 20C23.447 20 23 20.448 23 21V24C23 24.552 23.447 25 24 25C24.553 25 25 24.552 25 24Z" fill="black"/>
</svg>
