<svg xmlns="http://www.w3.org/2000/svg" version="1.1" xmlns:xlink="http://www.w3.org/1999/xlink" width="512" height="512" x="0" y="0" viewBox="0 0 512 512" style="enable-background:new 0 0 512 512" xml:space="preserve" class=""><g><path d="M404.322 0H107.677c-24.813 0-45 20.187-45 45v422c0 24.813 20.187 45 45 45h296.645c24.813 0 45-20.187 45-45V45c0-24.813-20.188-45-45-45zM123.77 88.35c0-6.6 5.4-12 12-12h244.473c6.6 0 12 5.4 12 12v45.749c.001 6.6-5.399 12-11.999 12H135.77c-6.6 0-12-5.4-12-12V88.35zm146.257 164.045h-28.053c-8.285 0-15-6.716-15-15v-20.383c0-8.284 6.716-15 15-15h28.053c8.284 0 15 6.716 15 15v20.383c0 8.284-6.716 15-15 15zm15 61.239v20.383c0 8.284-6.716 15-15 15h-28.053c-8.284 0-15-6.716-15-15v-20.383c0-8.285 6.715-15 15-15h28.053c8.284 0 15 6.716 15 15zm-107.22 117.005c0 8.284-6.716 15-15 15h-28.053c-8.284 0-15-6.716-15-15v-20.383c0-8.284 6.716-15 15-15h28.053c8.284 0 15 6.715 15 15v20.383zm0-96.622c0 8.284-6.716 15-15 15h-28.053c-8.284 0-15-6.716-15-15v-20.383c0-8.284 6.716-15 15-15h28.053c8.284 0 15 6.716 15 15v20.383zm0-96.622c0 8.284-6.716 15-15 15h-28.053c-8.284 0-15-6.716-15-15v-20.383c0-8.284 6.716-15 15-15h28.053c8.284 0 15 6.716 15 15v20.383zm214.437 193.244c0 8.284-6.716 15-15 15H241.973c-8.284 0-15-6.716-15-15v-20.383c0-8.285 6.715-15 15-15h135.271c8.284 0 15 6.716 15 15v20.383zm0-96.622c0 8.284-6.716 15-15 15h-28.053c-8.284 0-15-6.716-15-15v-20.383c0-8.284 6.716-15 15-15h28.053c8.284 0 15 6.716 15 15v20.383zm0-96.622c0 8.284-6.716 15-15 15h-28.053c-8.284 0-15-6.716-15-15v-20.383c0-8.284 6.716-15 15-15h28.053c8.284 0 15 6.716 15 15v20.383z" fill="#ffffff" opacity="1" data-original="#000000" class=""></path></g></svg>