<svg xmlns="http://www.w3.org/2000/svg" version="1.1" xmlns:xlink="http://www.w3.org/1999/xlink" width="512" height="512" x="0" y="0" viewBox="0 0 512 512" style="enable-background:new 0 0 512 512" xml:space="preserve" class=""><g><path d="M271.063 406.563c83.021 0 150.562-67.542 150.562-150.562s-67.542-150.562-150.562-150.562S120.5 172.98 120.5 256s67.542 150.563 150.563 150.563zm-15-165.563v-33.333c0-8.284 6.716-15 15-15s15 6.716 15 15V256c0 8.284-6.716 15-15 15H195.75c-8.284 0-15-6.716-15-15s6.716-15 15-15z" fill="#fffefe" opacity="1" data-original="#000000" class=""></path><path d="M441.432 85.631c-45.508-45.507-106.013-70.568-170.369-70.568S146.201 40.124 100.694 85.631c-37.426 37.427-61.008 85.002-68.208 136.516l-6.879-6.879c-5.857-5.857-15.355-5.857-21.213 0s-5.858 15.355 0 21.213l30.125 30.125c2.929 2.929 6.768 4.394 10.606 4.394s7.678-1.465 10.606-4.394l30.125-30.125c5.858-5.857 5.858-15.355 0-21.213-5.857-5.857-15.355-5.857-21.213 0l-.689.689C82.715 118.731 168.44 45.063 271.063 45.063 387.374 45.063 482 139.689 482 256s-94.626 210.938-210.938 210.938c-94.598 0-178.221-63.606-203.356-154.679-2.203-7.987-10.465-12.676-18.449-10.469-7.986 2.203-12.673 10.464-10.469 18.449 13.754 49.836 43.982 94.779 85.115 126.55 42.476 32.808 93.362 50.148 147.159 50.148 64.356 0 124.861-25.062 170.369-70.568C486.939 380.861 512 320.357 512 256s-25.061-124.861-70.568-170.369z" fill="#fffefe" opacity="1" data-original="#000000" class=""></path></g></svg>