<svg xmlns="http://www.w3.org/2000/svg" version="1.1" xmlns:xlink="http://www.w3.org/1999/xlink" width="512" height="512" x="0" y="0" viewBox="0 0 1024 1024" style="enable-background:new 0 0 512 512" xml:space="preserve" class=""><g><path d="m854.6 84.6-20.7 20.7-55.9 55.9-83.1 83.1-100.8 100.8L483 456.2 371.6 567.6 267.1 672.1l-87.8 87.8-63.5 63.5c-10 10-20 19.9-29.9 29.9l-1.3 1.3C73.7 865.5 67 881.6 67 897c0 14.7 6.5 32.3 17.6 42.4C96 949.9 111 957.7 127 957c15.9-.7 30.9-6.1 42.4-17.6l20.7-20.7 55.9-55.9 83.1-83.1 100.8-100.8L541 567.8l111.4-111.4 104.5-104.5 87.8-87.8 63.5-63.5c10-10 20-19.9 29.9-29.9l1.3-1.3c10.9-10.9 17.6-27 17.6-42.4 0-14.7-6.5-32.3-17.6-42.4C928 74.1 913 66.3 897 67c-15.9.7-30.9 6.1-42.4 17.6zM252.9 377.8h-25.5c-9.5 0-19.2.5-28.7-.7 5.3.7 10.6 1.4 16 2.1-7.2-1-14.1-2.9-20.8-5.7 4.8 2 9.6 4 14.3 6-6.5-2.8-12.6-6.3-18.2-10.6 4 3.1 8.1 6.3 12.1 9.4-5.9-4.6-11.2-9.8-15.7-15.7 3.1 4 6.3 8.1 9.4 12.1-4.3-5.7-7.8-11.7-10.6-18.2 2 4.8 4 9.6 6 14.3-2.7-6.7-4.6-13.6-5.7-20.8.7 5.3 1.4 10.6 2.1 16-1-7.6-.7-15.2-.7-22.8V224.7c0-8.7-.4-17.5.7-26.1-.7 5.3-1.4 10.6-2.1 16 1-7.2 2.9-14.1 5.7-20.8-2 4.8-4 9.6-6 14.3 2.8-6.5 6.3-12.6 10.6-18.2-3.1 4-6.3 8.1-9.4 12.1 4.6-5.9 9.8-11.2 15.7-15.7-4 3.1-8.1 6.3-12.1 9.4 5.7-4.3 11.7-7.8 18.2-10.6-4.8 2-9.6 4-14.3 6 6.7-2.7 13.6-4.6 20.8-5.7-5.3.7-10.6 1.4-16 2.1 10.8-1.4 21.8-.7 32.6-.7s21.9-.6 32.6.7c-5.3-.7-10.6-1.4-16-2.1 7.2 1 14.1 2.9 20.8 5.7-4.8-2-9.6-4-14.3-6 6.5 2.8 12.6 6.3 18.2 10.6-4-3.1-8.1-6.3-12.1-9.4 5.9 4.6 11.1 9.8 15.7 15.7-3.1-4-6.3-8.1-9.4-12.1 4.3 5.7 7.8 11.7 10.6 18.2-2-4.8-4-9.6-6-14.3 2.7 6.7 4.6 13.6 5.7 20.8-.7-5.3-1.4-10.6-2.1-16 1 7.6.7 15.2.7 22.8v118.5c0 8.7.4 17.5-.7 26.1.7-5.3 1.4-10.6 2.1-16-1 7.2-2.9 14.1-5.7 20.8 2-4.8 4-9.6 6-14.3-2.8 6.5-6.3 12.6-10.6 18.2 3.1-4 6.3-8.1 9.4-12.1-4.6 5.9-9.8 11.2-15.7 15.7 4-3.1 8.1-6.3 12.1-9.4-5.7 4.3-11.7 7.8-18.2 10.6 4.8-2 9.6-4 14.3-6-6.7 2.7-13.6 4.6-20.8 5.7 5.3-.7 10.6-1.4 16-2.1-3.6.4-7.3.7-11 .7-15.5.1-31.5 6.6-42.4 17.6-10.4 10.4-18.2 27.5-17.6 42.4.7 15.5 5.8 31.6 17.6 42.4 11.7 10.7 26.2 17.7 42.4 17.6 36.7-.3 70.4-14.4 97.5-38.7 11.1-10 20.9-22.7 27.8-35.9 4.4-8.5 8.2-17.5 11.2-26.6 3.3-10.2 4.5-21.3 5.6-31.8.8-7.7.6-15.5.6-23.2V219.3c0-14.2-.9-27.8-3.8-41.9-3-14.9-9.4-29.8-17.6-42.6-11.5-17.8-24.2-30.2-41-42.6-23-17-53-25.1-81.4-25.2H213c-26.9 0-54.1 6.3-77.1 20.7-30.3 18.9-52.5 47.7-63.1 81.8-8 25.7-5.8 54.3-5.8 80.9v88c0 6.3-.1 12.5 0 18.8.9 36.2 15 69.9 39.6 96.4 10.1 11 22.8 20.8 36.2 27.4 8.8 4.4 17.9 8.4 27.3 11.2 10.1 3 20.9 4.1 31.3 5.2 12.9 1.3 26.2.4 39.1.4h12.4c15.4 0 31.5-6.7 42.4-17.6 10.4-10.4 18.2-27.5 17.6-42.4-.7-15.5-5.8-31.6-17.6-42.4-11.7-10.8-26.1-17.6-42.4-17.6zM814.2 837h-25.5c-9.5 0-19.2.5-28.7-.7 5.3.7 10.6 1.4 16 2.1-7.2-1-14.1-2.9-20.8-5.7 4.8 2 9.6 4 14.3 6-6.5-2.8-12.6-6.3-18.2-10.6 4 3.1 8.1 6.3 12.1 9.4-5.9-4.6-11.2-9.8-15.7-15.7 3.1 4 6.3 8.1 9.4 12.1-4.3-5.7-7.8-11.7-10.6-18.2 2 4.8 4 9.6 6 14.3-2.7-6.7-4.6-13.6-5.7-20.8.7 5.3 1.4 10.6 2.1 16-1-7.6-.7-15.2-.7-22.8V683.9c0-8.7-.4-17.5.7-26.1-.7 5.3-1.4 10.6-2.1 16 1-7.2 2.9-14.1 5.7-20.8-2 4.8-4 9.6-6 14.3 2.8-6.5 6.3-12.6 10.6-18.2-3.1 4-6.3 8.1-9.4 12.1 4.6-5.9 9.8-11.2 15.7-15.7-4 3.1-8.1 6.3-12.1 9.4 5.7-4.3 11.7-7.8 18.2-10.6-4.8 2-9.6 4-14.3 6 6.7-2.7 13.6-4.6 20.8-5.7-5.3.7-10.6 1.4-16 2.1 10.8-1.4 21.8-.7 32.6-.7s21.9-.6 32.6.7c-5.3-.7-10.6-1.4-16-2.1 7.2 1 14.1 2.9 20.8 5.7-4.8-2-9.6-4-14.3-6 6.5 2.8 12.6 6.3 18.2 10.6-4-3.1-8.1-6.3-12.1-9.4 5.9 4.6 11.2 9.8 15.7 15.7-3.1-4-6.3-8.1-9.4-12.1 4.3 5.7 7.8 11.7 10.6 18.2-2-4.8-4-9.6-6-14.3 2.7 6.7 4.6 13.6 5.7 20.8-.7-5.3-1.4-10.6-2.1-16 1 7.6.7 15.2.7 22.8v118.5c0 8.7.4 17.5-.7 26.1.7-5.3 1.4-10.6 2.1-16-1 7.2-2.9 14.1-5.7 20.8 2-4.8 4-9.6 6-14.3-2.8 6.5-6.3 12.6-10.6 18.2 3.1-4 6.3-8.1 9.4-12.1-4.6 5.9-9.8 11.2-15.7 15.7 4-3.1 8.1-6.3 12.1-9.4-5.7 4.3-11.7 7.8-18.2 10.6 4.8-2 9.6-4 14.3-6-6.7 2.7-13.6 4.6-20.8 5.7 5.3-.7 10.6-1.4 16-2.1-3.6.4-7.2.7-11 .7-15.5.1-31.5 6.6-42.4 17.6-10.4 10.4-18.2 27.5-17.6 42.4.7 15.5 5.8 31.6 17.6 42.4 11.7 10.7 26.2 17.7 42.4 17.6 36.7-.3 70.4-14.4 97.5-38.7 11.1-10 20.9-22.7 27.8-35.9 4.4-8.5 8.2-17.5 11.2-26.6 3.3-10.2 4.5-21.3 5.6-31.8.8-7.7.6-15.5.6-23.2V678.5c0-14.2-.9-27.8-3.8-41.9-3-14.9-9.4-29.8-17.6-42.6-11.5-17.8-24.2-30.2-41-42.6-23-17-53-25.1-81.4-25.2h-38.8c-26.9 0-54.1 6.3-77.1 20.7-30.3 18.9-52.5 47.7-63.1 81.8-8 25.7-5.8 54.3-5.8 80.9v88c0 6.3-.1 12.5 0 18.8.9 36.2 15 69.9 39.6 96.4 10.1 11 22.8 20.8 36.2 27.4 8.8 4.4 17.9 8.4 27.3 11.2 10.1 3 20.9 4.1 31.3 5.2 12.9 1.3 26.2.4 39.1.4h12.4c15.4 0 31.5-6.7 42.4-17.6 10.4-10.4 18.2-27.5 17.6-42.4-.7-15.5-5.8-31.6-17.6-42.4-11.7-10.8-26.1-17.6-42.4-17.6z" fill="#ffffff" opacity="1" data-original="#000000" class=""></path></g></svg>