<svg xmlns="http://www.w3.org/2000/svg" version="1.1" xmlns:xlink="http://www.w3.org/1999/xlink" width="512" height="512" x="0" y="0" viewBox="0 0 512 512" style="enable-background:new 0 0 512 512" xml:space="preserve" class=""><g><path fill-rule="evenodd" d="m0 311.004 101.182 101.228a8.533 8.533 0 0 1 2.492 6.005l.255 74.563c0 10.598 8.602 19.2 19.181 19.2h50.424c10.578 0 19.181-8.602 19.181-19.167l-.569-157.252L89.001 233.967c-8.609-8.596-22.543-8.596-31.106-.039-8.557 8.563-8.557 22.497.013 31.054l84.029 84.036a8.528 8.528 0 0 1 0 12.07 8.521 8.521 0 0 1-12.063 0l-84.042-84.036c-10.493-10.493-13.751-25.533-9.76-38.845a6.531 6.531 0 0 1-.02-.504V115.057c0-9.937-8.086-18.023-18.03-18.023C8.086 97.034 0 105.12 0 115.057zm422.809-156.912v59.654c11.553-5.076 25.114-4.291 36.058 2.381v-62.036c0-9.944-8.086-18.029-18.029-18.029-9.943.001-18.029 8.086-18.029 18.03zm.229 79.836c8.557-8.556 22.484-8.556 31.048 0 8.569 8.563 8.569 22.497 0 31.054l-84.043 84.036a8.537 8.537 0 1 0 12.076 12.07l84.029-84.036c10.5-10.493 13.764-25.533 9.773-38.845.013-.163.013-.334.013-.504V115.057c0-9.937 8.092-18.023 18.009-18.023 9.944 0 18.055 8.086 18.055 18.023v195.946L410.811 412.231a8.567 8.567 0 0 0-2.505 6.005l-.249 74.596c0 10.565-8.603 19.167-19.174 19.167h-50.431c-10.572 0-19.18-8.602-19.18-19.148l.576-157.271zm-265.282-83.31c-36.713-42.79-50.123-78.495-39.879-106.121C127.493 18.565 151.574 1.118 179.2.052A60.018 60.018 0 0 1 181.849 0c26.193 0 51.045 15 66.896 40.546a8.542 8.542 0 0 0 7.249 4.036 8.544 8.544 0 0 0 7.255-4.036C279.636 14.137 305.594-1.001 332.788.052c27.639 1.066 51.713 18.513 61.323 44.445 10.251 27.626-3.167 63.331-39.872 106.121-31.597 36.824-72.856 69.984-97.505 89.793-.249.203-.491.399-.739.595-.242-.196-.491-.393-.733-.595-24.65-19.809-65.909-52.956-97.506-89.793zm-104.637 65.51v-62.036c0-9.944 8.079-18.029 18.023-18.029 9.943 0 18.029 8.086 18.029 18.029v59.661c-11.566-5.083-25.1-4.298-36.052 2.375z" clip-rule="evenodd" fill="#ffffff" opacity="1" data-original="#000000" class=""></path></g></svg>