<svg xmlns="http://www.w3.org/2000/svg" version="1.1" xmlns:xlink="http://www.w3.org/1999/xlink" width="512" height="512" x="0" y="0" viewBox="0 0 512 512" style="enable-background:new 0 0 512 512" xml:space="preserve" class=""><g><path d="M511.191 10.984C509.405 4.693 503.866 0 497 0h-60c-8.291 0-15 6.709-15 15s6.709 15 15 15h35.081l-71.633 80.878C303.871 220.126 161.747 277.87 16.288 265.229 8.305 264.394.775 270.62.058 278.881c-.718 8.247 5.391 15.513 13.652 16.23 14.033 1.216 25.874 1.816 39.864 1.816 140.171 0 275.815-60.396 369.346-166.187L482 64.06V75c0 8.291 6.709 15 15 15s15-6.709 15-15V29.802l-.809-18.818z" fill="#ffffff" opacity="1" data-original="#000000"></path><path d="M497 482h-16V144.76c0-6.299-3.94-11.924-9.858-14.092-5.903-2.124-12.539-.396-16.611 4.424l-9.214 10.942c-15.234 18.076-31.831 35.259-49.351 51.035A14.986 14.986 0 0 0 391 208.216V482h-30V255.019a15.033 15.033 0 0 0-7.939-13.242c-4.878-2.578-10.84-2.314-15.425.791a529.616 529.616 0 0 1-58.345 33.984A14.989 14.989 0 0 0 271 289.97V482h-30V315.546a15.01 15.01 0 0 0-6.357-12.261c-3.97-2.798-9.097-3.472-13.682-1.86a527.779 527.779 0 0 1-58.345 17.08A15.01 15.01 0 0 0 151 333.124V482h-30V343.466a15.02 15.02 0 0 0-5.01-11.191c-3.208-2.842-7.559-4.292-11.689-3.706a523.015 523.015 0 0 1-58.315 3.354c-8.276.015-14.985 6.724-14.985 15V482H15c-8.291 0-15 6.709-15 15s6.709 15 15 15h482c8.291 0 15-6.709 15-15s-6.709-15-15-15z" fill="#ffffff" opacity="1" data-original="#000000"></path></g></svg>