<svg xmlns="http://www.w3.org/2000/svg" version="1.1" xmlns:xlink="http://www.w3.org/1999/xlink" width="512" height="512" x="0" y="0" viewBox="0 0 512 512" style="enable-background:new 0 0 512 512" xml:space="preserve" class=""><g><path d="M482.821 370.535c-14.737-16.688-40.303-18.273-56.989-3.538a256.914 256.914 0 0 1-16.351 13.269l-35.125-47.669c15.843-7.164 26.901-23.108 26.901-41.597 0-25.163-20.472-45.636-45.635-45.636h-44.038V199.055h38.267c6.299 0 12.219 2.406 16.702 6.499a24.707 24.707 0 0 1 5.939 8.219c2.488 5.604 7.984 8.934 13.744 8.934 2.038 0 4.109-.417 6.092-1.298 7.586-3.369 11.005-12.25 7.636-19.836-8.788-19.79-28.458-32.578-50.112-32.578h-176.67l-31.144-112.98c-5.412-19.633-18.145-35.983-35.854-46.038C88.475-.08 67.911-2.637 48.277 2.776c-8.002 2.206-12.701 10.482-10.495 18.483l71.479 259.307c5.265 19.103 17.629 34.86 33.741 44.757l-40.484 54.943a256.896 256.896 0 0 1-16.35-13.269c-8.084-7.14-18.466-10.706-29.228-10.035-10.763.668-20.622 5.489-27.761 13.573-7.139 8.084-10.702 18.464-10.034 29.228.668 10.763 5.489 20.622 13.572 27.76C94.405 481.998 173.701 512 256 512s161.595-30.001 223.283-84.477c8.084-7.139 12.904-16.998 13.573-27.761.667-10.763-2.896-21.143-10.035-29.227zm-201.295-171.48v46.31h-87.292l-12.765-46.31h100.057zM127.652 396.829l44.883-60.912c3.396.466 6.847.718 10.344.718h157.116l44.353 60.194c-79.16 45.703-177.537 45.702-256.696 0z" fill="#ffffff" opacity="1" data-original="#000000" class=""></path></g></svg>