<svg xmlns="http://www.w3.org/2000/svg" version="1.1" xmlns:xlink="http://www.w3.org/1999/xlink" width="512" height="512" x="0" y="0" viewBox="0 0 24 24" style="enable-background:new 0 0 512 512" xml:space="preserve" class=""><g><path d="M10.3 8.3H19v2.6h-8.8V8.3zm-2.8 3.5h8.7v2.6H7.5zm-2.7 3.5h8.8v2.6H4.8zm3.8 6.2H2v-2.7h8.7v2.7zm13.2 0H11.7v-2.7H14c.3 0 .5-.2.5-.5v-3.1h2.3c.3 0 .5-.2.5-.5v-3.1h2.3c.3 0 .5-.2.5-.5V8.3H22v13.2zM6.5 6.9 9.4 4v1.3c0 .2.2.4.5.4s.5-.2.5-.4V2.9c0-.1-.1-.2-.1-.3-.1-.1-.2-.1-.3-.1H7.4c-.2 0-.4.2-.4.4 0 .3.2.5.4.5h1.3L5.9 6.2zM5.8 7.6 5.2 7l-1 1 .6.6zM4.2 9.3l-.7-.7-1 1 .7.6z" fill="#ffffff" opacity="1" data-original="#000000" class=""></path></g></svg>