<svg width="185" height="184" viewBox="0 0 185 184" fill="none" xmlns="http://www.w3.org/2000/svg">
<g clip-path="url(#clip0_3759_8)">
<path d="M7.69629 125.745C7.69629 130.812 11.8516 134.945 16.9463 134.945H33.0977C35.3379 139.869 44.335 148.422 78.9502 150.003C79.0225 150.219 79.0947 150.47 79.167 150.686C73.9639 154.064 70.459 159.491 69.5557 165.6H47.7676C40.9385 165.6 35.4463 171.098 35.4463 177.855C35.4463 181.233 38.1924 184 41.625 184H140.304C143.7 184 146.482 181.269 146.482 177.855C146.482 171.062 140.954 165.6 134.161 165.6H112.337C111.47 159.491 107.965 154.028 102.762 150.722C102.834 150.47 102.942 150.255 102.979 150.003C137.63 148.422 146.591 139.869 148.831 134.945H168.054C173.148 134.945 177.304 130.812 177.304 125.745C177.304 120.678 173.148 116.545 168.054 116.545H164.404C164.766 115.575 164.946 114.533 164.982 113.491V82.8359C170.077 82.8359 174.232 78.7031 174.232 73.6359V52.1813C174.232 42.8375 168.162 34.6078 159.237 31.7328C166.645 24.725 166.934 13.0813 159.888 5.71407C152.842 -1.65312 141.099 -1.97656 133.691 5.03125C126.284 12.0391 125.995 23.6828 133.041 31.05C133.258 31.2656 133.475 31.4813 133.691 31.6969C124.767 34.5359 118.696 42.8016 118.696 52.1453V73.6C118.696 78.6672 122.852 82.8 127.946 82.8V113.455C127.946 114.497 128.163 115.539 128.524 116.509H124.875C119.78 116.509 115.625 120.642 115.625 125.709C115.625 130.777 119.78 134.909 124.875 134.909H140.954C136.69 138.359 125.995 142.744 102.762 143.822C100.955 137.317 94.1982 133.544 87.6582 135.341C83.5391 136.491 80.2871 139.689 79.1309 143.822C55.7168 142.708 45.0215 138.288 40.8301 134.909H60.0889C65.1836 134.909 69.3389 130.777 69.3389 125.709C69.3389 120.642 65.1836 116.509 60.0889 116.509H56.4394C56.8008 115.539 56.9814 114.497 57.0176 113.455V82.8C62.1123 82.8 66.2676 78.6672 66.2676 73.6V52.1453C66.2676 42.8016 60.1973 34.5719 51.2725 31.6969C58.6797 24.6891 58.9687 13.0453 51.9228 5.67813C44.8769 -1.68906 33.2061 -1.97656 25.7988 5.03125C18.3916 12.0391 18.1025 23.6828 25.1484 31.05C25.3652 31.2656 25.582 31.4813 25.7988 31.6969C16.874 34.5359 10.8037 42.8016 10.8037 52.1453V73.6C10.8037 78.6672 14.959 82.8 20.0537 82.8V113.455C20.0537 114.497 20.2705 115.539 20.6318 116.509H16.9463C11.8516 116.545 7.69629 120.642 7.69629 125.745ZM146.446 6.14532C153.275 6.14532 158.768 11.6438 158.768 18.4C158.768 25.1563 153.239 30.6547 146.446 30.6547C139.617 30.6547 134.125 25.1563 134.125 18.4C134.125 11.6438 139.653 6.14532 146.446 6.14532ZM134.125 113.455V80.3922C136.076 78.6672 137.196 76.1875 137.196 73.6V52.1453C137.196 50.4563 135.823 49.0906 134.125 49.0906C132.427 49.0906 131.054 50.4563 131.054 52.1453V73.6C131.054 75.2891 129.681 76.6547 127.982 76.6547C126.284 76.6547 124.911 75.2891 124.911 73.6V52.1453C124.911 43.6641 131.812 36.8359 140.34 36.8H152.661C161.188 36.8 168.054 43.6641 168.09 52.1453V73.6C168.09 75.2891 166.717 76.6547 165.019 76.6547C163.32 76.6547 161.947 75.2891 161.947 73.6V52.1453C161.947 50.4563 160.574 49.0906 158.876 49.0906C157.178 49.0906 155.805 50.4563 155.805 52.1453V73.6C155.805 76.1875 156.925 78.6672 158.876 80.3922V113.455C158.876 115.144 157.503 116.509 155.805 116.509H149.626V73.6C149.626 71.9109 148.253 70.5453 146.555 70.5453C144.856 70.5453 143.483 71.9109 143.483 73.6V116.545H137.305C135.498 116.545 134.125 115.144 134.125 113.455ZM121.804 125.745C121.804 124.056 123.177 122.691 124.875 122.691H168.054C169.752 122.691 171.125 124.056 171.125 125.745C171.125 127.434 169.752 128.8 168.054 128.8H146.952C146.808 128.764 146.663 128.728 146.482 128.692C146.302 128.692 146.121 128.728 145.94 128.8H124.875C123.177 128.8 121.804 127.434 121.804 125.745ZM140.304 177.855H41.625C41.625 174.477 44.3711 171.709 47.8037 171.709H134.125C137.521 171.745 140.304 174.477 140.304 177.855ZM75.8789 165.6C76.6738 161.683 78.9863 158.197 82.3467 155.969C87.1162 160.641 94.7764 160.641 99.5459 155.969C100.377 156.508 101.136 157.155 101.858 157.838C103.99 159.958 105.472 162.653 106.05 165.6H75.8789ZM90.9463 141.055C94.3428 141.055 97.125 143.786 97.125 147.2C97.125 150.578 94.3789 153.345 90.9463 153.345C87.5137 153.345 84.7676 150.614 84.7676 147.2C84.8037 143.822 87.5498 141.055 90.9463 141.055ZM63.1963 125.745C63.1963 127.434 61.8232 128.8 60.125 128.8H16.9463C15.248 128.8 13.875 127.434 13.875 125.745C13.875 124.056 15.248 122.691 16.9463 122.691H60.125C61.8232 122.655 63.1963 124.056 63.1963 125.745ZM38.5537 6.14532C45.3828 6.14532 50.875 11.6438 50.875 18.4C50.875 25.1563 45.3467 30.6547 38.5537 30.6547C31.7607 30.6547 26.1963 25.1922 26.1963 18.4C26.1963 11.6078 31.7246 6.14532 38.5537 6.14532ZM26.1963 113.455V80.3922C28.1475 78.6672 29.2676 76.1875 29.2676 73.6V52.1453C29.2676 50.4563 27.8945 49.0906 26.1963 49.0906C24.498 49.0906 23.125 50.4563 23.125 52.1453V73.6C23.125 75.2891 21.752 76.6547 20.0537 76.6547C18.3555 76.6547 16.9824 75.2891 16.9824 73.6V52.1453C16.9824 43.6641 23.8838 36.8359 32.4111 36.8H44.7324C53.2598 36.8 60.125 43.6641 60.1611 52.1453V73.6C60.1611 75.2891 58.7881 76.6547 57.0898 76.6547C55.3916 76.6547 54.0186 75.2891 54.0186 73.6V52.1453C54.0186 50.4563 52.6455 49.0906 50.9473 49.0906C49.249 49.0906 47.876 50.4563 47.876 52.1453V73.6C47.876 76.1875 48.9961 78.6672 50.9473 80.3922V113.455C50.9473 115.144 49.5742 116.509 47.876 116.509H41.6973V73.6C41.6973 71.9109 40.3242 70.5453 38.626 70.5453C36.9277 70.5453 35.5547 71.9109 35.5547 73.6V116.545H29.3037C27.6055 116.545 26.1963 115.144 26.1963 113.455Z" fill="black"/>
</g>
<defs>
<clipPath id="clip0_3759_8">
<rect width="185" height="184" fill="white"/>
</clipPath>
</defs>
</svg>
