<svg width="185" height="184" viewBox="0 0 185 184" fill="none" xmlns="http://www.w3.org/2000/svg">
<path d="M11.5625 28.75V66.4844C11.5625 76.0078 19.3311 83.7344 28.9062 83.7344H66.8457C76.4209 83.7344 84.1895 76.0078 84.1895 66.4844V28.75C84.1895 19.2266 76.4209 11.5 66.8457 11.5H28.9062C19.3311 11.5 11.5625 19.2266 11.5625 28.75ZM23.125 28.75C23.125 25.5875 25.7266 23 28.9062 23H66.8457C70.0254 23 72.627 25.5875 72.627 28.75V66.4844C72.627 69.6469 70.0254 72.2344 66.8457 72.2344H28.9062C25.7266 72.2344 23.125 69.6469 23.125 66.4844V28.75ZM11.5625 155.25C11.5625 164.773 19.3311 172.5 28.9062 172.5H66.8457C76.4209 172.5 84.1895 164.773 84.1895 155.25V117.516C84.1895 107.992 76.4209 100.266 66.8457 100.266H28.9062C19.3311 100.266 11.5625 107.992 11.5625 117.516V155.25ZM23.125 117.516C23.125 114.353 25.7266 111.766 28.9062 111.766H66.8457C70.0254 111.766 72.627 114.353 72.627 117.516V155.25C72.627 158.413 70.0254 161 66.8457 161H28.9062C25.7266 161 23.125 158.413 23.125 155.25V117.516ZM156.094 100.266H118.154C108.579 100.266 100.811 107.992 100.811 117.516V155.25C100.811 164.773 108.579 172.5 118.154 172.5H156.094C165.669 172.5 173.438 164.773 173.438 155.25V117.516C173.438 107.992 165.669 100.266 156.094 100.266ZM161.875 155.25C161.875 158.413 159.273 161 156.094 161H118.154C114.975 161 112.373 158.413 112.373 155.25V117.516C112.373 114.353 114.975 111.766 118.154 111.766H156.094C159.273 111.766 161.875 114.353 161.875 117.516V155.25ZM167.656 41.8672H142.905V17.25C142.905 14.0875 140.304 11.5 137.124 11.5C133.944 11.5 131.343 14.0875 131.343 17.25V41.8672H106.592C103.412 41.8672 100.811 44.4547 100.811 47.6172C100.811 50.7797 103.412 53.3672 106.592 53.3672H131.343V77.9844C131.343 81.1469 133.944 83.7344 137.124 83.7344C140.304 83.7344 142.905 81.1469 142.905 77.9844V53.3672H167.656C170.836 53.3672 173.438 50.7797 173.438 47.6172C173.438 44.4547 170.836 41.8672 167.656 41.8672Z" fill="black"/>
</svg>
