<svg width="185" height="184" viewBox="0 0 185 184" fill="none" xmlns="http://www.w3.org/2000/svg">
<g clip-path="url(#clip0_3759_4)">
<path d="M15.4287 18.4H55.5V24.5453H15.4287V18.4ZM15.4287 30.6547H55.5V36.8H15.4287V30.6547ZM15.4287 42.9453H43.1787V49.0906H15.4287V42.9453ZM15.4287 55.2H43.1787V61.3453H15.4287V55.2ZM0 177.855H185V184H0V177.855ZM178.496 26.2344L166.175 1.68905C165.416 0.179677 163.573 -0.43126 162.056 0.323427L137.377 12.5781C135.859 13.3687 135.281 15.2016 136.04 16.7109C136.799 18.1844 138.605 18.7953 140.123 18.0766L157.973 9.19999L153.095 23.0359C131.704 83.7344 76.4932 126.32 12.0684 131.855L12.6104 138C79.4561 132.25 136.727 88.0469 158.948 25.0844L163.935 10.925L173.004 28.9656C173.799 30.475 175.642 31.05 177.159 30.2953C178.641 29.5406 179.219 27.7437 178.496 26.2344ZM37 147.2H15.4287C13.7305 147.2 12.3574 148.566 12.3574 150.255V168.655C12.3574 170.344 13.7305 171.709 15.4287 171.709H37C38.6982 171.709 40.0713 170.344 40.0713 168.655V150.255C40.0713 148.566 38.6982 147.2 37 147.2ZM33.9287 165.6H18.5V153.345H33.9287V165.6ZM70.9287 138H49.3574C47.6592 138 46.2861 139.366 46.2861 141.055V168.655C46.2861 170.344 47.6592 171.709 49.3574 171.709H70.9287C72.627 171.709 74 170.344 74 168.655V141.055C74 139.366 72.627 138 70.9287 138ZM67.8213 165.6H52.3926V144.145H67.8213V165.6ZM104.821 122.655H83.25C81.5518 122.655 80.1787 124.02 80.1787 125.709V168.655C80.1787 170.344 81.5518 171.709 83.25 171.709H104.821C106.52 171.709 107.893 170.344 107.893 168.655V125.745C107.929 124.056 106.52 122.655 104.821 122.655ZM101.75 165.6H86.3213V128.8H101.75V165.6Z" fill="black"/>
<path d="M138.75 101.2H117.179C115.48 101.2 114.107 102.566 114.107 104.255V168.655C114.107 170.344 115.48 171.709 117.179 171.709H138.75C140.448 171.709 141.821 170.344 141.821 168.655V104.255C141.821 102.566 140.448 101.2 138.75 101.2ZM135.679 165.6H120.25V107.345H135.679V165.6ZM172.679 58.2547H151.107C149.409 58.2547 148.036 59.6203 148.036 61.3094V168.655C148.036 170.344 149.409 171.709 151.107 171.709H172.679C174.377 171.709 175.75 170.344 175.75 168.655V61.3453C175.75 59.6563 174.377 58.2547 172.679 58.2547ZM169.571 165.6H154.143V64.4H169.571V165.6Z" fill="black"/>
</g>
<defs>
<clipPath id="clip0_3759_4">
<rect width="185" height="184" fill="white"/>
</clipPath>
</defs>
</svg>
