<svg width="53" height="43" viewBox="0 0 53 43" fill="none" xmlns="http://www.w3.org/2000/svg">
<path d="M41.3595 19.1039C36.7207 19.1039 33.2524 20.1588 30.9546 22.2685C28.6135 24.3783 27.4429 27.3061 27.4429 31.052C27.4429 34.4534 28.6569 37.2951 31.0847 39.577C33.4691 41.859 36.4822 43 40.1239 43C43.5055 43 46.4969 41.7083 49.0982 39.125C51.6994 36.5416 53 32.6666 53 27.4998C53 22.5484 52.263 18.1782 50.789 14.3893C49.2716 10.6004 47.0172 7.50035 44.0258 5.08922C40.991 2.67808 37.2192 1.04196 32.7104 0.180837C32.3636 0.0947262 32.0818 0.116253 31.865 0.245416C31.6049 0.331532 31.4748 0.48223 31.4748 0.69751C31.4748 0.955842 31.5616 1.17112 31.735 1.34335C31.865 1.47252 32.1035 1.58016 32.4503 1.66627C36.3955 2.52739 39.4953 3.86212 41.7497 5.67048C44.0041 7.47882 45.6082 9.41634 46.562 11.483C47.4724 13.5497 47.9276 15.3581 47.9276 16.9081C47.9276 17.597 47.7325 18.1352 47.3423 18.5227C46.9521 18.9102 46.2802 19.1039 45.3264 19.1039H41.3595ZM13.9166 18.9748C9.27771 18.9748 5.80941 20.0296 3.51166 22.1394C1.17055 24.2491 0 27.1769 0 30.9228C0 34.3242 1.21391 37.1659 3.64172 39.4479C6.02618 41.7298 9.03926 42.8708 12.681 42.8708C16.0626 42.8708 19.054 41.5791 21.6552 38.9958C24.2564 36.4124 25.5571 32.5374 25.5571 27.3707C25.5571 22.4192 24.82 18.0491 23.346 14.2601C21.8286 10.4712 19.5742 7.37118 16.5828 4.96005C13.5481 2.54892 9.77628 0.912789 5.26749 0.0516708C4.92066 -0.0344452 4.63886 -0.0129187 4.42209 0.11625C4.16196 0.202361 4.0319 0.353059 4.0319 0.568343C4.0319 0.826676 4.11861 1.04196 4.29203 1.21418C4.42209 1.34335 4.66053 1.45099 5.00736 1.5371C8.95256 2.39822 12.0524 3.73295 14.3068 5.5413C16.5611 7.34965 18.1652 9.28717 19.119 11.3539C20.0295 13.4205 20.4847 15.2289 20.4847 16.7789C20.4847 17.4678 20.2896 18.006 19.8994 18.3935C19.5092 18.781 18.8372 18.9748 17.8834 18.9748H13.9166Z" fill="#ECE5DC"/>
</svg>
