<svg width="940" height="1342" viewBox="0 0 940 1342" fill="none" xmlns="http://www.w3.org/2000/svg">
<g opacity="0.25">
<mask id="mask0_45_217" style="mask-type:luminance" maskUnits="userSpaceOnUse" x="0" y="0" width="940" height="1342">
<path d="M469.85 1341.29C729.065 1341.29 939.2 1041.09 939.2 670.786C939.2 300.479 729.065 0.285767 469.85 0.285767C210.635 0.285767 0.5 300.479 0.5 670.786C0.5 1041.09 210.635 1341.29 469.85 1341.29Z" fill="white"/>
</mask>
<g mask="url(#mask0_45_217)">
<path d="M1373.37 1479.18H-433.67V-137.609H1373.37V1479.18ZM-431.339 1475.85H1371.04V-134.279H-431.339V1475.85Z" fill="url(#paint0_radial_45_217)"/>
<path d="M1372.23 1314.52H-432.482V1317.85H1372.23V1314.52Z" fill="url(#paint1_radial_45_217)"/>
<path d="M1372.23 1233.86H-432.482V1237.19H1372.23V1233.86Z" fill="url(#paint2_radial_45_217)"/>
<path d="M1372.23 1153.13H-432.482V1156.46H1372.23V1153.13Z" fill="url(#paint3_radial_45_217)"/>
<path d="M1372.23 1072.47H-432.482V1075.8H1372.23V1072.47Z" fill="url(#paint4_radial_45_217)"/>
<path d="M1372.23 991.807H-432.482V995.135H1372.23V991.807Z" fill="url(#paint5_radial_45_217)"/>
<path d="M1372.23 911.143H-432.482V914.471H1372.23V911.143Z" fill="url(#paint6_radial_45_217)"/>
<path d="M1372.23 830.479H-432.482V833.808H1372.23V830.479Z" fill="url(#paint7_radial_45_217)"/>
<path d="M1372.23 749.816H-432.482V753.144H1372.23V749.816Z" fill="url(#paint8_radial_45_217)"/>
<path d="M1372.23 669.152H-432.482V672.481H1372.23V669.152Z" fill="url(#paint9_radial_45_217)"/>
<path d="M1372.23 588.426H-432.482V591.755H1372.23V588.426Z" fill="url(#paint10_radial_45_217)"/>
<path d="M1372.23 507.762H-432.482V511.091H1372.23V507.762Z" fill="url(#paint11_radial_45_217)"/>
<path d="M1372.23 427.099H-432.482V430.427H1372.23V427.099Z" fill="url(#paint12_radial_45_217)"/>
<path d="M1372.23 346.435H-432.482V349.764H1372.23V346.435Z" fill="url(#paint13_radial_45_217)"/>
<path d="M1372.23 265.772H-432.482V269.1H1372.23V265.772Z" fill="url(#paint14_radial_45_217)"/>
<path d="M1372.23 185.108H-432.482V188.437H1372.23V185.108Z" fill="url(#paint15_radial_45_217)"/>
<path d="M1372.23 104.382H-432.482V107.71H1372.23V104.382Z" fill="url(#paint16_radial_45_217)"/>
<path d="M1372.23 23.7184H-432.482V27.0469H1372.23V23.7184Z" fill="url(#paint17_radial_45_217)"/>
<path d="M935.858 -135.912H933.527V1477.55H935.858V-135.912Z" fill="url(#paint18_radial_45_217)"/>
<path d="M881.197 -135.912H878.866V1477.55H881.197V-135.912Z" fill="url(#paint19_radial_45_217)"/>
<path d="M826.491 -135.912H824.161V1477.55H826.491V-135.912Z" fill="url(#paint20_radial_45_217)"/>
<path d="M771.786 -135.912H769.455V1477.55H771.786V-135.912Z" fill="url(#paint21_radial_45_217)"/>
<path d="M717.124 -135.912H714.793V1477.55H717.124V-135.912Z" fill="url(#paint22_radial_45_217)"/>
<path d="M662.419 -135.912H660.088V1477.55H662.419V-135.912Z" fill="url(#paint23_radial_45_217)"/>
<path d="M607.713 -135.912H605.382V1477.55H607.713V-135.912Z" fill="url(#paint24_radial_45_217)"/>
<path d="M553.052 -135.912H550.721V1477.55H553.052V-135.912Z" fill="url(#paint25_radial_45_217)"/>
<path d="M498.346 -135.912H496.016V1477.55H498.346V-135.912Z" fill="url(#paint26_radial_45_217)"/>
<path d="M443.685 -135.912H441.354V1477.55H443.685V-135.912Z" fill="url(#paint27_radial_45_217)"/>
<path d="M388.979 -135.912H386.648V1477.55H388.979V-135.912Z" fill="url(#paint28_radial_45_217)"/>
<path d="M334.274 -135.912H331.943V1477.55H334.274V-135.912Z" fill="url(#paint29_radial_45_217)"/>
<path d="M279.612 -135.912H277.282V1477.55H279.612V-135.912Z" fill="url(#paint30_radial_45_217)"/>
<path d="M224.907 -135.912H222.576V1477.55H224.907V-135.912Z" fill="url(#paint31_radial_45_217)"/>
<path d="M170.245 -135.912H167.914V1477.55H170.245V-135.912Z" fill="url(#paint32_radial_45_217)"/>
<path d="M115.54 -135.912H113.209V1477.55H115.54V-135.912Z" fill="url(#paint33_radial_45_217)"/>
<path d="M60.8344 -135.912H58.5037V1477.55H60.8344V-135.912Z" fill="url(#paint34_radial_45_217)"/>
<path d="M6.17286 -135.912H3.84216V1477.55H6.17286V-135.912Z" fill="url(#paint35_radial_45_217)"/>
</g>
</g>
<defs>
<radialGradient id="paint0_radial_45_217" cx="0" cy="0" r="1" gradientUnits="userSpaceOnUse" gradientTransform="translate(503.194 568.96) scale(439.563 627.948)">
<stop stop-color="#00B30F"/>
<stop offset="1" stop-color="#00B30F" stop-opacity="0"/>
</radialGradient>
<radialGradient id="paint1_radial_45_217" cx="0" cy="0" r="1" gradientUnits="userSpaceOnUse" gradientTransform="translate(503.194 569.202) scale(439.563 627.744)">
<stop stop-color="#00B30F"/>
<stop offset="1" stop-color="#00B30F" stop-opacity="0"/>
</radialGradient>
<radialGradient id="paint2_radial_45_217" cx="0" cy="0" r="1" gradientUnits="userSpaceOnUse" gradientTransform="translate(503.194 569.206) scale(439.563 627.715)">
<stop stop-color="#00B30F"/>
<stop offset="1" stop-color="#00B30F" stop-opacity="0"/>
</radialGradient>
<radialGradient id="paint3_radial_45_217" cx="0" cy="0" r="1" gradientUnits="userSpaceOnUse" gradientTransform="translate(503.194 569.176) scale(439.563 627.715)">
<stop stop-color="#00B30F"/>
<stop offset="1" stop-color="#00B30F" stop-opacity="0"/>
</radialGradient>
<radialGradient id="paint4_radial_45_217" cx="0" cy="0" r="1" gradientUnits="userSpaceOnUse" gradientTransform="translate(503.194 569.123) scale(439.563 627.744)">
<stop stop-color="#00B30F"/>
<stop offset="1" stop-color="#00B30F" stop-opacity="0"/>
</radialGradient>
<radialGradient id="paint5_radial_45_217" cx="0" cy="0" r="1" gradientUnits="userSpaceOnUse" gradientTransform="translate(503.194 569.107) scale(439.563 627.73)">
<stop stop-color="#00B30F"/>
<stop offset="1" stop-color="#00B30F" stop-opacity="0"/>
</radialGradient>
<radialGradient id="paint6_radial_45_217" cx="0" cy="0" r="1" gradientUnits="userSpaceOnUse" gradientTransform="translate(503.194 569.079) scale(439.563 627.73)">
<stop stop-color="#00B30F"/>
<stop offset="1" stop-color="#00B30F" stop-opacity="0"/>
</radialGradient>
<radialGradient id="paint7_radial_45_217" cx="0" cy="0" r="1" gradientUnits="userSpaceOnUse" gradientTransform="translate(503.194 569.045) scale(439.563 627.744)">
<stop stop-color="#00B30F"/>
<stop offset="1" stop-color="#00B30F" stop-opacity="0"/>
</radialGradient>
<radialGradient id="paint8_radial_45_217" cx="0" cy="0" r="1" gradientUnits="userSpaceOnUse" gradientTransform="translate(503.194 569.019) scale(439.563 627.744)">
<stop stop-color="#00B30F"/>
<stop offset="1" stop-color="#00B30F" stop-opacity="0"/>
</radialGradient>
<radialGradient id="paint9_radial_45_217" cx="0" cy="0" r="1" gradientUnits="userSpaceOnUse" gradientTransform="translate(503.194 568.992) scale(439.563 627.744)">
<stop stop-color="#00B30F"/>
<stop offset="1" stop-color="#00B30F" stop-opacity="0"/>
</radialGradient>
<radialGradient id="paint10_radial_45_217" cx="0" cy="0" r="1" gradientUnits="userSpaceOnUse" gradientTransform="translate(503.194 568.966) scale(439.563 627.744)">
<stop stop-color="#00B30F"/>
<stop offset="1" stop-color="#00B30F" stop-opacity="0"/>
</radialGradient>
<radialGradient id="paint11_radial_45_217" cx="0" cy="0" r="1" gradientUnits="userSpaceOnUse" gradientTransform="translate(503.194 568.939) scale(439.563 627.73)">
<stop stop-color="#00B30F"/>
<stop offset="1" stop-color="#00B30F" stop-opacity="0"/>
</radialGradient>
<radialGradient id="paint12_radial_45_217" cx="0" cy="0" r="1" gradientUnits="userSpaceOnUse" gradientTransform="translate(503.194 568.912) scale(439.563 627.737)">
<stop stop-color="#00B30F"/>
<stop offset="1" stop-color="#00B30F" stop-opacity="0"/>
</radialGradient>
<radialGradient id="paint13_radial_45_217" cx="0" cy="0" r="1" gradientUnits="userSpaceOnUse" gradientTransform="translate(503.194 568.885) scale(439.563 627.737)">
<stop stop-color="#00B30F"/>
<stop offset="1" stop-color="#00B30F" stop-opacity="0"/>
</radialGradient>
<radialGradient id="paint14_radial_45_217" cx="0" cy="0" r="1" gradientUnits="userSpaceOnUse" gradientTransform="translate(503.194 568.862) scale(439.563 627.744)">
<stop stop-color="#00B30F"/>
<stop offset="1" stop-color="#00B30F" stop-opacity="0"/>
</radialGradient>
<radialGradient id="paint15_radial_45_217" cx="0" cy="0" r="1" gradientUnits="userSpaceOnUse" gradientTransform="translate(503.194 568.831) scale(439.563 627.737)">
<stop stop-color="#00B30F"/>
<stop offset="1" stop-color="#00B30F" stop-opacity="0"/>
</radialGradient>
<radialGradient id="paint16_radial_45_217" cx="0" cy="0" r="1" gradientUnits="userSpaceOnUse" gradientTransform="translate(503.194 568.804) scale(439.563 627.737)">
<stop stop-color="#00B30F"/>
<stop offset="1" stop-color="#00B30F" stop-opacity="0"/>
</radialGradient>
<radialGradient id="paint17_radial_45_217" cx="0" cy="0" r="1" gradientUnits="userSpaceOnUse" gradientTransform="translate(503.194 568.78) scale(439.563 627.741)">
<stop stop-color="#00B30F"/>
<stop offset="1" stop-color="#00B30F" stop-opacity="0"/>
</radialGradient>
<radialGradient id="paint18_radial_45_217" cx="0" cy="0" r="1" gradientUnits="userSpaceOnUse" gradientTransform="translate(503.19 568.96) scale(439.567 627.948)">
<stop stop-color="#00B30F"/>
<stop offset="1" stop-color="#00B30F" stop-opacity="0"/>
</radialGradient>
<radialGradient id="paint19_radial_45_217" cx="0" cy="0" r="1" gradientUnits="userSpaceOnUse" gradientTransform="translate(503.191 568.96) scale(439.567 627.948)">
<stop stop-color="#00B30F"/>
<stop offset="1" stop-color="#00B30F" stop-opacity="0"/>
</radialGradient>
<radialGradient id="paint20_radial_45_217" cx="0" cy="0" r="1" gradientUnits="userSpaceOnUse" gradientTransform="translate(503.191 568.96) scale(439.567 627.948)">
<stop stop-color="#00B30F"/>
<stop offset="1" stop-color="#00B30F" stop-opacity="0"/>
</radialGradient>
<radialGradient id="paint21_radial_45_217" cx="0" cy="0" r="1" gradientUnits="userSpaceOnUse" gradientTransform="translate(503.192 568.96) scale(439.567 627.948)">
<stop stop-color="#00B30F"/>
<stop offset="1" stop-color="#00B30F" stop-opacity="0"/>
</radialGradient>
<radialGradient id="paint22_radial_45_217" cx="0" cy="0" r="1" gradientUnits="userSpaceOnUse" gradientTransform="translate(503.202 568.96) scale(439.547 627.948)">
<stop stop-color="#00B30F"/>
<stop offset="1" stop-color="#00B30F" stop-opacity="0"/>
</radialGradient>
<radialGradient id="paint23_radial_45_217" cx="0" cy="0" r="1" gradientUnits="userSpaceOnUse" gradientTransform="translate(503.193 568.96) scale(439.567 627.948)">
<stop stop-color="#00B30F"/>
<stop offset="1" stop-color="#00B30F" stop-opacity="0"/>
</radialGradient>
<radialGradient id="paint24_radial_45_217" cx="0" cy="0" r="1" gradientUnits="userSpaceOnUse" gradientTransform="translate(503.193 568.96) scale(439.567 627.948)">
<stop stop-color="#00B30F"/>
<stop offset="1" stop-color="#00B30F" stop-opacity="0"/>
</radialGradient>
<radialGradient id="paint25_radial_45_217" cx="0" cy="0" r="1" gradientUnits="userSpaceOnUse" gradientTransform="translate(503.194 568.96) scale(439.567 627.948)">
<stop stop-color="#00B30F"/>
<stop offset="1" stop-color="#00B30F" stop-opacity="0"/>
</radialGradient>
<radialGradient id="paint26_radial_45_217" cx="0" cy="0" r="1" gradientUnits="userSpaceOnUse" gradientTransform="translate(503.194 568.96) scale(439.547 627.948)">
<stop stop-color="#00B30F"/>
<stop offset="1" stop-color="#00B30F" stop-opacity="0"/>
</radialGradient>
<radialGradient id="paint27_radial_45_217" cx="0" cy="0" r="1" gradientUnits="userSpaceOnUse" gradientTransform="translate(503.193 568.96) scale(439.557 627.948)">
<stop stop-color="#00B30F"/>
<stop offset="1" stop-color="#00B30F" stop-opacity="0"/>
</radialGradient>
<radialGradient id="paint28_radial_45_217" cx="0" cy="0" r="1" gradientUnits="userSpaceOnUse" gradientTransform="translate(503.193 568.96) scale(439.557 627.948)">
<stop stop-color="#00B30F"/>
<stop offset="1" stop-color="#00B30F" stop-opacity="0"/>
</radialGradient>
<radialGradient id="paint29_radial_45_217" cx="0" cy="0" r="1" gradientUnits="userSpaceOnUse" gradientTransform="translate(503.196 568.96) scale(439.567 627.948)">
<stop stop-color="#00B30F"/>
<stop offset="1" stop-color="#00B30F" stop-opacity="0"/>
</radialGradient>
<radialGradient id="paint30_radial_45_217" cx="0" cy="0" r="1" gradientUnits="userSpaceOnUse" gradientTransform="translate(503.196 568.96) scale(439.567 627.948)">
<stop stop-color="#00B30F"/>
<stop offset="1" stop-color="#00B30F" stop-opacity="0"/>
</radialGradient>
<radialGradient id="paint31_radial_45_217" cx="0" cy="0" r="1" gradientUnits="userSpaceOnUse" gradientTransform="translate(503.19 568.96) scale(439.557 627.948)">
<stop stop-color="#00B30F"/>
<stop offset="1" stop-color="#00B30F" stop-opacity="0"/>
</radialGradient>
<radialGradient id="paint32_radial_45_217" cx="0" cy="0" r="1" gradientUnits="userSpaceOnUse" gradientTransform="translate(503.197 568.96) scale(439.567 627.948)">
<stop stop-color="#00B30F"/>
<stop offset="1" stop-color="#00B30F" stop-opacity="0"/>
</radialGradient>
<radialGradient id="paint33_radial_45_217" cx="0" cy="0" r="1" gradientUnits="userSpaceOnUse" gradientTransform="translate(503.198 568.96) scale(439.567 627.948)">
<stop stop-color="#00B30F"/>
<stop offset="1" stop-color="#00B30F" stop-opacity="0"/>
</radialGradient>
<radialGradient id="paint34_radial_45_217" cx="0" cy="0" r="1" gradientUnits="userSpaceOnUse" gradientTransform="translate(503.198 568.96) scale(439.567 627.948)">
<stop stop-color="#00B30F"/>
<stop offset="1" stop-color="#00B30F" stop-opacity="0"/>
</radialGradient>
<radialGradient id="paint35_radial_45_217" cx="0" cy="0" r="1" gradientUnits="userSpaceOnUse" gradientTransform="translate(503.193 568.96) scale(439.562 627.948)">
<stop stop-color="#00B30F"/>
<stop offset="1" stop-color="#00B30F" stop-opacity="0"/>
</radialGradient>
</defs>
</svg>
