<svg width="567" height="787" viewBox="0 0 567 787" fill="none" xmlns="http://www.w3.org/2000/svg">
<g opacity="0.4">
<mask id="mask0_112_472" style="mask-type:luminance" maskUnits="userSpaceOnUse" x="-135" y="0" width="702" height="787">
<path d="M216 787C409.852 787 567 610.981 567 393.851C567 176.72 409.852 0.701172 216 0.701172C22.1481 0.701172 -135 176.72 -135 393.851C-135 610.981 22.1481 787 216 787Z" fill="white"/>
</mask>
<g mask="url(#mask0_112_472)">
<path d="M891.691 867.855H-459.691V-80.1538H891.691V867.855ZM-457.948 865.902H889.948V-78.2015H-457.948V865.902Z" fill="url(#paint0_radial_112_472)"/>
<path d="M890.835 771.308H-458.803V773.259H890.835V771.308Z" fill="url(#paint1_radial_112_472)"/>
<path d="M890.835 724.01H-458.803V725.962H890.835V724.01Z" fill="url(#paint2_radial_112_472)"/>
<path d="M890.835 676.676H-458.803V678.628H890.835V676.676Z" fill="url(#paint3_radial_112_472)"/>
<path d="M890.835 629.379H-458.803V631.331H890.835V629.379Z" fill="url(#paint4_radial_112_472)"/>
<path d="M890.835 582.082H-458.803V584.034H890.835V582.082Z" fill="url(#paint5_radial_112_472)"/>
<path d="M890.835 534.784H-458.803V536.736H890.835V534.784Z" fill="url(#paint6_radial_112_472)"/>
<path d="M890.835 487.487H-458.803V489.438H890.835V487.487Z" fill="url(#paint7_radial_112_472)"/>
<path d="M890.835 440.19H-458.803V442.142H890.835V440.19Z" fill="url(#paint8_radial_112_472)"/>
<path d="M890.835 392.893H-458.803V394.844H890.835V392.893Z" fill="url(#paint9_radial_112_472)"/>
<path d="M890.835 345.559H-458.803V347.51H890.835V345.559Z" fill="url(#paint10_radial_112_472)"/>
<path d="M890.835 298.261H-458.803V300.213H890.835V298.261Z" fill="url(#paint11_radial_112_472)"/>
<path d="M890.835 250.964H-458.803V252.916H890.835V250.964Z" fill="url(#paint12_radial_112_472)"/>
<path d="M890.835 203.667H-458.803V205.619H890.835V203.667Z" fill="url(#paint13_radial_112_472)"/>
<path d="M890.835 156.37H-458.803V158.321H890.835V156.37Z" fill="url(#paint14_radial_112_472)"/>
<path d="M890.835 109.072H-458.803V111.024H890.835V109.072Z" fill="url(#paint15_radial_112_472)"/>
<path d="M890.835 61.7383H-458.803V63.6899H890.835V61.7383Z" fill="url(#paint16_radial_112_472)"/>
<path d="M890.835 14.4409H-458.803V16.3926H890.835V14.4409Z" fill="url(#paint17_radial_112_472)"/>
<path d="M564.501 -79.1592H562.758V866.897H564.501V-79.1592Z" fill="url(#paint18_radial_112_472)"/>
<path d="M523.622 -79.1592H521.879V866.897H523.622V-79.1592Z" fill="url(#paint19_radial_112_472)"/>
<path d="M482.711 -79.1592H480.968V866.897H482.711V-79.1592Z" fill="url(#paint20_radial_112_472)"/>
<path d="M441.8 -79.1592H440.057V866.897H441.8V-79.1592Z" fill="url(#paint21_radial_112_472)"/>
<path d="M400.922 -79.1592H399.179V866.897H400.922V-79.1592Z" fill="url(#paint22_radial_112_472)"/>
<path d="M360.011 -79.1592H358.268V866.897H360.011V-79.1592Z" fill="url(#paint23_radial_112_472)"/>
<path d="M319.1 -79.1592H317.357V866.897H319.1V-79.1592Z" fill="url(#paint24_radial_112_472)"/>
<path d="M278.222 -79.1592H276.479V866.897H278.222V-79.1592Z" fill="url(#paint25_radial_112_472)"/>
<path d="M237.311 -79.1592H235.568V866.897H237.311V-79.1592Z" fill="url(#paint26_radial_112_472)"/>
<path d="M196.432 -79.1592H194.689V866.897H196.432V-79.1592Z" fill="url(#paint27_radial_112_472)"/>
<path d="M155.521 -79.1592H153.778V866.897H155.521V-79.1592Z" fill="url(#paint28_radial_112_472)"/>
<path d="M114.61 -79.1592H112.867V866.897H114.61V-79.1592Z" fill="url(#paint29_radial_112_472)"/>
<path d="M73.732 -79.1592H71.989V866.897H73.732V-79.1592Z" fill="url(#paint30_radial_112_472)"/>
<path d="M32.8209 -79.1592H31.0779V866.897H32.8209V-79.1592Z" fill="url(#paint31_radial_112_472)"/>
</g>
</g>
<defs>
<radialGradient id="paint0_radial_112_472" cx="0" cy="0" r="1" gradientUnits="userSpaceOnUse" gradientTransform="translate(240.936 334.145) scale(328.724 368.199)">
<stop stop-color="#00B30F"/>
<stop offset="1" stop-color="#00B30F" stop-opacity="0"/>
</radialGradient>
<radialGradient id="paint1_radial_112_472" cx="0" cy="0" r="1" gradientUnits="userSpaceOnUse" gradientTransform="translate(240.936 334.286) scale(328.724 368.079)">
<stop stop-color="#00B30F"/>
<stop offset="1" stop-color="#00B30F" stop-opacity="0"/>
</radialGradient>
<radialGradient id="paint2_radial_112_472" cx="0" cy="0" r="1" gradientUnits="userSpaceOnUse" gradientTransform="translate(240.936 334.289) scale(328.724 368.062)">
<stop stop-color="#00B30F"/>
<stop offset="1" stop-color="#00B30F" stop-opacity="0"/>
</radialGradient>
<radialGradient id="paint3_radial_112_472" cx="0" cy="0" r="1" gradientUnits="userSpaceOnUse" gradientTransform="translate(240.936 334.271) scale(328.724 368.062)">
<stop stop-color="#00B30F"/>
<stop offset="1" stop-color="#00B30F" stop-opacity="0"/>
</radialGradient>
<radialGradient id="paint4_radial_112_472" cx="0" cy="0" r="1" gradientUnits="userSpaceOnUse" gradientTransform="translate(240.936 334.24) scale(328.724 368.079)">
<stop stop-color="#00B30F"/>
<stop offset="1" stop-color="#00B30F" stop-opacity="0"/>
</radialGradient>
<radialGradient id="paint5_radial_112_472" cx="0" cy="0" r="1" gradientUnits="userSpaceOnUse" gradientTransform="translate(240.936 334.231) scale(328.724 368.071)">
<stop stop-color="#00B30F"/>
<stop offset="1" stop-color="#00B30F" stop-opacity="0"/>
</radialGradient>
<radialGradient id="paint6_radial_112_472" cx="0" cy="0" r="1" gradientUnits="userSpaceOnUse" gradientTransform="translate(240.936 334.214) scale(328.724 368.071)">
<stop stop-color="#00B30F"/>
<stop offset="1" stop-color="#00B30F" stop-opacity="0"/>
</radialGradient>
<radialGradient id="paint7_radial_112_472" cx="0" cy="0" r="1" gradientUnits="userSpaceOnUse" gradientTransform="translate(240.936 334.194) scale(328.724 368.079)">
<stop stop-color="#00B30F"/>
<stop offset="1" stop-color="#00B30F" stop-opacity="0"/>
</radialGradient>
<radialGradient id="paint8_radial_112_472" cx="0" cy="0" r="1" gradientUnits="userSpaceOnUse" gradientTransform="translate(240.936 334.179) scale(328.724 368.079)">
<stop stop-color="#00B30F"/>
<stop offset="1" stop-color="#00B30F" stop-opacity="0"/>
</radialGradient>
<radialGradient id="paint9_radial_112_472" cx="0" cy="0" r="1" gradientUnits="userSpaceOnUse" gradientTransform="translate(240.936 334.164) scale(328.724 368.079)">
<stop stop-color="#00B30F"/>
<stop offset="1" stop-color="#00B30F" stop-opacity="0"/>
</radialGradient>
<radialGradient id="paint10_radial_112_472" cx="0" cy="0" r="1" gradientUnits="userSpaceOnUse" gradientTransform="translate(240.936 334.148) scale(328.724 368.079)">
<stop stop-color="#00B30F"/>
<stop offset="1" stop-color="#00B30F" stop-opacity="0"/>
</radialGradient>
<radialGradient id="paint11_radial_112_472" cx="0" cy="0" r="1" gradientUnits="userSpaceOnUse" gradientTransform="translate(240.936 334.132) scale(328.724 368.071)">
<stop stop-color="#00B30F"/>
<stop offset="1" stop-color="#00B30F" stop-opacity="0"/>
</radialGradient>
<radialGradient id="paint12_radial_112_472" cx="0" cy="0" r="1" gradientUnits="userSpaceOnUse" gradientTransform="translate(240.936 334.117) scale(328.724 368.075)">
<stop stop-color="#00B30F"/>
<stop offset="1" stop-color="#00B30F" stop-opacity="0"/>
</radialGradient>
<radialGradient id="paint13_radial_112_472" cx="0" cy="0" r="1" gradientUnits="userSpaceOnUse" gradientTransform="translate(240.936 334.101) scale(328.724 368.075)">
<stop stop-color="#00B30F"/>
<stop offset="1" stop-color="#00B30F" stop-opacity="0"/>
</radialGradient>
<radialGradient id="paint14_radial_112_472" cx="0" cy="0" r="1" gradientUnits="userSpaceOnUse" gradientTransform="translate(240.936 334.087) scale(328.724 368.079)">
<stop stop-color="#00B30F"/>
<stop offset="1" stop-color="#00B30F" stop-opacity="0"/>
</radialGradient>
<radialGradient id="paint15_radial_112_472" cx="0" cy="0" r="1" gradientUnits="userSpaceOnUse" gradientTransform="translate(240.936 334.069) scale(328.724 368.075)">
<stop stop-color="#00B30F"/>
<stop offset="1" stop-color="#00B30F" stop-opacity="0"/>
</radialGradient>
<radialGradient id="paint16_radial_112_472" cx="0" cy="0" r="1" gradientUnits="userSpaceOnUse" gradientTransform="translate(240.936 334.053) scale(328.724 368.075)">
<stop stop-color="#00B30F"/>
<stop offset="1" stop-color="#00B30F" stop-opacity="0"/>
</radialGradient>
<radialGradient id="paint17_radial_112_472" cx="0" cy="0" r="1" gradientUnits="userSpaceOnUse" gradientTransform="translate(240.936 334.039) scale(328.724 368.077)">
<stop stop-color="#00B30F"/>
<stop offset="1" stop-color="#00B30F" stop-opacity="0"/>
</radialGradient>
<radialGradient id="paint18_radial_112_472" cx="0" cy="0" r="1" gradientUnits="userSpaceOnUse" gradientTransform="translate(240.933 334.145) scale(328.727 368.199)">
<stop stop-color="#00B30F"/>
<stop offset="1" stop-color="#00B30F" stop-opacity="0"/>
</radialGradient>
<radialGradient id="paint19_radial_112_472" cx="0" cy="0" r="1" gradientUnits="userSpaceOnUse" gradientTransform="translate(240.934 334.145) scale(328.727 368.199)">
<stop stop-color="#00B30F"/>
<stop offset="1" stop-color="#00B30F" stop-opacity="0"/>
</radialGradient>
<radialGradient id="paint20_radial_112_472" cx="0" cy="0" r="1" gradientUnits="userSpaceOnUse" gradientTransform="translate(240.934 334.145) scale(328.727 368.199)">
<stop stop-color="#00B30F"/>
<stop offset="1" stop-color="#00B30F" stop-opacity="0"/>
</radialGradient>
<radialGradient id="paint21_radial_112_472" cx="0" cy="0" r="1" gradientUnits="userSpaceOnUse" gradientTransform="translate(240.934 334.145) scale(328.727 368.199)">
<stop stop-color="#00B30F"/>
<stop offset="1" stop-color="#00B30F" stop-opacity="0"/>
</radialGradient>
<radialGradient id="paint22_radial_112_472" cx="0" cy="0" r="1" gradientUnits="userSpaceOnUse" gradientTransform="translate(240.942 334.145) scale(328.712 368.199)">
<stop stop-color="#00B30F"/>
<stop offset="1" stop-color="#00B30F" stop-opacity="0"/>
</radialGradient>
<radialGradient id="paint23_radial_112_472" cx="0" cy="0" r="1" gradientUnits="userSpaceOnUse" gradientTransform="translate(240.935 334.145) scale(328.727 368.199)">
<stop stop-color="#00B30F"/>
<stop offset="1" stop-color="#00B30F" stop-opacity="0"/>
</radialGradient>
<radialGradient id="paint24_radial_112_472" cx="0" cy="0" r="1" gradientUnits="userSpaceOnUse" gradientTransform="translate(240.935 334.145) scale(328.727 368.199)">
<stop stop-color="#00B30F"/>
<stop offset="1" stop-color="#00B30F" stop-opacity="0"/>
</radialGradient>
<radialGradient id="paint25_radial_112_472" cx="0" cy="0" r="1" gradientUnits="userSpaceOnUse" gradientTransform="translate(240.936 334.145) scale(328.727 368.199)">
<stop stop-color="#00B30F"/>
<stop offset="1" stop-color="#00B30F" stop-opacity="0"/>
</radialGradient>
<radialGradient id="paint26_radial_112_472" cx="0" cy="0" r="1" gradientUnits="userSpaceOnUse" gradientTransform="translate(240.936 334.145) scale(328.712 368.199)">
<stop stop-color="#00B30F"/>
<stop offset="1" stop-color="#00B30F" stop-opacity="0"/>
</radialGradient>
<radialGradient id="paint27_radial_112_472" cx="0" cy="0" r="1" gradientUnits="userSpaceOnUse" gradientTransform="translate(240.935 334.145) scale(328.72 368.199)">
<stop stop-color="#00B30F"/>
<stop offset="1" stop-color="#00B30F" stop-opacity="0"/>
</radialGradient>
<radialGradient id="paint28_radial_112_472" cx="0" cy="0" r="1" gradientUnits="userSpaceOnUse" gradientTransform="translate(240.935 334.145) scale(328.72 368.199)">
<stop stop-color="#00B30F"/>
<stop offset="1" stop-color="#00B30F" stop-opacity="0"/>
</radialGradient>
<radialGradient id="paint29_radial_112_472" cx="0" cy="0" r="1" gradientUnits="userSpaceOnUse" gradientTransform="translate(240.937 334.145) scale(328.727 368.199)">
<stop stop-color="#00B30F"/>
<stop offset="1" stop-color="#00B30F" stop-opacity="0"/>
</radialGradient>
<radialGradient id="paint30_radial_112_472" cx="0" cy="0" r="1" gradientUnits="userSpaceOnUse" gradientTransform="translate(240.938 334.145) scale(328.727 368.199)">
<stop stop-color="#00B30F"/>
<stop offset="1" stop-color="#00B30F" stop-opacity="0"/>
</radialGradient>
<radialGradient id="paint31_radial_112_472" cx="0" cy="0" r="1" gradientUnits="userSpaceOnUse" gradientTransform="translate(240.933 334.145) scale(328.72 368.199)">
<stop stop-color="#00B30F"/>
<stop offset="1" stop-color="#00B30F" stop-opacity="0"/>
</radialGradient>
</defs>
</svg>
