<svg id="Layer_1" data-name="Layer 1" xmlns="http://www.w3.org/2000/svg" xmlns:xlink="http://www.w3.org/1999/xlink" viewBox="0 0 939 1341"><defs><style>.cls-1{fill:none;}.cls-2{opacity:0.4;}.cls-3{clip-path:url(#clip-path);}.cls-4{fill:url(#radial-gradient);}.cls-5{fill:url(#radial-gradient-2);}.cls-6{fill:url(#radial-gradient-3);}.cls-7{fill:url(#radial-gradient-4);}.cls-8{fill:url(#radial-gradient-5);}.cls-9{fill:url(#radial-gradient-6);}.cls-10{fill:url(#radial-gradient-8);}.cls-11{fill:url(#radial-gradient-9);}.cls-12{fill:url(#radial-gradient-10);}.cls-13{fill:url(#radial-gradient-12);}.cls-14{fill:url(#radial-gradient-13);}.cls-15{fill:url(#radial-gradient-14);}.cls-16{fill:url(#radial-gradient-15);}.cls-17{fill:url(#radial-gradient-16);}.cls-18{fill:url(#radial-gradient-17);}.cls-19{fill:url(#radial-gradient-18);}.cls-20{fill:url(#radial-gradient-19);}.cls-21{fill:url(#radial-gradient-20);}.cls-22{fill:url(#radial-gradient-22);}.cls-23{fill:url(#radial-gradient-23);}.cls-24{fill:url(#radial-gradient-26);}.cls-25{fill:url(#radial-gradient-27);}.cls-26{fill:url(#radial-gradient-28);}.cls-27{fill:url(#radial-gradient-29);}.cls-28{fill:url(#radial-gradient-31);}.cls-29{fill:url(#radial-gradient-32);}.cls-30{fill:url(#radial-gradient-33);}.cls-31{fill:url(#radial-gradient-35);}</style><clipPath id="clip-path"><rect class="cls-1" x="-0.5" y="0.5" width="940" height="1340"/></clipPath><radialGradient id="radial-gradient" cx="488.61" cy="823.93" r="492.26" gradientTransform="matrix(1.01, 0, 0, -0.81, 11.08, 1424.08)" gradientUnits="userSpaceOnUse"><stop offset="0" stop-color="#96bb20"/><stop offset="1" stop-color="#668c1f" stop-opacity="0"/></radialGradient><radialGradient id="radial-gradient-2" cx="-444.02" cy="241.35" r="1" gradientTransform="translate(197996.96 -122731.08) scale(444.78 510.96)" xlink:href="#radial-gradient"/><radialGradient id="radial-gradient-3" cx="-444.02" cy="241.35" r="1" gradientTransform="translate(197996.96 -122725.35) scale(444.78 510.94)" xlink:href="#radial-gradient"/><radialGradient id="radial-gradient-4" cx="-444.02" cy="241.35" r="1" gradientTransform="translate(197996.96 -122725.38) scale(444.78 510.94)" xlink:href="#radial-gradient"/><radialGradient id="radial-gradient-5" cx="-444.02" cy="241.35" r="1" gradientTransform="translate(197996.96 -122731.15) scale(444.78 510.96)" xlink:href="#radial-gradient"/><radialGradient id="radial-gradient-6" cx="-444.02" cy="241.35" r="1" gradientTransform="translate(197996.96 -122728.45) scale(444.78 510.95)" xlink:href="#radial-gradient"/><radialGradient id="radial-gradient-8" cx="-444.02" cy="241.35" r="1" gradientTransform="translate(197996.96 -122731.21) scale(444.78 510.96)" xlink:href="#radial-gradient"/><radialGradient id="radial-gradient-9" cx="-444.02" cy="241.35" r="1" gradientTransform="translate(197996.96 -122731.24) scale(444.78 510.96)" xlink:href="#radial-gradient"/><radialGradient id="radial-gradient-10" cx="-444.02" cy="241.35" r="1" gradientTransform="translate(197996.96 -122731.27) scale(444.78 510.96)" xlink:href="#radial-gradient"/><radialGradient id="radial-gradient-12" cx="-444.02" cy="241.35" r="1" gradientTransform="translate(197996.96 -122728.58) scale(444.78 510.95)" xlink:href="#radial-gradient"/><radialGradient id="radial-gradient-13" cx="-444.02" cy="241.35" r="1" gradientTransform="translate(197996.96 -122729.94) scale(444.78 510.96)" xlink:href="#radial-gradient"/><radialGradient id="radial-gradient-14" cx="-444.02" cy="241.35" r="1" gradientTransform="translate(197996.96 -122729.97) scale(444.78 510.96)" xlink:href="#radial-gradient"/><radialGradient id="radial-gradient-15" cx="-444.02" cy="241.35" r="1" gradientTransform="translate(197996.96 -122731.36) scale(444.78 510.96)" xlink:href="#radial-gradient"/><radialGradient id="radial-gradient-16" cx="-444.02" cy="241.35" r="1" gradientTransform="translate(197996.96 -122730) scale(444.78 510.96)" xlink:href="#radial-gradient"/><radialGradient id="radial-gradient-17" cx="-444.02" cy="241.35" r="1" gradientTransform="translate(197996.96 -122730.03) scale(444.78 510.96)" xlink:href="#radial-gradient"/><radialGradient id="radial-gradient-18" cx="-444.02" cy="241.35" r="1" gradientTransform="translate(197996.96 -122730.88) scale(444.78 510.96)" xlink:href="#radial-gradient"/><radialGradient id="radial-gradient-19" cx="-444.02" cy="241.35" r="1" gradientTransform="translate(197998.73 -122771.7) scale(444.78 511.13)" xlink:href="#radial-gradient"/><radialGradient id="radial-gradient-20" cx="-444.02" cy="241.35" r="1" gradientTransform="translate(197998.73 -122771.7) scale(444.78 511.13)" xlink:href="#radial-gradient"/><radialGradient id="radial-gradient-22" cx="-444.02" cy="241.35" r="1" gradientTransform="translate(197989.75 -122771.7) scale(444.76 511.13)" xlink:href="#radial-gradient"/><radialGradient id="radial-gradient-23" cx="-444.02" cy="241.35" r="1" gradientTransform="translate(197998.73 -122771.7) scale(444.78 511.13)" xlink:href="#radial-gradient"/><radialGradient id="radial-gradient-26" cx="-444.02" cy="241.35" r="1" gradientTransform="translate(197989.74 -122771.7) scale(444.76 511.13)" xlink:href="#radial-gradient"/><radialGradient id="radial-gradient-27" cx="-444.02" cy="241.35" r="1" gradientTransform="translate(197994.24 -122771.7) scale(444.77 511.13)" xlink:href="#radial-gradient"/><radialGradient id="radial-gradient-28" cx="-444.02" cy="241.35" r="1" gradientTransform="translate(197994.24 -122771.7) scale(444.77 511.13)" xlink:href="#radial-gradient"/><radialGradient id="radial-gradient-29" cx="-444.02" cy="241.35" r="1" gradientTransform="translate(197998.74 -122771.7) scale(444.78 511.13)" xlink:href="#radial-gradient"/><radialGradient id="radial-gradient-31" cx="-444.02" cy="241.35" r="1" gradientTransform="translate(197994.24 -122771.7) scale(444.77 511.13)" xlink:href="#radial-gradient"/><radialGradient id="radial-gradient-32" cx="-444.02" cy="241.35" r="1" gradientTransform="translate(197998.74 -122771.7) scale(444.78 511.13)" xlink:href="#radial-gradient"/><radialGradient id="radial-gradient-33" cx="-444.02" cy="241.35" r="1" gradientTransform="translate(197998.74 -122771.7) scale(444.78 511.13)" xlink:href="#radial-gradient"/><radialGradient id="radial-gradient-35" cx="-444.02" cy="241.35" r="1" gradientTransform="translate(197996.45 -122771.7) scale(444.78 511.13)" xlink:href="#radial-gradient"/></defs><g class="cls-2"><g class="cls-3"><path class="cls-4" d="M1386,1328.5H-442.5V12.5H1386Zm-1826.1-2.7H1383.7V15.2H-440.1Z"/><path class="cls-5" d="M1384.8,1194.5H-441.3v2.7H1384.8Z"/><path class="cls-6" d="M1384.8,1128.8H-441.3v2.7H1384.8Z"/><path class="cls-7" d="M1384.8,1063.1H-441.3v2.7H1384.8Z"/><path class="cls-8" d="M1384.8,997.5H-441.3v2.7H1384.8Z"/><path class="cls-9" d="M1384.8,931.8H-441.3v2.7H1384.8Z"/><path class="cls-9" d="M1384.8,866.1H-441.3v2.7H1384.8Z"/><path class="cls-10" d="M1384.8,800.5H-441.3v2.7H1384.8Z"/><path class="cls-11" d="M1384.8,734.8H-441.3v2.7H1384.8Z"/><path class="cls-12" d="M1384.8,669.2H-441.3v2.7H1384.8Z"/><path class="cls-12" d="M1384.8,603.5H-441.3v2.7H1384.8Z"/><path class="cls-13" d="M1384.8,537.8H-441.3v2.7H1384.8Z"/><path class="cls-14" d="M1384.8,472.1H-441.3v2.7H1384.8Z"/><path class="cls-15" d="M1384.8,406.5H-441.3v2.7H1384.8Z"/><path class="cls-16" d="M1384.8,340.8H-441.3v2.7H1384.8Z"/><path class="cls-17" d="M1384.8,275.2H-441.3v2.7H1384.8Z"/><path class="cls-18" d="M1384.8,209.5H-441.3v2.7H1384.8Z"/><path class="cls-19" d="M1384.8,143.8H-441.3v2.7H1384.8Z"/><path class="cls-20" d="M888,13.9h-2.4V1327.2H888Z"/><path class="cls-21" d="M832.6,13.9h-2.4V1327.2h2.4Z"/><path class="cls-21" d="M777.3,13.9h-2.4V1327.2h2.4Z"/><path class="cls-22" d="M722,13.9h-2.4V1327.2H722Z"/><path class="cls-23" d="M666.6,13.9h-2.4V1327.2h2.4Z"/><path class="cls-23" d="M611.3,13.9h-2.4V1327.2h2.4Z"/><path class="cls-23" d="M555.9,13.9h-2.4V1327.2h2.4Z"/><path class="cls-24" d="M500.6,13.9h-2.4V1327.2h2.4Z"/><path class="cls-25" d="M445.3,13.9h-2.4V1327.2h2.4Z"/><path class="cls-26" d="M389.9,13.9h-2.4V1327.2h2.4Z"/><path class="cls-27" d="M334.6,13.9h-2.4V1327.2h2.4Z"/><path class="cls-27" d="M279.3,13.9h-2.4V1327.2h2.4Z"/><path class="cls-28" d="M223.9,13.9h-2.4V1327.2h2.4Z"/><path class="cls-29" d="M168.6,13.9h-2.4V1327.2h2.4Z"/><path class="cls-30" d="M113.2,13.9h-2.4V1327.2h2.4Z"/><path class="cls-30" d="M57.9,13.9H55.5V1327.2h2.4Z"/><path class="cls-31" d="M2.6,13.9H.2V1327.2H2.6Z"/></g></g></svg>