<svg width="64" height="64" viewBox="0 0 64 64" fill="none" xmlns="http://www.w3.org/2000/svg">
<g clip-path="url(#clip0_3940_199)">
<path d="M53.7496 29.2154V25.9753C54.3201 25.8594 54.7496 25.3551 54.7496 24.7504C54.7496 24.0602 54.1899 23.5004 53.4996 23.5004H41.2497V13.9054C44.2477 13.8546 47.1101 12.6549 49.2571 10.5079C51.718 8.04694 52.9385 4.64672 52.6054 1.17887C52.5482 0.582872 52.0765 0.111376 51.4807 0.0541264C48.0118 -0.279246 44.6125 0.941744 42.1516 3.40248C39.9359 5.61821 38.7264 8.59556 38.7504 11.6982C38.4718 11.3462 38.1718 11.008 37.8499 10.6862C35.389 8.22531 31.9907 7.00432 28.5208 7.33782C27.9248 7.39507 27.4533 7.86669 27.3961 8.46256C27.0631 11.9305 28.2837 15.3308 30.7444 17.7916C32.8912 19.9382 35.7524 21.1378 38.7498 21.1891V23.5004H26.4999C25.8096 23.5004 25.2499 24.0602 25.2499 24.7504C25.2499 25.3551 25.6794 25.8594 26.2499 25.9753V29.2154C24.795 29.7314 23.7499 31.1208 23.7499 32.7504V48.3209C22.0608 46.5166 19.6605 45.3859 16.9999 45.3859C11.8995 45.3859 7.75 49.5354 7.75 54.6358C7.75 59.7363 11.8995 63.8857 16.9999 63.8857C19.6898 63.8857 22.1143 62.7309 23.806 60.8919C24.1115 62.6548 25.6511 64 27.4998 64H52.4996C54.5674 64 56.2496 62.3178 56.2496 60.25V52.1251C56.2496 51.4348 55.6899 50.8751 54.9996 50.8751C54.3094 50.8751 53.7496 51.4348 53.7496 52.1251V60.25C53.7496 60.9393 53.1889 61.5 52.4996 61.5H46.6497V58.5H48.9997C49.6899 58.5 50.2497 57.9403 50.2497 57.2501V51.7501C50.2497 51.0599 49.6899 50.5001 48.9997 50.5001H46.6497V47.5001H48.9997C49.6899 47.5001 50.2497 46.9404 50.2497 46.2501V40.7502C50.2497 40.0599 49.6899 39.5002 48.9997 39.5002H41.2497V31.5003H52.4996C53.1889 31.5003 53.7496 32.061 53.7496 32.7502V40.8752C53.7496 41.5654 54.3094 42.1252 54.9996 42.1252C55.6899 42.1252 56.2496 41.5654 56.2496 40.8752V32.7502C56.2496 31.1208 55.2045 29.7314 53.7496 29.2154ZM43.9195 5.17021C45.5932 3.49635 47.8206 2.55386 50.157 2.50248C50.1055 4.83859 49.1631 7.06632 47.4892 8.73993C45.8155 10.4138 43.5878 11.3563 41.2517 11.4078C41.3032 9.07143 42.2457 6.84382 43.9195 5.17021ZM32.5123 16.0238C30.8386 14.3501 29.8961 12.1225 29.8446 9.78618C32.1806 9.8378 34.4085 10.7803 36.082 12.454C37.7553 14.1271 38.6975 16.3536 38.7498 18.689V18.6916C36.4138 18.6399 34.1859 17.6974 32.5123 16.0238ZM38.7498 26.0003V29.0003H28.7498V26.0003H38.7498ZM16.9999 61.3858C13.2781 61.3858 10.25 58.3577 10.25 54.6358C10.25 50.914 13.2781 47.8859 16.9999 47.8859C20.7218 47.8859 23.7499 50.914 23.7499 54.6358C23.7499 58.3577 20.7219 61.3858 16.9999 61.3858ZM44.1497 61.5H32.2498V58.5H44.1497V61.5ZM47.7497 56.0001H35.8498V53.0001H47.7497V56.0001ZM44.1497 50.5001H32.2498V47.5001H44.1497V50.5001ZM47.7497 45.0001H35.8498V42.0002H47.7497V45.0001ZM38.7498 39.5002H34.5998C33.9095 39.5002 33.3498 40.0599 33.3498 40.7502V45.0001H30.9998C30.3096 45.0001 29.7498 45.5599 29.7498 46.2501V51.7501C29.7498 52.4403 30.3096 53.0001 30.9998 53.0001H33.3498V56.0001H30.9998C30.3096 56.0001 29.7498 56.5598 29.7498 57.2501V61.5H27.4998C26.8106 61.5 26.2499 60.9393 26.2499 60.25V32.7502C26.2499 32.061 26.8106 31.5003 27.4998 31.5003H38.7498V39.5002ZM41.2497 29.0003V26.0003H51.2497V29.0003H41.2497Z" fill="black"/>
<path d="M17 17.384C17.6902 17.384 18.25 16.8243 18.25 16.134V14.9435C18.25 14.2533 17.6902 13.6935 17 13.6935C16.3098 13.6935 15.75 14.2533 15.75 14.9435V16.134C15.75 16.8243 16.3098 17.384 17 17.384Z" fill="black"/>
<path d="M17 26.1933C17.6902 26.1933 18.25 25.6336 18.25 24.9433V23.753C18.25 23.0627 17.6902 22.503 17 22.503C16.3098 22.503 15.75 23.0627 15.75 23.753V24.9433C15.75 25.6337 16.3098 26.1933 17 26.1933Z" fill="black"/>
<path d="M20.8096 21.1934H21.9999C22.6902 21.1934 23.2499 20.6336 23.2499 19.9434C23.2499 19.2531 22.6902 18.6934 21.9999 18.6934H20.8096C20.1193 18.6934 19.5596 19.2531 19.5596 19.9434C19.5596 20.6336 20.1192 21.1934 20.8096 21.1934Z" fill="black"/>
<path d="M12 21.1934H13.1904C13.8806 21.1934 14.4404 20.6336 14.4404 19.9434C14.4404 19.2531 13.8806 18.6934 13.1904 18.6934H12C11.3098 18.6934 10.75 19.2531 10.75 19.9434C10.75 20.6336 11.3098 21.1934 12 21.1934Z" fill="black"/>
<path d="M54.9995 45.2502C54.6708 45.2502 54.3483 45.3838 54.1158 45.6164C53.8833 45.849 53.7495 46.1702 53.7495 46.5002C53.7495 46.8289 53.8831 47.1514 54.1158 47.3838C54.3483 47.6163 54.6708 47.7502 54.9995 47.7502C55.3283 47.7502 55.6508 47.6164 55.8831 47.3838C56.1156 47.1514 56.2495 46.8289 56.2495 46.5002C56.2495 46.1714 56.1158 45.8489 55.8831 45.6164C55.6508 45.3839 55.3283 45.2502 54.9995 45.2502Z" fill="black"/>
</g>
<defs>
<clipPath id="clip0_3940_199">
<rect width="64" height="64" fill="white"/>
</clipPath>
</defs>
</svg>
