<svg width="64" height="64" viewBox="0 0 64 64" fill="none" xmlns="http://www.w3.org/2000/svg">
<path d="M63.0625 37.382C63.5804 37.382 64 36.9622 64 36.4445V7.5C64 6.01813 62.7944 4.8125 61.3125 4.8125H54.1875V4.125C54.1875 3.33237 53.5426 2.6875 52.75 2.6875H19.6529C18.4115 2.7305 18.4125 4.51988 19.6529 4.5625H52.3125V32.6875H11.6875V4.5625H15.2639C16.5052 4.5195 16.5042 2.73012 15.2639 2.6875H11.25C10.4574 2.6875 9.8125 3.33237 9.8125 4.125V4.8125H2.6875C1.20563 4.8125 0 6.01813 0 7.5V47.5C0 48.9819 1.20563 50.1875 2.6875 50.1875H20.4375V55.6875H19.125C17.0916 55.6875 15.4375 57.3418 15.4375 59.375V59.7836C15.4375 60.6266 16.1232 61.3125 16.9662 61.3125H47.0337C47.8767 61.3125 48.5625 60.6266 48.5625 59.7836V59.375C48.5625 57.3418 46.9084 55.6875 44.875 55.6875H43.5625V50.1875H61.3125C62.7944 50.1875 64 48.9819 64 47.5V40.8889C63.957 39.6475 62.1676 39.6485 62.125 40.8889V47.5C62.125 47.948 61.7605 48.3125 61.3125 48.3125H2.6875C2.2395 48.3125 1.875 47.948 1.875 47.5V7.5C1.875 7.052 2.2395 6.6875 2.6875 6.6875H9.8125V8.5625H5.1875C4.39488 8.5625 3.75 9.20738 3.75 10V40.75C3.75 41.5426 4.39488 42.1875 5.1875 42.1875H58.8125C59.6051 42.1875 60.25 41.5426 60.25 40.75V10C60.25 9.20738 59.6051 8.5625 58.8125 8.5625H54.1875V6.6875H61.3125C61.7605 6.6875 62.125 7.052 62.125 7.5V36.4445C62.125 36.9622 62.5446 37.382 63.0625 37.382ZM46.6875 59.375V59.4375H17.3125V59.375C17.3125 58.3756 18.1256 57.5625 19.125 57.5625H44.875C45.8744 57.5625 46.6875 58.3756 46.6875 59.375ZM34.6512 50.1875C33.7649 52.6726 30.2342 52.6711 29.3487 50.1875H34.6512ZM27.4066 50.1875C28.4934 55.157 35.5086 55.1535 36.5934 50.1875H41.6875V55.6875H22.3125V50.1875H27.4066ZM58.375 10.4375V40.3125H5.625V10.4375H9.8125V33.125C9.8125 33.9176 10.4574 34.5625 11.25 34.5625H52.75C53.5426 34.5625 54.1875 33.9176 54.1875 33.125V10.4375H58.375Z" fill="black"/>
<path d="M14.9897 18.1459V20.6677C14.9897 21.923 16.0109 22.9441 17.2661 22.9441H27.0884C28.3436 22.9441 29.3647 21.923 29.3647 20.6677V18.1459C29.3647 16.3675 28.1454 14.8687 26.4989 14.4414C26.7344 13.8824 26.8647 13.2686 26.8647 12.625V11.1316C26.6284 4.92 17.7239 4.92475 17.4897 11.1316V12.6384C17.4897 13.2775 17.6189 13.887 17.8517 14.4425C16.2072 14.8712 14.9897 16.3689 14.9897 18.1459ZM27.4897 18.1459V20.6677C27.4897 20.8891 27.3097 21.0691 27.0884 21.0691H17.2661C17.0447 21.0691 16.8647 20.8891 16.8647 20.6677V18.1459C16.8647 17.0697 17.7402 16.1941 18.8164 16.1941H19.1315C20.7811 17.6811 23.5645 17.6781 25.2144 16.1941H25.538C26.6142 16.1941 27.4897 17.0697 27.4897 18.1459ZM19.3647 11.1316C19.5066 7.40462 24.8492 7.4075 24.9897 11.1316V12.625C24.8512 16.3482 19.5085 16.3661 19.3647 12.6384V11.1316Z" fill="black"/>
<path d="M16.9486 24.375C15.8685 24.375 14.9897 25.2538 14.9897 26.3339V28.0411C14.9897 29.1212 15.8685 30 16.9486 30H27.4059C28.486 30 29.3647 29.1212 29.3647 28.0411V26.3339C29.3647 25.2538 28.486 24.375 27.4059 24.375H16.9486ZM27.4897 26.3339V28.0411C27.4897 28.0874 27.4521 28.125 27.4059 28.125H16.9486C16.9024 28.125 16.8647 28.0874 16.8647 28.0411V26.3339C16.8647 26.2876 16.9024 26.25 16.9486 26.25H27.4059C27.4521 26.25 27.4897 26.2876 27.4897 26.3339Z" fill="black"/>
<path d="M47.9548 16.6893C46.9265 10.4336 39.8861 8.22626 35.4828 12.2403C31.2861 15.9803 33.317 23.8094 37.7611 26.3351C38.1991 26.5965 38.7801 26.4556 39.0455 26.006C39.3091 25.5605 39.1618 24.9854 38.7163 24.7218C36.5857 23.4604 35.0393 20.5598 35.0393 17.8248C35.215 10.6239 44.9638 10.0791 46.1083 17.016C46.1986 17.5259 46.6846 17.8656 47.1948 17.7759C47.7048 17.6855 48.0448 17.1991 47.9548 16.6893Z" fill="black"/>
<path d="M46.7243 22.1072C46.9522 22.1072 47.1807 22.0246 47.361 21.8576C47.7409 21.5059 47.7638 20.9126 47.4119 20.5327C45.5307 18.5012 44.4659 16.6205 44.0953 15.9062C43.4855 14.8241 41.8977 15.6489 42.431 16.7695C42.8365 17.5514 43.9997 19.6075 46.0363 21.8066C46.221 22.0062 46.4722 22.1072 46.7243 22.1072Z" fill="black"/>
<path d="M39.4907 15.8411C39.8303 15.6645 40.2107 15.5804 40.5901 15.597C41.8317 15.6074 41.9111 13.8224 40.6736 13.7239C39.9665 13.6929 39.2572 13.8491 38.626 14.1775C37.6645 14.6771 36.9551 15.5214 36.6287 16.5546C36.3026 17.5876 36.398 18.686 36.8978 19.6479C37.4735 20.7545 39.119 23.6441 41.9566 26.5708C42.3172 26.9427 42.9108 26.9514 43.2822 26.5913C43.654 26.2309 43.6631 25.6373 43.3027 25.2656C40.6372 22.5164 39.0988 19.816 38.5613 18.783C38.2926 18.2658 38.2411 17.6749 38.4166 17.1192C38.5921 16.5636 38.9735 16.1097 39.4907 15.8411Z" fill="black"/>
<path d="M44.3763 24.502C44.7455 24.8646 45.3391 24.8595 45.702 24.49C46.0647 24.1206 46.0595 23.527 45.69 23.1643C43.5522 21.0648 41.9099 18.1799 41.8935 18.151C41.2455 17.0915 39.6884 17.9721 40.2609 19.073C40.3327 19.2003 42.0453 22.2128 44.3763 24.502Z" fill="black"/>
<path d="M53.25 44.2291C52.0086 44.2721 52.0096 46.0615 53.25 46.1041H54.7665C56.0079 46.0611 56.0069 44.2718 54.7665 44.2291H53.25Z" fill="black"/>
<path d="M48.2417 44.2291C47.0003 44.2721 47.0013 46.0615 48.2417 46.1041H49.7581C50.9994 46.0611 50.9984 44.2718 49.7581 44.2291H48.2417Z" fill="black"/>
</svg>
