<svg width="64" height="64" viewBox="0 0 64 64" fill="none" xmlns="http://www.w3.org/2000/svg">
<g clip-path="url(#clip0_3940_175)">
<path d="M27.7311 46.9347H37.3304C37.9194 46.9347 38.3969 46.4572 38.3969 45.8682V41.6018C38.3969 41.0128 37.9194 40.5352 37.3304 40.5352H27.7311C27.1421 40.5352 26.6646 41.0128 26.6646 41.6018V45.8682C26.6646 46.4572 27.1421 46.9347 27.7311 46.9347ZM28.7977 42.6684H36.2638V44.8016H28.7977V42.6684Z" fill="black"/>
<path d="M26.6646 49.0679H28.7977V51.2011H26.6646V49.0679Z" fill="black"/>
<path d="M30.9307 49.0679H33.0638V51.2011H30.9307V49.0679Z" fill="black"/>
<path d="M35.1973 49.0679H37.3304V51.2011H35.1973V49.0679Z" fill="black"/>
<path d="M26.6646 53.3342H28.7977V55.4674H26.6646V53.3342Z" fill="black"/>
<path d="M30.9307 53.3342H33.0638V55.4674H30.9307V53.3342Z" fill="black"/>
<path d="M35.1973 53.3342H37.3304V55.4674H35.1973V53.3342Z" fill="black"/>
<path d="M26.6646 57.6005H28.7977V59.7337H26.6646V57.6005Z" fill="black"/>
<path d="M30.9307 57.6005H33.0638V59.7337H30.9307V57.6005Z" fill="black"/>
<path d="M35.1973 57.6005H37.3304V59.7337H35.1973V57.6005Z" fill="black"/>
<path d="M5.3329 53.3342H22.3982V57.6005H19.1985C17.4314 57.6005 15.9987 59.0332 15.9987 60.8003C15.9987 62.5673 17.4314 64 19.1985 64H60.7951C61.8195 64.0016 62.783 63.5126 63.3866 62.6845C63.9896 61.8564 64.1599 60.7893 63.8443 59.8149C63.3991 58.5057 62.1778 57.6188 60.7951 57.6005V52.8895C62.7408 52.0432 63.998 50.123 63.9948 48.0013V5.33809C63.9912 2.39406 61.606 0.00883353 58.6619 0.00518799H5.3329C2.38887 0.00883353 0.00364555 2.39406 0 5.33809V48.0013C0.00364555 50.9453 2.38887 53.3306 5.3329 53.3342ZM22.3982 61.8669H19.1985C18.6094 61.8669 18.1319 61.3893 18.1319 60.8003C18.1319 60.2113 18.6094 59.7337 19.1985 59.7337H22.3982V61.8669ZM39.4635 41.3331V41.381V61.8669H24.5314V38.4021H39.4635V41.3331ZM61.8049 60.4409C61.9195 60.7763 61.8627 61.1466 61.6539 61.4325C61.4539 61.707 61.1347 61.8684 60.7951 61.8669H41.5966V41.7242C42.9986 40.2858 44.9209 39.4723 46.9296 39.4687H51.1959C55.3174 39.4734 58.6572 42.8132 58.6619 46.9347V51.9244C58.627 52.0765 58.627 52.2348 58.6619 52.3869V57.7198C58.6651 58.8327 59.5681 59.7337 60.681 59.7337C61.168 59.7071 61.6185 59.9904 61.8049 60.4409ZM46.9296 34.5623V33.4822L48.7258 34.0816C48.9445 34.154 49.1809 34.154 49.3997 34.0816L51.1959 33.4822V34.5623C51.1959 34.7727 51.1339 34.9784 51.0167 35.1534L49.5585 37.3355H48.5669L47.1087 35.1482C46.9926 34.9748 46.9306 34.7711 46.9296 34.5623ZM61.8617 48.0013C61.8622 48.9116 61.4742 49.7788 60.7951 50.385V46.9347C60.793 46.2166 60.7097 45.501 60.5477 44.8016H61.8617V48.0013ZM2.13316 5.33809C2.13316 3.57105 3.56586 2.13835 5.3329 2.13835H58.6619C60.429 2.13835 61.8617 3.57105 61.8617 5.33809V42.6684H59.7816C58.7093 40.5201 56.8741 38.8494 54.6347 37.9828C56.4246 37.2928 58.0526 36.2398 59.416 34.8899C59.8202 34.4711 59.8144 33.8061 59.403 33.3947C58.9916 32.9832 58.3265 32.9775 57.9078 33.3817C56.6204 34.6654 55.0534 35.6341 53.329 36.2111L52.7416 36.4075L52.7916 36.3319C53.1415 35.808 53.3285 35.1924 53.329 34.5623V32.0026C53.329 31.6599 53.1645 31.3375 52.8864 31.137C52.6083 30.9365 52.2505 30.8819 51.9255 30.9902L49.0627 31.9505L46.1999 30.9902C45.8749 30.8819 45.5172 30.9365 45.2391 31.137C44.961 31.3375 44.7964 31.6599 44.7964 32.0026H43.7298V17.0705C43.7298 16.4815 43.2522 16.0039 42.6632 16.0039C42.0742 16.0039 41.5966 16.4815 41.5966 17.0705V32.0026H37.3303V21.3368C37.3303 20.7478 36.8528 20.2702 36.2637 20.2702C35.6747 20.2702 35.1972 20.7478 35.1972 21.3368V32.0026H30.9308V23.47C30.9308 22.8809 30.4533 22.4034 29.8643 22.4034C29.2752 22.4034 28.7977 22.8809 28.7977 23.47V32.0026H24.5314V21.3368C24.5314 20.7478 24.0538 20.2702 23.4648 20.2702C22.8758 20.2702 22.3982 20.7478 22.3982 21.3368V32.0026H18.1319V23.47C18.1319 22.8809 17.6543 22.4034 17.0653 22.4034C16.4763 22.4034 15.9987 22.8809 15.9987 23.47V32.0026H11.7324V27.7363C11.7324 27.1473 11.2548 26.6697 10.6658 26.6697C10.0768 26.6697 9.59923 27.1473 9.59923 27.7363V32.0026H7.46606C6.87705 32.0026 6.39948 32.4802 6.39948 33.0692C6.39948 33.6582 6.87705 34.1358 7.46606 34.1358H44.7964V34.5623C44.7943 35.1935 44.9802 35.8117 45.3297 36.3371L46.0307 37.3886C44.4443 37.5391 42.9205 38.0823 41.5966 38.9692V37.3355C41.5966 36.7465 41.1191 36.2689 40.5301 36.2689H23.4648C22.8758 36.2689 22.3982 36.7465 22.3982 37.3355V42.6684H2.13316V5.33809ZM2.13316 44.8016H22.3982V51.201H5.3329C3.56586 51.201 2.13316 49.7684 2.13316 48.0013V44.8016Z" fill="black"/>
<path d="M10.6656 24.5365C10.9271 24.5371 11.1797 24.4412 11.375 24.2678L20.4336 16.2174L30.4594 21.23C30.8109 21.4055 31.2306 21.3738 31.5515 21.1467L47.3366 10.0044L46.9669 11.4839C46.8237 12.0552 47.1705 12.6344 47.7423 12.7776C47.8251 12.7969 47.9106 12.8057 47.996 12.8041C48.485 12.8036 48.9105 12.4708 49.0297 11.9969L50.0963 7.7306C50.0963 7.71758 50.0963 7.70612 50.0963 7.6931C50.126 7.55613 50.1281 7.41396 50.1036 7.27595C50.1036 7.26657 50.1036 7.25668 50.1036 7.2473C50.0734 7.10669 50.0156 6.97337 49.9328 6.85567C49.9276 6.84838 49.9177 6.84421 49.9125 6.8364C49.9073 6.82911 49.9073 6.82182 49.9021 6.81505C49.8776 6.78328 49.839 6.76922 49.8114 6.74162C49.7401 6.6635 49.6578 6.59684 49.5672 6.54319C49.5188 6.5208 49.4693 6.50205 49.4188 6.48695C49.3292 6.45258 49.2349 6.43122 49.1391 6.42289C49.1136 6.42081 49.0901 6.40466 49.0625 6.40466H44.7962C44.2072 6.40466 43.7296 6.88223 43.7296 7.47124C43.7296 8.06026 44.2072 8.53782 44.7962 8.53782H45.7019L30.8369 19.0307L20.7414 13.9827C20.3513 13.7874 19.8816 13.8494 19.5555 14.1395L9.95633 22.6721C9.62458 22.9663 9.51001 23.4351 9.66729 23.8491C9.82509 24.2636 10.2224 24.5371 10.6656 24.5365Z" fill="black"/>
<path d="M7.46617 7.47125H9.59933V5.33809H6.39959C5.81057 5.33809 5.33301 5.81565 5.33301 6.40467V9.60441H7.46617V7.47125Z" fill="black"/>
<path d="M5.33301 11.7376H7.46617V13.8707H5.33301V11.7376Z" fill="black"/>
<path d="M11.7324 5.33809H13.8656V7.47125H11.7324V5.33809Z" fill="black"/>
<path d="M15.9985 5.33809H18.1317V7.47125H15.9985V5.33809Z" fill="black"/>
<path d="M6.39941 46.9347H13.8655V49.0679H6.39941V46.9347Z" fill="black"/>
<path d="M15.9985 46.9347H18.1317V49.0679H15.9985V46.9347Z" fill="black"/>
<path d="M47.9961 27.7363H50.1293V29.8694H47.9961V27.7363Z" fill="black"/>
<path d="M47.9961 23.47H50.1293V25.6031H47.9961V23.47Z" fill="black"/>
<path d="M47.9961 19.2036H50.1293V21.3368H47.9961V19.2036Z" fill="black"/>
<path d="M47.9961 14.9373H50.1293V17.0705H47.9961V14.9373Z" fill="black"/>
<path d="M50.7192 49.7699L48.3595 48.5914C48.136 48.4794 47.9949 48.2513 47.9949 48.0013C47.9949 47.7513 48.136 47.5232 48.3595 47.4113C48.8016 47.191 49.3214 47.191 49.7635 47.4113L50.7176 47.8893C51.2452 48.1529 51.8857 47.9388 52.1493 47.4113C52.4128 46.8842 52.1987 46.2436 51.6712 45.9801L50.7176 45.5036C50.5275 45.4156 50.3301 45.3442 50.1281 45.2901V43.735H47.996V45.2911C47.7939 45.3453 47.597 45.4166 47.4075 45.5046C46.4607 45.977 45.8628 46.9446 45.8628 48.0023C45.8628 49.0601 46.4607 50.0277 47.4075 50.5001L49.7666 51.6786C49.9901 51.7906 50.1312 52.0187 50.1312 52.2687C50.1312 52.5187 49.9901 52.7468 49.7666 52.8587C49.3245 53.079 48.8047 53.079 48.3631 52.8587L47.4085 52.3806C46.8809 52.1171 46.2404 52.3312 45.9768 52.8587C45.7138 53.3858 45.9274 54.0263 46.4549 54.2899L47.4085 54.7664C47.5986 54.8544 47.796 54.9257 47.998 54.9799V56.534H50.1312V54.9778C50.3333 54.9237 50.5301 54.8523 50.7202 54.7643C51.6665 54.2914 52.2644 53.3243 52.2644 52.2666C52.2644 51.2083 51.6665 50.2412 50.7202 49.7684L50.7192 49.7699Z" fill="black"/>
</g>
<defs>
<clipPath id="clip0_3940_175">
<rect width="64" height="64" fill="white"/>
</clipPath>
</defs>
</svg>
