<svg width="64" height="64" viewBox="0 0 64 64" fill="none" xmlns="http://www.w3.org/2000/svg">
<path d="M34 60H5C4.73478 60 4.48043 59.8946 4.29289 59.7071C4.10536 59.5196 4 59.2652 4 59V7C4 6.73478 4.10536 6.48043 4.29289 6.29289C4.48043 6.10536 4.73478 6 5 6H11C11.2652 6 11.5196 5.89464 11.7071 5.70711C11.8946 5.51957 12 5.26522 12 5C12 4.73478 11.8946 4.48043 11.7071 4.29289C11.5196 4.10536 11.2652 4 11 4H5C4.20435 4 3.44129 4.31607 2.87868 4.87868C2.31607 5.44129 2 6.20435 2 7V59C2 59.7957 2.31607 60.5587 2.87868 61.1213C3.44129 61.6839 4.20435 62 5 62H34C34.2652 62 34.5196 61.8946 34.7071 61.7071C34.8946 61.5196 35 61.2652 35 61C35 60.7348 34.8946 60.4804 34.7071 60.2929C34.5196 60.1054 34.2652 60 34 60Z" fill="#0F5145"/>
<path d="M37 6H43C43.2652 6 43.5196 6.10536 43.7071 6.29289C43.8946 6.48043 44 6.73478 44 7V27C44 27.2652 44.1054 27.5196 44.2929 27.7071C44.4804 27.8946 44.7348 28 45 28C45.2652 28 45.5196 27.8946 45.7071 27.7071C45.8946 27.5196 46 27.2652 46 27V7C46 6.20435 45.6839 5.44129 45.1213 4.87868C44.5587 4.31607 43.7956 4 43 4H37C36.7348 4 36.4804 4.10536 36.2929 4.29289C36.1054 4.48043 36 4.73478 36 5C36 5.26522 36.1054 5.51957 36.2929 5.70711C36.4804 5.89464 36.7348 6 37 6Z" fill="#0F5145"/>
<path d="M17 10H31C31.7956 10 32.5587 9.68393 33.1213 9.12132C33.6839 8.55871 34 7.79565 34 7V5C34 4.20435 33.6839 3.44129 33.1213 2.87868C32.5587 2.31607 31.7956 2 31 2H17C16.2044 2 15.4413 2.31607 14.8787 2.87868C14.3161 3.44129 14 4.20435 14 5V7C14 7.79565 14.3161 8.55871 14.8787 9.12132C15.4413 9.68393 16.2044 10 17 10ZM16 5C16 4.73478 16.1054 4.48043 16.2929 4.29289C16.4804 4.10536 16.7348 4 17 4H31C31.2652 4 31.5196 4.10536 31.7071 4.29289C31.8946 4.48043 32 4.73478 32 5V7C32 7.26522 31.8946 7.51957 31.7071 7.70711C31.5196 7.89464 31.2652 8 31 8H17C16.7348 8 16.4804 7.89464 16.2929 7.70711C16.1054 7.51957 16 7.26522 16 7V5Z" fill="#0F5145"/>
<path d="M16 13C16 12.7348 15.8946 12.4804 15.7071 12.2929C15.5196 12.1054 15.2652 12 15 12H7C6.73478 12 6.48043 12.1054 6.29289 12.2929C6.10536 12.4804 6 12.7348 6 13V21C6 21.2652 6.10536 21.5196 6.29289 21.7071C6.48043 21.8946 6.73478 22 7 22H15C15.2652 22 15.5196 21.8946 15.7071 21.7071C15.8946 21.5196 16 21.2652 16 21V13ZM14 20H8V14H14V20Z" fill="#0F5145"/>
<path d="M16 25C16 24.7348 15.8946 24.4804 15.7071 24.2929C15.5196 24.1054 15.2652 24 15 24H7C6.73478 24 6.48043 24.1054 6.29289 24.2929C6.10536 24.4804 6 24.7348 6 25V33C6 33.2652 6.10536 33.5196 6.29289 33.7071C6.48043 33.8946 6.73478 34 7 34H15C15.2652 34 15.5196 33.8946 15.7071 33.7071C15.8946 33.5196 16 33.2652 16 33V25ZM14 32H8V26H14V32Z" fill="#0F5145"/>
<path d="M16 37C16 36.7348 15.8946 36.4804 15.7071 36.2929C15.5196 36.1054 15.2652 36 15 36H7C6.73478 36 6.48043 36.1054 6.29289 36.2929C6.10536 36.4804 6 36.7348 6 37V45C6 45.2652 6.10536 45.5196 6.29289 45.7071C6.48043 45.8946 6.73478 46 7 46H15C15.2652 46 15.5196 45.8946 15.7071 45.7071C15.8946 45.5196 16 45.2652 16 45V37ZM14 44H8V38H14V44Z" fill="#0F5145"/>
<path d="M15 48H7C6.73478 48 6.48043 48.1054 6.29289 48.2929C6.10536 48.4804 6 48.7348 6 49V57C6 57.2652 6.10536 57.5196 6.29289 57.7071C6.48043 57.8946 6.73478 58 7 58H15C15.2652 58 15.5196 57.8946 15.7071 57.7071C15.8946 57.5196 16 57.2652 16 57V49C16 48.7348 15.8946 48.4804 15.7071 48.2929C15.5196 48.1054 15.2652 48 15 48ZM14 56H8V50H14V56Z" fill="#0F5145"/>
<path d="M41 14H23C22.7348 14 22.4804 14.1054 22.2929 14.2929C22.1054 14.4804 22 14.7348 22 15C22 15.2652 22.1054 15.5196 22.2929 15.7071C22.4804 15.8946 22.7348 16 23 16H41C41.2652 16 41.5196 15.8946 41.7071 15.7071C41.8946 15.5196 42 15.2652 42 15C42 14.7348 41.8946 14.4804 41.7071 14.2929C41.5196 14.1054 41.2652 14 41 14Z" fill="#0F5145"/>
<path d="M41 18H19C18.7348 18 18.4804 18.1054 18.2929 18.2929C18.1054 18.4804 18 18.7348 18 19C18 19.2652 18.1054 19.5196 18.2929 19.7071C18.4804 19.8946 18.7348 20 19 20H41C41.2652 20 41.5196 19.8946 41.7071 19.7071C41.8946 19.5196 42 19.2652 42 19C42 18.7348 41.8946 18.4804 41.7071 18.2929C41.5196 18.1054 41.2652 18 41 18Z" fill="#0F5145"/>
<path d="M42 27C42 26.7348 41.8946 26.4804 41.7071 26.2929C41.5196 26.1054 41.2652 26 41 26H23C22.7348 26 22.4804 26.1054 22.2929 26.2929C22.1054 26.4804 22 26.7348 22 27C22 27.2652 22.1054 27.5196 22.2929 27.7071C22.4804 27.8946 22.7348 28 23 28H41C41.2652 28 41.5196 27.8946 41.7071 27.7071C41.8946 27.5196 42 27.2652 42 27Z" fill="#0F5145"/>
<path d="M34 31C34 30.7348 33.8946 30.4804 33.7071 30.2929C33.5196 30.1054 33.2652 30 33 30H19C18.7348 30 18.4804 30.1054 18.2929 30.2929C18.1054 30.4804 18 30.7348 18 31C18 31.2652 18.1054 31.5196 18.2929 31.7071C18.4804 31.8946 18.7348 32 19 32H33C33.2652 32 33.5196 31.8946 33.7071 31.7071C33.8946 31.5196 34 31.2652 34 31Z" fill="#0F5145"/>
<path d="M27 38H23C22.7348 38 22.4804 38.1054 22.2929 38.2929C22.1054 38.4804 22 38.7348 22 39C22 39.2652 22.1054 39.5196 22.2929 39.7071C22.4804 39.8946 22.7348 40 23 40H27C27.2652 40 27.5196 39.8946 27.7071 39.7071C27.8946 39.5196 28 39.2652 28 39C28 38.7348 27.8946 38.4804 27.7071 38.2929C27.5196 38.1054 27.2652 38 27 38Z" fill="#0F5145"/>
<path d="M26 42H19C18.7348 42 18.4804 42.1054 18.2929 42.2929C18.1054 42.4804 18 42.7348 18 43C18 43.2652 18.1054 43.5196 18.2929 43.7071C18.4804 43.8946 18.7348 44 19 44H26C26.2652 44 26.5196 43.8946 26.7071 43.7071C26.8946 43.5196 27 43.2652 27 43C27 42.7348 26.8946 42.4804 26.7071 42.2929C26.5196 42.1054 26.2652 42 26 42Z" fill="#0F5145"/>
<path d="M26 50H23C22.7348 50 22.4804 50.1054 22.2929 50.2929C22.1054 50.4804 22 50.7348 22 51C22 51.2652 22.1054 51.5196 22.2929 51.7071C22.4804 51.8946 22.7348 52 23 52H26C26.2652 52 26.5196 51.8946 26.7071 51.7071C26.8946 51.5196 27 51.2652 27 51C27 50.7348 26.8946 50.4804 26.7071 50.2929C26.5196 50.1054 26.2652 50 26 50Z" fill="#0F5145"/>
<path d="M19 56H28C28.2652 56 28.5196 55.8946 28.7071 55.7071C28.8946 55.5196 29 55.2652 29 55C29 54.7348 28.8946 54.4804 28.7071 54.2929C28.5196 54.1054 28.2652 54 28 54H19C18.7348 54 18.4804 54.1054 18.2929 54.2929C18.1054 54.4804 18 54.7348 18 55C18 55.2652 18.1054 55.5196 18.2929 55.7071C18.4804 55.8946 18.7348 56 19 56Z" fill="#0F5145"/>
<path d="M57.352 39.083C57.2315 39.1355 57.1226 39.2112 57.0314 39.3058C56.9402 39.4004 56.8686 39.512 56.8206 39.6343C56.7725 39.7566 56.7491 39.8872 56.7516 40.0186C56.7541 40.15 56.7824 40.2796 56.835 40.4C58.1368 43.387 58.3551 46.7348 57.4521 49.8656C56.5491 52.9964 54.5816 55.7138 51.889 57.5488C49.1964 59.3838 45.9477 60.2213 42.7035 59.9168C39.4594 59.6122 36.4233 58.1847 34.1193 55.8807C31.8152 53.5767 30.3878 50.5406 30.0832 47.2964C29.7787 44.0523 30.6162 40.8036 32.4512 38.111C34.2862 35.4184 37.0035 33.4508 40.1343 32.5479C43.2651 31.6449 46.6129 31.8632 49.6 33.165C49.7205 33.2183 49.8503 33.2473 49.982 33.2503C50.1138 33.2533 50.2448 33.2303 50.3676 33.1825C50.4904 33.1347 50.6025 33.0631 50.6975 32.9718C50.7926 32.8805 50.8686 32.7714 50.9213 32.6506C50.974 32.5298 51.0024 32.3998 51.0047 32.2681C51.007 32.1363 50.9832 32.0054 50.9348 31.8829C50.8863 31.7604 50.8141 31.6486 50.7224 31.5541C50.6306 31.4595 50.521 31.3841 50.4 31.332C46.9859 29.8438 43.1594 29.5941 39.5808 30.626C36.0023 31.6579 32.8962 33.9067 30.7987 36.9843C28.7013 40.0618 27.7439 43.7751 28.0919 47.4831C28.44 51.1912 30.0715 54.6614 32.705 57.2949C35.3386 59.9285 38.8088 61.56 42.5169 61.908C46.2249 62.2561 49.9382 61.2987 53.0157 59.2012C56.0933 57.1037 58.3421 53.9977 59.374 50.4191C60.4059 46.8406 60.1562 43.0141 58.668 39.6C58.562 39.3569 58.3638 39.166 58.117 39.069C57.8703 38.9721 57.5951 38.9771 57.352 39.083Z" fill="#0F5145"/>
<path d="M47.667 38.8881C47.7837 38.9484 47.9111 38.9851 48.042 38.9961C48.1728 39.0072 48.3046 38.9923 48.4297 38.9524C48.5548 38.9126 48.6709 38.8484 48.7712 38.7637C48.8716 38.679 48.9542 38.5753 49.0145 38.4586C49.0748 38.3419 49.1115 38.2145 49.1225 38.0837C49.1336 37.9528 49.1187 37.821 49.0788 37.6959C49.0389 37.5708 48.9748 37.4547 48.8901 37.3544C48.8053 37.2541 48.7017 37.1714 48.585 37.1111C46.6467 36.1111 44.4347 35.7722 42.286 36.1461C40.1372 36.5199 38.1696 37.586 36.683 39.1818C35.1963 40.7777 34.2722 42.8158 34.0514 44.9856C33.8306 47.1554 34.3252 49.3379 35.4598 51.2005C36.5945 53.0632 38.307 54.5038 40.3364 55.3028C42.3658 56.1018 44.6008 56.2155 46.7007 55.6265C48.8007 55.0374 50.6505 53.778 51.9683 52.0401C53.2861 50.3022 53.9995 48.1811 54 46.0001C54.0041 44.4577 53.648 42.9356 52.96 41.5551C52.9022 41.4365 52.8214 41.3306 52.7224 41.2433C52.6235 41.1561 52.5082 41.0893 52.3833 41.0468C52.2584 41.0043 52.1263 40.9869 51.9946 40.9957C51.863 41.0045 51.7344 41.0392 51.6162 41.098C51.498 41.1567 51.3927 41.2382 51.3062 41.3378C51.2196 41.4375 51.1537 41.5532 51.1121 41.6784C51.0706 41.8037 51.0542 41.9359 51.0639 42.0675C51.0737 42.199 51.1094 42.3274 51.169 42.4451C51.7189 43.5493 52.0034 44.7666 52 46.0001C52 47.5824 51.5308 49.1291 50.6518 50.4447C49.7727 51.7603 48.5233 52.7857 47.0615 53.3912C45.5997 53.9967 43.9911 54.1551 42.4393 53.8464C40.8874 53.5377 39.462 52.7758 38.3431 51.657C37.2243 50.5381 36.4624 49.1127 36.1537 47.5608C35.845 46.009 36.0035 44.4005 36.609 42.9386C37.2145 41.4768 38.2398 40.2274 39.5554 39.3484C40.871 38.4693 42.4177 38.0001 44 38.0001C45.2761 37.9961 46.5341 38.3008 47.667 38.8881Z" fill="#0F5145"/>
<path d="M43.333 44.114C43.5831 44.0256 43.7879 43.8416 43.9023 43.6023C44.0167 43.363 44.0313 43.0881 43.943 42.838C43.8547 42.5879 43.6706 42.3831 43.4313 42.2687C43.192 42.1543 42.9171 42.1397 42.667 42.228C42.0289 42.4522 41.4581 42.8346 41.008 43.3394C40.5578 43.8441 40.243 44.4548 40.093 45.1143C39.9429 45.7738 39.9625 46.4605 40.15 47.1103C40.3374 47.7602 40.6866 48.3519 41.1648 48.8301C41.6431 49.3084 42.2348 49.6575 42.8846 49.845C43.5345 50.0324 44.2212 50.0521 44.8807 49.902C45.5402 49.752 46.1508 49.4371 46.6556 48.987C47.1604 48.5368 47.5427 47.966 47.767 47.328C47.8553 47.0779 47.8407 46.8029 47.7263 46.5636C47.6119 46.3243 47.4071 46.1403 47.157 46.052C46.9069 45.9636 46.632 45.9783 46.3927 46.0927C46.1534 46.2071 45.9693 46.4119 45.881 46.662C45.7682 46.9803 45.5767 47.265 45.3242 47.4893C45.0717 47.7136 44.7665 47.8704 44.4371 47.9449C44.1077 48.0194 43.7647 48.0093 43.4403 47.9155C43.1158 47.8217 42.8204 47.6472 42.5816 47.4084C42.3427 47.1696 42.1683 46.8742 42.0745 46.5497C41.9807 46.2252 41.9705 45.8823 42.0451 45.5529C42.1196 45.2235 42.2763 44.9183 42.5007 44.6658C42.725 44.4133 43.0096 44.2217 43.328 44.109L43.333 44.114Z" fill="#0F5145"/>
<path d="M61.924 32.6168C61.8483 32.4341 61.72 32.278 61.5556 32.1682C61.3911 32.0583 61.1978 31.9997 61 31.9998H58V28.9998C58 28.802 57.9413 28.6087 57.8314 28.4443C57.7215 28.2799 57.5654 28.1518 57.3827 28.0761C57.2 28.0004 56.9989 27.9806 56.805 28.0192C56.611 28.0578 56.4329 28.153 56.293 28.2928L52.293 32.2928C52.1055 32.4803 52.0001 32.7346 52 32.9998V36.5858L43.293 45.2928C43.1975 45.385 43.1213 45.4954 43.0689 45.6174C43.0165 45.7394 42.9889 45.8706 42.9878 46.0034C42.9866 46.1362 43.0119 46.2678 43.0622 46.3907C43.1125 46.5136 43.1867 46.6253 43.2806 46.7192C43.3745 46.8131 43.4862 46.8873 43.6091 46.9376C43.7319 46.9879 43.8636 47.0132 43.9964 47.012C44.1292 47.0109 44.2604 46.9833 44.3824 46.9309C44.5044 46.8785 44.6148 46.8023 44.707 46.7068L53.414 37.9998H57C57.2652 37.9997 57.5195 37.8943 57.707 37.7068L61.707 33.7068C61.8469 33.5669 61.9422 33.3887 61.9809 33.1947C62.0195 33.0007 61.9997 32.7996 61.924 32.6168ZM54 33.4168L56 31.4168V32.5888L54 34.5888V33.4168ZM56.586 35.9998H55.414L57.414 33.9998H58.586L56.586 35.9998Z" fill="#0F5145"/>
</svg>
