<svg width="64" height="64" viewBox="0 0 64 64" fill="none" xmlns="http://www.w3.org/2000/svg">
<g clip-path="url(#clip0_112_622)">
<path d="M61.2579 52.4832C61.1566 51.9702 60.911 51.4924 60.5614 51.1044L45.6406 34.547C44.4368 33.2114 42.2713 33.2221 41.0807 34.5699L34.4219 42.1091V4.385C34.4219 1.96713 32.4549 0 30.037 0H7.0735C4.65563 0 2.68863 1.96713 2.68863 4.385V4.8745C2.68863 5.56487 3.24838 6.1245 3.93863 6.1245C4.62888 6.1245 5.18863 5.56487 5.18863 4.8745V4.385C5.18863 3.34563 6.03425 2.5 7.0735 2.5H13.2326L15.2741 5.68738C15.9336 6.71712 17.0193 7.332 18.1779 7.332C19.3365 7.332 20.422 6.71725 21.0815 5.68738L23.1233 2.5H30.0369C31.0761 2.5 31.9218 3.34563 31.9218 4.385V44.9396L26.4578 51.1259C25.8824 51.7771 25.6389 52.6134 25.7565 53.4357H7.0735C6.03425 53.4357 5.18863 52.5907 5.18863 51.5521V15.831C5.18863 15.1406 4.62888 14.581 3.93863 14.581C3.24838 14.581 2.68863 15.1406 2.68863 15.831V51.552C2.68863 53.9691 4.65563 55.9356 7.0735 55.9356H31.9221V62.75C31.9221 63.4404 32.4819 64 33.1721 64H42.9625C43.6631 64 44.2408 63.3979 44.2114 62.6974C44.1781 61.95 43.5003 61.3753 42.7534 61.5H34.4221V54.6856C34.4221 53.9952 33.8624 53.4356 33.1721 53.4356H28.6266C28.2911 53.4356 28.1084 53.0334 28.3315 52.7809L42.9544 36.225C43.1718 35.979 43.5638 35.9769 43.7836 36.2207L58.7043 52.778C58.9309 53.0295 58.7489 53.4357 58.4115 53.4357H54.0384C53.3481 53.4357 52.7884 53.9954 52.7884 54.6857V62.75C52.7884 63.4404 53.3481 64 54.0384 64C54.7286 64 55.2884 63.4404 55.2884 62.75V55.9356H58.4115C60.2022 55.9356 61.6066 54.2513 61.2579 52.4832ZM18.9765 4.33887C18.7729 4.65675 18.4894 4.83187 18.178 4.83187C17.8666 4.83187 17.583 4.65687 17.3794 4.33887L16.2018 2.50038H20.154L18.9765 4.33887Z" fill="#0F5145"/>
<path d="M16.6845 18.5028C13.71 20.1233 11.0728 20.6734 11.0129 20.6857C10.3361 20.8207 9.89675 21.4784 10.0314 22.1553C10.1641 22.8233 10.8329 23.2704 11.5011 23.1376C11.6218 23.1136 14.4925 22.5298 17.8089 20.7369C21.2928 18.8537 23.97 16.3253 25.6784 13.3318L26.1474 14.3727C26.4271 14.9936 27.179 15.2788 27.8005 14.9988C28.43 14.7152 28.7103 13.9751 28.4268 13.3457L26.8335 9.80944C26.5978 9.28506 26.0134 8.98556 25.4506 9.09681L21.947 9.79219C21.2698 9.92656 20.8298 10.5844 20.9643 11.2616C21.0986 11.9388 21.758 12.3788 22.4336 12.2443L23.5531 12.0222C22.0956 14.6344 19.7946 16.8084 16.6845 18.5028Z" fill="#0F5145"/>
<path d="M8.76788 34.2382C8.76788 34.9286 9.32763 35.4882 10.0179 35.4882H27.1624C27.8526 35.4882 28.4124 34.9286 28.4124 34.2382C28.4124 33.5478 27.8526 32.9882 27.1624 32.9882H25.5489V21.5171C25.5489 20.8267 24.9891 20.2671 24.2989 20.2671C23.6086 20.2671 23.0489 20.8267 23.0489 21.5171V32.9882H19.7156V25.1566C19.7156 24.4662 19.1559 23.9066 18.4656 23.9066C17.7754 23.9066 17.2156 24.4662 17.2156 25.1566V32.9882H14.0561V27.1245C14.0561 26.4341 13.4964 25.8745 12.8061 25.8745C12.1159 25.8745 11.5561 26.4341 11.5561 27.1245V32.9882H10.0179C9.32751 32.9882 8.76788 33.5478 8.76788 34.2382Z" fill="#0F5145"/>
<path d="M4.27287 11.3857C4.798 11.2395 5.17462 10.7574 5.18912 10.212C5.21875 9.09878 3.807 8.50953 3.036 9.31728C2.634 9.73853 2.58162 10.3907 2.89987 10.8763C3.19537 11.3202 3.76025 11.5284 4.27287 11.3857Z" fill="#0F5145"/>
<path d="M12.0011 47.3762H25.0119C27.3629 47.3762 29.2755 45.4636 29.2755 43.1126C29.2755 40.7616 27.3628 38.8491 25.0119 38.8491H12.0011C9.65013 38.8491 7.73763 40.7617 7.73763 43.1126C7.73763 45.4635 9.65013 47.3762 12.0011 47.3762ZM12.0011 41.3491H25.0119C25.9844 41.3491 26.7755 42.1402 26.7755 43.1126C26.7755 44.0851 25.9844 44.8762 25.0119 44.8762H12.0011C11.0288 44.8762 10.2376 44.0851 10.2376 43.1126C10.2376 42.1402 11.0288 41.3491 12.0011 41.3491Z" fill="#0F5145"/>
<path d="M49.2638 61.7114C48.3203 61.0827 47.0633 61.9937 47.3668 63.0832C47.5099 63.5971 47.9753 63.9709 48.5089 63.9986C49.0399 64.0261 49.5465 63.6951 49.7358 63.1992C49.9403 62.6631 49.7476 62.0282 49.2638 61.7114Z" fill="#0F5145"/>
<path d="M47.8886 53.9221C48.2221 51.9388 47.1863 50.2149 45.2496 49.5304C45.0528 49.4608 44.852 49.3886 44.6513 49.3138V45.7749C44.8034 45.8293 44.9509 45.8978 45.0898 45.9806C45.3628 46.1432 45.5868 46.3108 45.9095 46.3583C46.2575 46.4094 46.5868 46.2914 46.8139 46.0198C47.4469 45.2623 46.7523 44.5707 46.7523 44.5707C46.704 44.5262 45.9273 43.8262 44.6513 43.5803V42.9502C44.6513 42.3634 44.1755 41.8877 43.5888 41.8877C43.002 41.8877 42.5263 42.3634 42.5263 42.9502V43.6547C42.4518 43.6737 42.3768 43.6941 42.3008 43.7171C41.0161 44.1039 40.0568 45.2008 39.797 46.5796C39.5588 47.8438 39.9685 49.0668 40.8666 49.7712C41.2965 50.1084 41.8213 50.4174 42.5263 50.7393V55.4077C42.0118 55.3394 41.6275 55.1709 41.0248 54.7767C40.5336 54.4556 39.8751 54.5933 39.5539 55.0842C39.2326 55.5753 39.3703 56.2338 39.8614 56.5551C40.9034 57.2367 41.6359 57.4716 42.5261 57.5451V58.2513C42.5261 58.8381 43.0019 59.3138 43.5886 59.3138C44.1754 59.3138 44.6511 58.8381 44.6511 58.2513V57.4447C46.4676 56.9944 47.6321 55.4474 47.8886 53.9221ZM42.178 48.0992C41.9106 47.8894 41.7956 47.4476 41.885 46.9731C41.9525 46.6151 42.1548 46.1996 42.5261 45.9399V48.3402C42.4001 48.2614 42.2826 48.1812 42.178 48.0992ZM45.793 53.5698C45.6895 54.1851 45.3025 54.8341 44.6511 55.1857V51.5757C45.8971 52.0751 45.8669 53.1302 45.793 53.5698Z" fill="#0F5145"/>
</g>
<defs>
<clipPath id="clip0_112_622">
<rect width="64" height="64" fill="white"/>
</clipPath>
</defs>
</svg>
