<svg width="64" height="64" viewBox="0 0 64 64" fill="none" xmlns="http://www.w3.org/2000/svg">
<g clip-path="url(#clip0_112_591)">
<path d="M32 0C14.3552 0 0 14.3563 0 32.0011C0 49.6459 14.3552 64.0011 32 64.0011C49.6448 64.0011 64 49.6459 64 32.0011C64 14.3563 49.6448 0 32 0ZM61.84 30.9333H33.0667V2.16107C48.688 2.7136 61.2875 15.312 61.84 30.9333ZM13.2416 33.0667H19.8251L6.08107 46.8107C5.26293 45.3856 4.55467 43.8901 3.9776 42.3307L13.2416 33.0667ZM3.24373 40.048C2.6176 37.8144 2.24533 35.4773 2.16 33.0667H10.2251L3.24373 40.048ZM22.8416 33.0667H29.4251L10.1547 52.3371C9.09013 51.1947 8.10987 49.9733 7.23307 48.6752L22.8416 33.0667ZM30.9333 34.5749V41.1584L15.3248 56.7669C14.0267 55.8901 12.8053 54.9099 11.6629 53.8453L30.9333 34.5749ZM30.9333 44.1749V50.7584L21.6693 60.0224C20.1099 59.4453 18.6144 58.736 17.1893 57.9189L30.9333 44.1749ZM30.9333 53.7749V61.84C28.5227 61.7547 26.1856 61.3824 23.952 60.7563L30.9333 53.7749ZM30.9333 2.16V30.9333H2.16107C2.71253 15.3131 15.3131 2.71253 30.9333 2.16ZM33.0667 61.8389V33.0656H61.84C61.2875 48.6869 48.688 61.2864 33.0667 61.8389Z" fill="#0F5145"/>
<path d="M7.46666 28.8011H9.6C10.7765 28.8011 11.7333 27.8443 11.7333 26.6678V23.4678C11.7333 22.2913 10.7765 21.3345 9.6 21.3345H7.46666C6.29013 21.3345 5.33333 22.2913 5.33333 23.4678V26.6678C5.33333 27.8443 6.29013 28.8011 7.46666 28.8011ZM7.46666 23.4678H9.6L9.60213 26.6678H7.46666V23.4678Z" fill="#0F5145"/>
<path d="M16 28.801H18.1333C19.3099 28.801 20.2667 27.8442 20.2667 26.6676V18.1343C20.2667 16.9578 19.3099 16.001 18.1333 16.001H16C14.8235 16.001 13.8667 16.9578 13.8667 18.1343V26.6676C13.8667 27.8442 14.8235 28.801 16 28.801ZM16 18.1343H18.1333L18.1355 26.6676H16V18.1343Z" fill="#0F5145"/>
<path d="M24.5333 28.8011H26.6667C27.8432 28.8011 28.8 27.8443 28.8 26.6677V11.7344C28.8 10.5579 27.8432 9.60107 26.6667 9.60107H24.5333C23.3568 9.60107 22.4 10.5579 22.4 11.7344V26.6677C22.4 27.8443 23.3568 28.8011 24.5333 28.8011ZM24.5333 11.7344H26.6667L26.6688 26.6677H24.5333V11.7344Z" fill="#0F5145"/>
<path d="M35.5125 27.4218C35.7205 27.6298 35.9936 27.7343 36.2667 27.7343C36.5397 27.7343 36.8128 27.6298 37.0208 27.4218L42.6667 21.7759L46.1792 25.2884C46.5963 25.7055 47.2704 25.7055 47.6875 25.2884L53.3333 19.6426V22.401C53.3333 22.9908 53.8101 23.4676 54.4 23.4676C54.9899 23.4676 55.4667 22.9908 55.4667 22.401V17.0676C55.4667 16.4778 54.9899 16.001 54.4 16.001H49.0667C48.4768 16.001 48 16.4778 48 17.0676C48 17.6575 48.4768 18.1343 49.0667 18.1343H51.8251L46.9333 23.026L43.4208 19.5135C43.0037 19.0964 42.3296 19.0964 41.9125 19.5135L35.5125 25.9135C35.0955 26.3306 35.0955 27.0047 35.5125 27.4218Z" fill="#0F5145"/>
<path d="M47.0123 43.1627C47.232 43.7089 47.8549 43.9713 48.4021 43.7505C48.9483 43.5286 49.2107 42.9067 48.9899 42.3606C48.3723 40.8374 46.8096 39.8134 44.8011 39.5446V38.4011C44.8011 37.8113 44.3243 37.3345 43.7344 37.3345C43.1445 37.3345 42.6677 37.8113 42.6677 38.4011V39.5414C40.2048 39.8785 38.4011 41.3643 38.4011 43.2011C38.4011 45.727 40.6485 46.4139 42.6677 46.7734V50.0342C41.5765 49.8262 40.7509 49.2993 40.4565 48.5729C40.2357 48.0267 39.6107 47.7633 39.0667 47.9851C38.5205 48.207 38.2581 48.8289 38.4789 49.375C39.0965 50.8982 40.6592 51.9222 42.6677 52.191V53.3345C42.6677 53.9243 43.1445 54.4011 43.7344 54.4011C44.3243 54.4011 44.8011 53.9243 44.8011 53.3345V52.1942C47.264 51.8571 49.0677 50.3713 49.0677 48.5345C49.0677 46.0086 46.8203 45.3217 44.8011 44.9622V41.7014C45.8923 41.9094 46.7179 42.4363 47.0123 43.1627ZM40.5344 43.2011C40.5344 42.6166 41.4133 41.9638 42.6677 41.7131V44.5963C41.1296 44.2881 40.5344 43.9489 40.5344 43.2011ZM46.9344 48.5345C46.9344 49.119 46.0555 49.7718 44.8011 50.0225V47.1393C46.3392 47.4475 46.9344 47.7867 46.9344 48.5345Z" fill="#0F5145"/>
</g>
<defs>
<clipPath id="clip0_112_591">
<rect width="64" height="64" fill="white"/>
</clipPath>
</defs>
</svg>
