<svg width="68" height="66" viewBox="0 0 68 66" fill="none" xmlns="http://www.w3.org/2000/svg">
<path d="M12.8437 2H9.19078C5.21937 2 2 5.00758 2 8.71772V34.1638C2 37.8739 5.21937 40.8815 9.19078 40.8815H13.91" stroke="#0F5145" stroke-width="3" stroke-miterlimit="10" stroke-linecap="round" stroke-linejoin="round"/>
<path d="M54.09 40.8815H58.8092C62.7806 40.8815 66 37.8739 66 34.1638V8.71772C66 5.00758 62.7806 2 58.8092 2H17.485" stroke="#0F5145" stroke-width="3" stroke-miterlimit="10" stroke-linecap="round" stroke-linejoin="round"/>
<path d="M14.2825 31.2769H2" stroke="#0F5145" stroke-width="3" stroke-miterlimit="10" stroke-linecap="round" stroke-linejoin="round"/>
<path d="M66 31.2769H53.7175" stroke="#0F5145" stroke-width="3" stroke-miterlimit="10" stroke-linecap="round" stroke-linejoin="round"/>
<path d="M34 55.9688C45.3589 55.9688 54.5672 47.3663 54.5672 36.7546C54.5672 26.143 45.3589 17.5405 34 17.5405C22.6411 17.5405 13.4329 26.143 13.4329 36.7546C13.4329 47.3663 22.6411 55.9688 34 55.9688Z" stroke="#0F5145" stroke-width="3" stroke-miterlimit="10" stroke-linecap="round" stroke-linejoin="round"/>
<path d="M33.9999 49.6444C41.6199 49.6444 47.7972 43.8736 47.7972 36.7548C47.7972 29.6361 41.6199 23.8652 33.9999 23.8652C26.3799 23.8652 20.2026 29.6361 20.2026 36.7548C20.2026 43.8736 26.3799 49.6444 33.9999 49.6444Z" stroke="#0F5145" stroke-width="3" stroke-miterlimit="10" stroke-linecap="round" stroke-linejoin="round"/>
<path d="M56.1061 50.3754L51.813 46.3647" stroke="#0F5145" stroke-width="3" stroke-miterlimit="10" stroke-linecap="round" stroke-linejoin="round"/>
<path d="M44.2866 53.396L53.6196 62.115C55.698 64.0566 59.0677 64.0566 61.1461 62.115C63.2245 60.1733 63.2245 57.0252 61.1461 55.0836L59.3881 53.4412" stroke="#0F5145" stroke-width="3" stroke-miterlimit="10" stroke-linecap="round" stroke-linejoin="round"/>
<path d="M22.2848 52.5474H14.8979C12.4145 52.5474 10.4014 54.4281 10.4014 56.7481C10.4014 59.0681 12.4145 60.9488 14.8979 60.9488H52.3717" stroke="#0F5145" stroke-width="3" stroke-miterlimit="10" stroke-linecap="round" stroke-linejoin="round"/>
<path fill-rule="evenodd" clip-rule="evenodd" d="M35.3232 43.3675C35.2037 43.3685 35.0853 43.3452 34.9758 43.2992C34.8663 43.2531 34.7681 43.1852 34.6878 43.1L29.8164 38.0059C29.7343 37.9288 29.6691 37.8367 29.6246 37.735C29.5801 37.6333 29.5571 37.524 29.5571 37.4137C29.5571 37.3033 29.5801 37.1941 29.6246 37.0924C29.6691 36.9907 29.7343 36.8986 29.8164 36.8215C29.9782 36.6762 30.1907 36.5945 30.4121 36.5922H32.8875C33.299 36.5942 33.7021 36.4808 34.0477 36.266C34.3933 36.0511 34.6663 35.7441 34.8334 35.3824H31.2593C31.144 35.3824 31.0299 35.3602 30.9238 35.317C30.8176 35.2738 30.7215 35.2106 30.6413 35.131C30.561 35.0514 30.4982 34.9571 30.4566 34.8537C30.4149 34.7503 30.3953 34.6399 30.3988 34.5291C30.4085 34.3126 30.5023 34.1074 30.6616 33.9542C30.8209 33.8009 31.0342 33.7107 31.2593 33.7013H34.807C34.6314 33.355 34.3586 33.0628 34.0194 32.858C33.6801 32.6532 33.288 32.5439 32.8875 32.5424H30.4518C30.22 32.5424 29.9978 32.4538 29.834 32.2962C29.6701 32.1386 29.5781 31.9248 29.5781 31.7019C29.5781 31.4789 29.6701 31.2651 29.834 31.1075C29.9978 30.9499 30.22 30.8613 30.4518 30.8613H38.0634C38.2952 30.8613 38.5174 30.9499 38.6812 31.1075C38.8451 31.2651 38.9371 31.4789 38.9371 31.7019C38.9371 31.9248 38.8451 32.1386 38.6812 32.2962C38.5174 32.4538 38.2952 32.5424 38.0634 32.5424H36.1043C36.3561 32.9065 36.5357 33.3124 36.6338 33.7395H38.0634C38.1793 33.7412 38.2937 33.765 38.3999 33.8095C38.5062 33.8541 38.6021 33.9186 38.6822 33.9992C38.7623 34.0798 38.8249 34.1749 38.8664 34.279C38.9079 34.3831 38.9274 34.4941 38.9239 34.6055C38.9204 34.8229 38.8282 35.0302 38.6672 35.1826C38.5063 35.3351 38.2894 35.4206 38.0634 35.4206H36.647C36.4382 36.2343 35.957 36.9593 35.2777 37.4841C34.5983 38.0088 33.7584 38.304 32.8875 38.3243H32.4904L35.9984 41.9538C36.1617 42.1134 36.2532 42.3284 36.2532 42.5524C36.2532 42.7764 36.1617 42.9913 35.9984 43.151C35.8115 43.3055 35.5691 43.3832 35.3232 43.3675Z" fill="#0F5145"/>
</svg>
