<svg width="64" height="64" viewBox="0 0 64 64" fill="none" xmlns="http://www.w3.org/2000/svg">
<path d="M63.9999 41.9851C64.0014 43.8632 63.5233 45.7106 62.611 47.3523C61.6988 48.9939 60.3825 50.3755 58.787 51.3662C57.1914 52.3569 55.3693 52.9238 53.4933 53.0133C51.6174 53.1028 49.7496 52.7119 48.067 51.8777C46.3843 51.0434 44.9425 49.7934 43.8781 48.246C42.8137 46.6987 42.1619 44.9052 41.9845 43.0355C41.8071 41.1658 42.11 39.2818 42.8644 37.5618C43.6188 35.8419 44.7998 34.3431 46.2956 33.2073L50.3206 23.7624C49.5486 23.0922 49.0349 22.1735 48.8682 21.1649L43.9904 18.7936C43.3517 20.7564 42.2426 22.5331 40.7597 23.9689C39.2769 25.4047 37.4654 26.456 35.4831 27.0311V50.9328C37.8848 51.5199 40.0974 52.7091 41.9123 54.3882C43.7272 56.0672 45.0846 58.1809 45.8564 60.5298C45.8999 60.6612 45.9115 60.8012 45.8903 60.938C45.8691 61.0748 45.8157 61.2047 45.7346 61.3169C45.6534 61.4291 45.5468 61.5204 45.4235 61.5834C45.3002 61.6464 45.1637 61.6792 45.0252 61.6791H18.9749C18.8365 61.6792 18.7 61.6464 18.5766 61.5834C18.4533 61.5204 18.3467 61.4291 18.2656 61.3169C18.1844 61.2047 18.1311 61.0748 18.1099 60.938C18.0887 60.8012 18.1003 60.6612 18.1437 60.5298C18.9154 58.1814 20.2723 56.0683 22.0865 54.3894C23.9007 52.7105 26.1126 51.5212 28.5136 50.9336V27.0301C26.5318 26.4545 24.7209 25.4031 23.2387 23.9673C21.7564 22.5315 20.6477 20.755 20.0093 18.7926L15.6293 20.9238C15.5618 21.5433 15.3631 22.1413 15.0467 22.6782C14.7302 23.2151 14.3031 23.6784 13.7937 24.0375L17.7073 33.2115C19.5452 34.6091 20.8981 36.5483 21.5754 38.7556C22.2528 40.9629 22.2204 43.3271 21.4828 45.5151C20.7452 47.703 19.3397 49.6043 17.4642 50.9511C15.5887 52.2978 13.3379 53.0221 11.029 53.0218C8.72012 53.0215 6.4695 52.2967 4.59437 50.9495C2.71924 49.6023 1.31414 47.7007 0.577092 45.5125C-0.159953 43.3244 -0.191779 40.9602 0.486099 38.753C1.16398 36.5459 2.51738 34.6071 4.35557 33.2099L8.38432 23.7639C7.56587 23.0536 7.03905 22.0658 6.90528 20.9904C6.77151 19.915 7.04023 18.8282 7.65973 17.9391C8.27923 17.05 9.20572 16.4214 10.2608 16.1744C11.316 15.9274 12.4252 16.0795 13.3749 16.6013L19.4639 13.6401C19.7813 10.5362 21.2389 7.66035 23.5547 5.56932C25.8705 3.47829 28.8797 2.32078 31.9998 2.32086C35.1199 2.32094 38.1291 3.4786 40.4447 5.56974C42.7604 7.66088 44.2179 10.5368 44.5351 13.6408L50.8754 16.727C51.8447 16.1206 53.0124 15.9163 54.13 16.1576C55.2476 16.3989 56.227 17.0668 56.8597 18.0191C57.4925 18.9714 57.7286 20.1331 57.518 21.2569C57.3073 22.3807 56.6665 23.378 55.7318 24.0365L59.6443 33.2095C60.9979 34.2373 62.0955 35.5642 62.8511 37.0866C63.6067 38.609 63.9999 40.2855 63.9999 41.9851ZM11.0303 32.7051C9.19438 32.7048 7.39956 33.2489 5.87288 34.2686C4.3462 35.2884 3.15622 36.738 2.45347 38.4341C1.75071 40.1302 1.56674 41.9967 1.92483 43.7973C2.28291 45.598 3.16696 47.2521 4.46517 48.5503C5.76337 49.8485 7.41742 50.7325 9.2181 51.0906C11.0188 51.4487 12.8852 51.2647 14.5813 50.562C16.2774 49.8592 17.7271 48.6692 18.7468 47.1426C19.7666 45.6159 20.3107 43.8211 20.3103 41.9851C20.3076 39.5248 19.329 37.166 17.5892 35.4262C15.8495 33.6865 13.4907 32.7079 11.0303 32.7051ZM12.1916 24.7426C11.4369 24.9062 10.6524 24.8674 9.91757 24.6301L6.87319 31.7676C9.53882 30.6818 12.5234 30.6818 15.1891 31.7676L12.1916 24.7426ZM13.9041 20.4519C13.9044 19.9293 13.7498 19.4183 13.4597 18.9836C13.1695 18.5489 12.757 18.21 12.2742 18.0098C11.7915 17.8097 11.2602 17.7572 10.7476 17.859C10.235 17.9609 9.76413 18.2125 9.39458 18.582C9.02502 18.9516 8.77338 19.4224 8.6715 19.935C8.56962 20.4476 8.62207 20.9789 8.82222 21.4617C9.02238 21.9445 9.36123 22.357 9.79591 22.6472C10.2306 22.9373 10.7416 23.092 11.2642 23.0916C11.9639 23.0904 12.6345 22.812 13.1293 22.3173C13.6241 21.8226 13.9027 21.1516 13.9041 20.4519ZM19.5811 17.0536C19.4991 16.5754 19.4449 16.0929 19.4186 15.6084L14.8017 17.8536C15.0743 18.2244 15.2868 18.6357 15.4316 19.0725L19.5811 17.0536ZM31.9999 52.2645C29.5077 52.2606 27.0685 52.9836 24.9809 54.3448C22.8933 55.7061 21.2479 57.6465 20.2463 59.9286H43.7534C42.7519 57.6465 41.1066 55.706 39.019 54.3448C36.9314 52.9835 34.4921 52.2606 31.9999 52.2645ZM33.7324 27.402C32.5817 27.5619 31.4144 27.5619 30.2637 27.402V50.6166C31.4159 50.48 32.5802 50.48 33.7324 50.6166V27.402ZM42.5713 17.3684C42.5743 17.3539 42.5771 17.3393 42.5808 17.3248C43.0555 15.2339 42.9001 13.0493 42.1342 11.0467C41.3684 9.04408 40.0263 7.31329 38.2775 6.07281C36.5288 4.83233 34.4517 4.13778 32.3085 4.07684C30.1653 4.0159 28.0521 4.59131 26.2357 5.73042C24.4192 6.86953 22.981 8.52127 22.1026 10.4771C21.2241 12.433 20.9448 14.6052 21.3 16.7197C21.6551 18.8341 22.6288 20.7959 24.098 22.3575C25.5672 23.919 27.4662 25.0102 29.5551 25.4934C29.5639 25.495 29.5726 25.4971 29.5812 25.499C31.1652 25.8601 32.8099 25.8618 34.3947 25.5043C34.4134 25.4996 34.4322 25.4953 34.4514 25.4918C36.4276 25.0292 38.2351 24.0234 39.6699 22.5879C41.1047 21.1524 42.1097 19.3448 42.5713 17.3684ZM49.5427 18.0253L44.5809 15.61C44.5548 16.0947 44.5005 16.5774 44.4184 17.0558L48.9724 19.2696C49.0961 18.8274 49.2885 18.4076 49.5427 18.0253ZM50.5599 20.4526C50.5604 20.975 50.7157 21.4856 51.0063 21.9197C51.2968 22.3539 51.7096 22.6921 52.1924 22.8917C52.6752 23.0912 53.2063 23.1432 53.7186 23.0409C54.2309 22.9386 54.7014 22.6867 55.0705 22.317C55.4397 21.9474 55.6909 21.4766 55.7925 20.9641C55.8941 20.4517 55.8415 19.9206 55.6412 19.4381C55.441 18.9556 55.1022 18.5433 54.6677 18.2533C54.2331 17.9633 53.7224 17.8087 53.1999 17.809C52.4994 17.8098 51.8279 18.0886 51.3329 18.5842C50.8378 19.0799 50.5598 19.7521 50.5599 20.4526ZM48.8117 31.7688C51.4772 30.6835 54.4613 30.6835 57.1268 31.7688L54.1303 24.7425C53.3748 24.9066 52.5893 24.8678 51.8536 24.63L48.8117 31.7688ZM62.2499 41.9851C62.2496 40.1493 61.7049 38.3549 60.6847 36.8287C59.6645 35.3025 58.2146 34.1131 56.5184 33.4109C54.8223 32.7087 52.9559 32.5252 51.1555 32.8837C49.3551 33.2422 47.7014 34.1265 46.4035 35.4249C45.1057 36.7232 44.222 38.3773 43.8642 40.1779C43.5064 41.9784 43.6906 43.8447 44.3934 45.5406C45.0963 47.2365 46.2863 48.6859 47.8129 49.7055C49.3395 50.7251 51.1342 51.2691 52.9699 51.2687C55.4309 51.266 57.7903 50.2869 59.5301 48.5463C61.2699 46.8058 62.2481 44.4461 62.2499 41.9851ZM28.4742 14.6481V20.0875C28.4742 20.3196 28.382 20.5421 28.2179 20.7062C28.0538 20.8703 27.8313 20.9625 27.5992 20.9625H24.4492C24.2171 20.9625 23.9946 20.8703 23.8305 20.7062C23.6664 20.5421 23.5742 20.3196 23.5742 20.0875V14.6481C23.5742 14.4161 23.6664 14.1935 23.8305 14.0294C23.9946 13.8653 24.2171 13.7731 24.4492 13.7731H27.5992C27.8313 13.7731 28.0538 13.8653 28.2179 14.0294C28.382 14.1935 28.4742 14.4161 28.4742 14.6481ZM26.7242 15.5231H25.3249V19.2125H26.7249L26.7242 15.5231ZM40.4261 12.4761V20.0875C40.4261 20.3196 40.3339 20.5421 40.1698 20.7062C40.0057 20.8703 39.7831 20.9625 39.5511 20.9625H36.3972C36.1651 20.9625 35.9426 20.8703 35.7785 20.7062C35.6144 20.5421 35.5222 20.3196 35.5222 20.0875V12.4761C35.5222 12.2441 35.6144 12.0215 35.7785 11.8574C35.9426 11.6933 36.1651 11.6011 36.3972 11.6011H39.5508C39.6657 11.6011 39.7796 11.6237 39.8857 11.6677C39.9919 11.7116 40.0884 11.7761 40.1697 11.8573C40.251 11.9386 40.3155 12.035 40.3594 12.1412C40.4034 12.2474 40.4261 12.3612 40.4261 12.4761ZM38.6761 13.3511H37.2724V19.2125H38.6749L38.6761 13.3511ZM34.4524 9.75113V20.0875C34.4524 20.3196 34.3603 20.5421 34.1962 20.7062C34.0321 20.8703 33.8095 20.9625 33.5774 20.9625H30.4232C30.1911 20.9625 29.9686 20.8703 29.8045 20.7062C29.6404 20.5421 29.5482 20.3196 29.5482 20.0875V9.75125C29.5482 9.51919 29.6404 9.29663 29.8045 9.13253C29.9686 8.96844 30.1911 8.87625 30.4232 8.87625H33.5767C33.6916 8.87622 33.8054 8.89883 33.9116 8.94279C34.0178 8.98674 34.1143 9.05119 34.1956 9.13245C34.2768 9.2137 34.3413 9.31017 34.3853 9.41635C34.4293 9.52252 34.4524 9.6362 34.4524 9.75113ZM32.7024 10.6261H31.2984V19.2125H32.7014L32.7024 10.6261Z" fill="white"/>
<path d="M11.9735 47.9909C11.8699 47.9903 11.7675 47.9688 11.6727 47.9278C11.5779 47.8867 11.4927 47.827 11.4224 47.7523L7.21904 43.3119C7.07872 43.1728 7 42.9849 7 42.789C7 42.5932 7.07872 42.4052 7.21904 42.2661C7.35575 42.1406 7.53636 42.0716 7.72344 42.0734H9.80642C10.1574 42.0673 10.4995 41.9643 10.7935 41.7761C11.0876 41.5879 11.3217 41.3221 11.4691 41.0092H8.4707C8.28572 40.9889 8.11484 40.9024 7.99074 40.7661C7.86664 40.6299 7.79804 40.4535 7.79804 40.2707C7.79804 40.0878 7.86664 39.9114 7.99074 39.7752C8.11484 39.6389 8.28572 39.5524 8.4707 39.5321H11.5158C11.3671 39.2209 11.1324 38.9571 10.8384 38.7705C10.5445 38.584 10.2031 38.4823 9.85313 38.4771H7.77014C7.58516 38.4568 7.41429 38.3702 7.29019 38.234C7.16609 38.0977 7.09748 37.9213 7.09748 37.7385C7.09748 37.5557 7.16609 37.3793 7.29019 37.2431C7.41429 37.1068 7.58516 37.0203 7.77014 37H14.3087C14.4936 37.0203 14.6645 37.1068 14.7886 37.2431C14.9127 37.3793 14.9813 37.5557 14.9813 37.7385C14.9813 37.9213 14.9127 38.0977 14.7886 38.234C14.6645 38.3702 14.4936 38.4568 14.3087 38.4771H12.6367C12.8534 38.7984 13.0085 39.156 13.0944 39.5321H14.3273C14.5123 39.5524 14.6832 39.6389 14.8073 39.7752C14.9314 39.9114 15 40.0878 15 40.2707C15 40.4535 14.9314 40.6299 14.8073 40.7661C14.6832 40.9024 14.5123 40.9889 14.3273 41.0092H13.1037C12.9331 41.7308 12.5191 42.3745 11.929 42.8358C11.3389 43.2971 10.6073 43.549 9.85313 43.5505H9.49818L12.5713 46.7982C12.711 46.9358 12.7895 47.1222 12.7895 47.3165C12.7895 47.5109 12.711 47.6973 12.5713 47.8349C12.4882 47.9003 12.392 47.9479 12.2891 47.9748C12.1862 48.0016 12.0787 48.0071 11.9735 47.9909Z" fill="white"/>
<path d="M54.9735 47.9909C54.8699 47.9903 54.7675 47.9688 54.6727 47.9278C54.5779 47.8867 54.4927 47.827 54.4224 47.7523L50.219 43.3119C50.0787 43.1728 50 42.9849 50 42.789C50 42.5932 50.0787 42.4052 50.219 42.2661C50.3558 42.1406 50.5364 42.0716 50.7234 42.0734H52.8064C53.1574 42.0673 53.4995 41.9643 53.7935 41.7761C54.0876 41.5879 54.3217 41.3221 54.4691 41.0092H51.4707C51.2857 40.9889 51.1148 40.9024 50.9907 40.7661C50.8666 40.6299 50.798 40.4535 50.798 40.2707C50.798 40.0878 50.8666 39.9114 50.9907 39.7752C51.1148 39.6389 51.2857 39.5524 51.4707 39.5321H54.5158C54.3671 39.2209 54.1324 38.9571 53.8384 38.7705C53.5445 38.584 53.2031 38.4823 52.8531 38.4771H50.7701C50.5852 38.4568 50.4143 38.3702 50.2902 38.234C50.1661 38.0977 50.0975 37.9213 50.0975 37.7385C50.0975 37.5557 50.1661 37.3793 50.2902 37.2431C50.4143 37.1068 50.5852 37.0203 50.7701 37H57.3087C57.4936 37.0203 57.6645 37.1068 57.7886 37.2431C57.9127 37.3793 57.9813 37.5557 57.9813 37.7385C57.9813 37.9213 57.9127 38.0977 57.7886 38.234C57.6645 38.3702 57.4936 38.4568 57.3087 38.4771H55.6367C55.8534 38.7984 56.0085 39.156 56.0944 39.5321H57.3273C57.5123 39.5524 57.6832 39.6389 57.8073 39.7752C57.9314 39.9114 58 40.0878 58 40.2707C58 40.4535 57.9314 40.6299 57.8073 40.7661C57.6832 40.9024 57.5123 40.9889 57.3273 41.0092H56.1037C55.9331 41.7308 55.5191 42.3745 54.929 42.8358C54.3389 43.2971 53.6073 43.549 52.8531 43.5505H52.4982L55.5713 46.7982C55.711 46.9358 55.7895 47.1222 55.7895 47.3165C55.7895 47.5109 55.711 47.6973 55.5713 47.8349C55.4882 47.9003 55.392 47.9479 55.2891 47.9748C55.1862 48.0016 55.0787 48.0071 54.9735 47.9909Z" fill="white"/>
</svg>
