<svg width="58" height="63" viewBox="0 0 58 63" fill="none" xmlns="http://www.w3.org/2000/svg">
<path d="M58 13.4377H45.17C45.0108 11.4676 44.4284 9.53195 43.4082 7.78939C43.1114 7.28366 42.4148 7.08581 41.8427 7.35079C41.2752 7.61476 41.0554 8.2391 41.3511 8.74534C42.3921 10.524 42.92 12.4505 42.92 14.4714C42.92 21.3109 36.6759 26.8755 29 26.8755C21.3241 26.8755 15.08 21.3109 15.08 14.4714C15.08 7.63192 21.3241 2.06735 29 2.06735C32.3475 2.06735 35.5828 3.1414 38.1101 5.09215C38.5904 5.46565 39.3267 5.41921 39.7459 4.98767C40.165 4.55614 40.1129 3.90302 39.628 3.52953C36.6793 1.25323 32.9048 0 29 0C20.4366 0 13.4177 5.94059 12.8188 13.4377H0V56.852H5.8V62.0204H17.4V56.852H40.6V62.0204H52.2V56.852H58V13.4377ZM35.96 35.1449C35.96 38.5649 32.838 41.3469 29 41.3469C25.162 41.3469 22.04 38.5649 22.04 35.1449C22.04 31.7249 25.162 28.9428 29 28.9428C32.838 28.9428 35.96 31.7249 35.96 35.1449ZM23.9493 28.2171C21.4073 29.6937 19.72 32.2451 19.72 35.1449C19.72 39.7046 23.8831 43.4143 29 43.4143C34.1169 43.4143 38.28 39.7046 38.28 35.1449C38.28 32.2451 36.5927 29.6937 34.0507 28.2171C38.289 26.9771 41.7511 24.2217 43.6507 20.6735H51.04V49.6163H6.96V20.6735H14.3493C16.2489 24.2217 19.711 26.9771 23.9493 28.2171ZM15.08 59.953H8.12V56.852H15.08V59.953ZM49.88 59.953H42.92V56.852H49.88V59.953ZM55.68 54.7847H52.2H40.6H17.4H5.8H2.32V15.5051H12.8188C12.9042 16.5743 13.1109 17.6131 13.4439 18.6061H4.64V51.6837H53.36V18.6061H44.5561C44.8891 17.6131 45.0958 16.5743 45.1812 15.5051H55.68V54.7847ZM11.6 25.8418H13.92V44.4479H11.6V25.8418Z" fill="white"/>
<path d="M30.3117 21.1287C30.1838 21.1281 30.0573 21.1039 29.9402 21.0577C29.8231 21.0114 29.7178 20.9441 29.6309 20.86L24.4381 15.857C24.2648 15.7002 24.1675 15.4885 24.1675 15.2678C24.1675 15.0471 24.2648 14.8354 24.4381 14.6786C24.607 14.5373 24.8301 14.4596 25.0612 14.4615H27.6346C28.0681 14.4547 28.4907 14.3386 28.854 14.1265C29.2173 13.9145 29.5065 13.615 29.6886 13.2625H25.9844C25.7559 13.2396 25.5448 13.1421 25.3915 12.9886C25.2382 12.8351 25.1534 12.6364 25.1534 12.4304C25.1534 12.2244 25.2382 12.0257 25.3915 11.8721C25.5448 11.7186 25.7559 11.6211 25.9844 11.5983H29.7463C29.5626 11.2477 29.2726 10.9504 28.9095 10.7402C28.5463 10.53 28.1246 10.4155 27.6923 10.4096H25.1189C24.8904 10.3867 24.6793 10.2892 24.526 10.1357C24.3727 9.98217 24.2879 9.78342 24.2879 9.57745C24.2879 9.37147 24.3727 9.17272 24.526 9.01921C24.6793 8.86569 24.8904 8.76819 25.1189 8.74534H33.1966C33.4252 8.76819 33.6363 8.86569 33.7896 9.01921C33.9429 9.17272 34.0276 9.37147 34.0276 9.57745C34.0276 9.78342 33.9429 9.98217 33.7896 10.1357C33.6363 10.2892 33.4252 10.3867 33.1966 10.4096H31.131C31.3988 10.7716 31.5904 11.1745 31.6965 11.5983H33.2197C33.4482 11.6211 33.6593 11.7186 33.8126 11.8721C33.966 12.0257 34.0507 12.2244 34.0507 12.4304C34.0507 12.6364 33.966 12.8351 33.8126 12.9886C33.6593 13.1421 33.4482 13.2396 33.2197 13.2625H31.708C31.4972 14.0755 30.9858 14.8008 30.2568 15.3205C29.5278 15.8403 28.624 16.1241 27.6923 16.1258H27.2538L31.0503 19.785C31.2229 19.94 31.3199 20.15 31.3199 20.369C31.3199 20.588 31.2229 20.798 31.0503 20.953C30.9476 21.0267 30.8288 21.0804 30.7017 21.1106C30.5745 21.1409 30.4417 21.1471 30.3117 21.1287Z" fill="white"/>
</svg>
