<svg width="68" height="68" viewBox="0 0 68 68" fill="none" xmlns="http://www.w3.org/2000/svg">
<path d="M24.843 3.43909C24.1671 3.43909 23.5064 3.6395 22.9445 4.01499C22.3825 4.39048 21.9445 4.92417 21.6859 5.54858C21.4273 6.173 21.3596 6.86008 21.4914 7.52296C21.6233 8.18583 21.9488 8.79472 22.4267 9.27262C22.9046 9.75053 23.5134 10.076 24.1763 10.2078C24.8392 10.3397 25.5263 10.272 26.1507 10.0134C26.7751 9.75474 27.3088 9.31675 27.6843 8.75479C28.0597 8.19283 28.2601 7.53215 28.2601 6.85629C28.2601 5.94999 27.9001 5.08081 27.2593 4.43996C26.6184 3.79911 25.7493 3.43909 24.843 3.43909ZM24.843 7.99536C24.6177 7.99536 24.3975 7.92856 24.2101 7.80339C24.0228 7.67823 23.8768 7.50033 23.7906 7.29219C23.7044 7.08406 23.6818 6.85503 23.7258 6.63407C23.7697 6.41311 23.8782 6.21015 24.0375 6.05085C24.1968 5.89155 24.3998 5.78306 24.6207 5.73911C24.8417 5.69516 25.0707 5.71772 25.2789 5.80393C25.487 5.89014 25.6649 6.03614 25.7901 6.22346C25.9152 6.41078 25.982 6.63101 25.982 6.85629C25.9703 7.15043 25.8451 7.42858 25.6327 7.63244C25.4204 7.8363 25.1373 7.95003 24.843 7.9498V7.99536Z" fill="white"/>
<path d="M10.1831 35.0255H14.7394V37.3028H10.1831V35.0255Z" fill="white"/>
<path d="M16.9492 35.0255H33.8643V37.3028H16.9492V35.0255Z" fill="white"/>
<path d="M10.1831 41.7916H14.7394V44.069H10.1831V41.7916Z" fill="white"/>
<path d="M10.1831 48.5576H14.7394V50.8349H10.1831V48.5576Z" fill="white"/>
<path d="M10.1831 55.3235H14.7394V57.6009H10.1831V55.3235Z" fill="white"/>
<path d="M66.5667 37.3036H65.4277C61.7659 37.2815 58.208 36.0836 55.2786 33.8864L52.5677 31.8474C52.3726 31.7049 52.1372 31.628 51.8956 31.628C51.654 31.628 51.4187 31.7049 51.2236 31.8474L49.6403 32.9865V10.2051C49.6403 9.29883 49.2803 8.42965 48.6394 7.7888C47.9986 7.14795 47.1294 6.78793 46.2231 6.78793H36.9967C36.7637 6.12867 36.334 5.55677 35.7658 5.14939C35.1975 4.74201 34.5179 4.51877 33.8187 4.50979H31.2217C30.7551 3.19085 29.8912 2.04896 28.7489 1.24131C27.6065 0.433673 26.2419 0 24.8429 0C23.4439 0 22.0793 0.433673 20.937 1.24131C19.7946 2.04896 18.9307 3.19085 18.4642 4.50979H15.8216C15.1224 4.51877 14.4428 4.74201 13.8745 5.14939C13.3062 5.55677 12.8766 6.12867 12.6436 6.78793H3.41718C2.51089 6.78793 1.64172 7.14795 1.00087 7.7888C0.360024 8.42965 0 9.29883 0 10.2051V64.3451C0 65.2514 0.360024 66.1205 1.00087 66.7614C1.64172 67.4022 2.51089 67.7623 3.41718 67.7623H46.2687C46.78 67.7582 47.2839 67.6394 47.7433 67.4147C48.2026 67.1899 48.6056 66.865 48.9227 66.4637L51.4172 67.6028C51.5702 67.6757 51.7375 67.7135 51.907 67.7135C52.0765 67.7135 52.2438 67.6757 52.3968 67.6028L62.3408 62.9098C63.9734 62.0509 65.3397 60.7614 66.2914 59.1811C67.2432 57.6008 67.7442 55.7901 67.74 53.9454V38.4426C67.74 38.1405 67.62 37.8508 67.4063 37.6372C67.1927 37.4236 66.903 37.3036 66.6009 37.3036H66.5667ZM37.2815 9.07746H46.3028C46.6049 9.07746 46.8947 9.19746 47.1083 9.41108C47.3219 9.6247 47.4419 9.91442 47.4419 10.2165V34.6723C46.7109 35.1063 45.9495 35.487 45.1638 35.8114V12.4605C45.1638 12.1584 45.0438 11.8687 44.8301 11.655C44.6165 11.4414 44.3268 11.3214 44.0247 11.3214H37.2815V9.07746ZM14.7281 7.93839C14.7281 7.63629 14.8481 7.34656 15.0617 7.13294C15.2753 6.91933 15.565 6.79932 15.8671 6.79932H19.364C19.6289 6.80521 19.8876 6.71858 20.0955 6.55434C20.3034 6.39009 20.4475 6.15851 20.5031 5.89945C20.75 4.91426 21.319 4.03982 22.1197 3.415C22.9205 2.79019 23.907 2.45083 24.9227 2.45083C25.9383 2.45083 26.9248 2.79019 27.7256 3.415C28.5263 4.03982 29.0953 4.91426 29.3422 5.89945C29.3978 6.15851 29.5419 6.39009 29.7498 6.55434C29.9577 6.71858 30.2164 6.80521 30.4813 6.79932H33.8643C34.1664 6.79932 34.4561 6.91933 34.6697 7.13294C34.8833 7.34656 35.0033 7.63629 35.0033 7.93839V12.4947H14.6939L14.7281 7.93839ZM13.589 14.7045H36.1424C36.4445 14.7045 36.7342 14.5844 36.9478 14.3708C37.1615 14.1572 37.2815 13.8675 37.2815 13.5654H42.9768V36.6429C41.4944 37.0656 39.962 37.2878 38.4205 37.3036H37.2815C36.9794 37.3036 36.6896 37.4236 36.476 37.6372C36.2624 37.8508 36.1424 38.1405 36.1424 38.4426V41.8598H16.9492V44.138H36.1424V48.6943H16.9492V50.9724H36.1424V54.1048C36.1444 54.5657 36.1748 55.026 36.2335 55.4831H16.9492V57.7612H36.8031C37.2899 59.0303 38.0214 60.1914 38.9559 61.1784H6.80019V13.5882H12.4385C12.4385 13.8903 12.5586 14.18 12.7722 14.3936C12.9858 14.6072 13.2755 14.7272 13.5776 14.7272L13.589 14.7045ZM46.2687 65.4727H3.41718C3.11509 65.4727 2.82536 65.3527 2.61175 65.1391C2.39813 64.9255 2.27812 64.6358 2.27812 64.3337V10.2051C2.27812 9.90303 2.39813 9.61331 2.61175 9.39969C2.82536 9.18607 3.11509 9.06606 3.41718 9.06606H12.4385V11.3442H5.67252C5.37043 11.3442 5.0807 11.4642 4.86709 11.6778C4.65347 11.8914 4.53346 12.1812 4.53346 12.4833V62.0897C4.53346 62.3918 4.65347 62.6815 4.86709 62.8951C5.0807 63.1088 5.37043 63.2288 5.67252 63.2288H42.1225L46.6787 65.3816C46.5473 65.4323 46.4091 65.463 46.2687 65.4727ZM65.4391 53.9454C65.4431 55.372 65.0581 56.7728 64.3255 57.9971C63.593 59.2214 62.5406 60.2228 61.2815 60.8937L51.907 65.3474L42.5553 60.9051C41.3004 60.2283 40.2528 59.2233 39.5246 57.9975C38.7964 56.7717 38.4147 55.3712 38.4205 53.9454V39.5817C42.5675 39.5671 46.6002 38.2215 49.925 35.743L51.9526 34.2167L53.9801 35.743C57.2925 38.2123 61.3077 39.5573 65.4391 39.5817V53.9454Z" fill="white"/>
<path d="M31.5861 21.4817H28.1689V18.0645C28.1689 17.7624 28.0489 17.4727 27.8353 17.2591C27.6217 17.0455 27.332 16.9255 27.0299 16.9255H22.4736C22.1715 16.9255 21.8818 17.0455 21.6682 17.2591C21.4546 17.4727 21.3346 17.7624 21.3346 18.0645V21.4817H17.9174C17.6153 21.4817 17.3256 21.6018 17.1119 21.8154C16.8983 22.029 16.7783 22.3187 16.7783 22.6208V27.1771C16.7783 27.4792 16.8983 27.7689 17.1119 27.9825C17.3256 28.1961 17.6153 28.3162 17.9174 28.3162H21.3346V31.7334C21.3346 32.0355 21.4546 32.3252 21.6682 32.5388C21.8818 32.7524 22.1715 32.8724 22.4736 32.8724H27.0299C27.332 32.8724 27.6217 32.7524 27.8353 32.5388C28.0489 32.3252 28.1689 32.0355 28.1689 31.7334V28.3162H31.5861C31.8882 28.3162 32.1779 28.1961 32.3916 27.9825C32.6052 27.7689 32.7252 27.4792 32.7252 27.1771V22.6208C32.7252 22.3187 32.6052 22.029 32.3916 21.8154C32.1779 21.6018 31.8882 21.4817 31.5861 21.4817ZM30.4471 26.038H27.0299C26.7278 26.038 26.438 26.158 26.2244 26.3716C26.0108 26.5853 25.8908 26.875 25.8908 27.1771V30.5943H23.6127V27.1771C23.6127 26.875 23.4927 26.5853 23.2791 26.3716C23.0654 26.158 22.7757 26.038 22.4736 26.038H19.0564V23.7599H22.4736C22.7757 23.7599 23.0654 23.6399 23.2791 23.4263C23.4927 23.2126 23.6127 22.9229 23.6127 22.6208V19.2036H25.8908V22.6208C25.8908 22.9229 26.0108 23.2126 26.2244 23.4263C26.438 23.6399 26.7278 23.7599 27.0299 23.7599H30.4471V26.038Z" fill="white"/>
<path d="M62.2271 41.5407C58.7288 41.002 55.4161 39.6136 52.5792 37.497C52.3841 37.3545 52.1488 37.2776 51.9072 37.2776C51.6656 37.2776 51.4302 37.3545 51.2351 37.497C48.3982 39.6136 45.0855 41.002 41.5873 41.5407C41.3177 41.5844 41.0729 41.7234 40.8973 41.9325C40.7216 42.1416 40.627 42.4068 40.6305 42.6798V53.968C40.6312 54.9728 40.9009 55.9591 41.4117 56.8245C41.9225 57.6898 42.6557 58.4026 43.5351 58.8887H43.6034L51.4174 62.6021C51.5704 62.675 51.7377 62.7128 51.9072 62.7128C52.0766 62.7128 52.244 62.675 52.397 62.6021L60.2793 58.8546C61.1587 58.3684 61.8919 57.6556 62.4027 56.7903C62.9134 55.925 63.1832 54.9386 63.1839 53.9338V42.657C63.1874 42.384 63.0927 42.1188 62.9171 41.9097C62.7415 41.7006 62.4966 41.5616 62.2271 41.5179V41.5407ZM60.9285 53.9452C60.9337 54.5375 60.7801 55.1204 60.4836 55.6333C60.1871 56.1461 59.7586 56.5701 59.2427 56.8612L51.9072 60.3467L44.6058 56.9295C44.0872 56.6328 43.6555 56.2053 43.3537 55.6896C43.0519 55.174 42.8906 54.5882 42.8858 53.9907V43.6024C46.1249 42.9696 49.1971 41.6701 51.9072 39.7866C54.6173 41.6701 57.6894 42.9696 60.9285 43.6024V53.9452Z" fill="white"/>
<path d="M47.0659 51.1434L45.4712 52.7381L48.8884 56.1553C49.1013 56.364 49.3876 56.4809 49.6857 56.4809C49.9839 56.4809 50.2701 56.364 50.4831 56.1553L59.5044 47.1339L57.9097 45.5392L49.6857 53.7633L47.0659 51.1434Z" fill="white"/>
</svg>
