<svg width="64" height="65" viewBox="0 0 64 65" fill="none" xmlns="http://www.w3.org/2000/svg">
<path d="M2.06456 51.6296C2.0623 50.9211 2.27341 50.2283 2.67037 49.6415C3.06733 49.0547 3.63175 48.6011 4.2901 48.3398L10.5869 45.8202C10.874 46.6146 11.3988 47.3012 12.09 47.7865C12.7812 48.2718 13.6051 48.5321 14.4496 48.5321C15.294 48.5321 16.1179 48.2718 16.8091 47.7865C17.5003 47.3012 18.0252 46.6146 18.3123 45.8202L23.8452 48.0341L24.6111 46.1166L18.5807 43.7024V42.8112C19.3512 42.1197 19.9367 41.2465 20.2839 40.271H20.6452C21.2714 40.2733 21.8836 40.0849 22.4002 39.7309C22.9168 39.3768 23.3135 38.8739 23.5376 38.2889C23.7617 37.7039 23.8025 37.0646 23.6546 36.4558C23.5067 35.8471 23.1772 35.2978 22.7097 34.8809V30.9777C22.709 30.0436 22.3924 29.1373 21.8114 28.4061C21.2304 27.675 20.4192 27.1619 19.5097 26.9505C19.2984 26.0407 18.7855 25.2292 18.0546 24.648C17.3236 24.0669 16.4176 23.7501 15.4839 23.7495H11.3549C9.98652 23.7511 8.67468 24.2956 7.70711 25.2635C6.73953 26.2314 6.19523 27.5436 6.19359 28.9125V34.8809C5.72615 35.2978 5.3966 35.8471 5.24872 36.4558C5.10085 37.0646 5.14165 37.7039 5.36571 38.2889C5.58977 38.8739 5.98647 39.3768 6.50311 39.7309C7.01975 40.0849 7.63186 40.2733 8.2581 40.271H8.6194C8.96662 41.2465 9.55211 42.1197 10.3226 42.8112V43.7024L3.52417 46.4233C2.48141 46.8358 1.58727 47.5534 0.958556 48.4822C0.329845 49.411 -0.00420674 50.5079 3.99933e-05 51.6296V64.0208H2.06456V51.6296ZM18.5807 38.2058C18.5807 39.3013 18.1457 40.3519 17.3713 41.1265C16.597 41.9011 15.5467 42.3363 14.4517 42.3363C13.3566 42.3363 12.3063 41.9011 11.532 41.1265C10.7576 40.3519 10.3226 39.3013 10.3226 38.2058V35.108H12.2199C13.1188 35.1087 14.0044 34.8912 14.8007 34.4741C15.597 34.057 16.2803 33.4529 16.7918 32.7135L18.5807 34.5029V38.2058ZM20.6452 38.2058V36.1406C20.919 36.1406 21.1815 36.2494 21.3751 36.4431C21.5687 36.6367 21.6775 36.8994 21.6775 37.1733C21.6775 37.4471 21.5687 37.7098 21.3751 37.9034C21.1815 38.0971 20.919 38.2058 20.6452 38.2058ZM7.22585 37.1733C7.22585 36.8994 7.3346 36.6367 7.52819 36.4431C7.72177 36.2494 7.98433 36.1406 8.2581 36.1406V38.2058C7.98433 38.2058 7.72177 38.0971 7.52819 37.9034C7.3346 37.7098 7.22585 37.4471 7.22585 37.1733ZM9.29036 33.0429C9.01659 33.0429 8.75403 33.1516 8.56045 33.3453C8.36686 33.5389 8.2581 33.8016 8.2581 34.0754V28.9125C8.2581 28.0909 8.58437 27.3029 9.16513 26.722C9.74589 26.141 10.5336 25.8147 11.3549 25.8147H15.4839C16.0315 25.8147 16.5566 26.0322 16.9437 26.4195C17.3309 26.8068 17.5484 27.3321 17.5484 27.8799C17.5484 28.1537 17.6572 28.4164 17.8508 28.61C18.0444 28.8037 18.3069 28.9125 18.5807 28.9125C19.1282 28.9125 19.6533 29.13 20.0405 29.5173C20.4277 29.9046 20.6452 30.4299 20.6452 30.9777V34.0754C20.6451 33.8016 20.5363 33.539 20.3427 33.3454L17.246 30.2476C17.1215 30.1233 16.9674 30.0329 16.7983 29.985C16.6291 29.937 16.4505 29.933 16.2794 29.9735C16.1082 30.0139 15.9503 30.0974 15.8205 30.216C15.6906 30.3347 15.5933 30.4845 15.5376 30.6513C15.3058 31.348 14.8605 31.954 14.265 32.3833C13.6695 32.8126 12.9539 33.0433 12.2199 33.0429H9.29036ZM14.4517 44.4014C15.1554 44.3997 15.8536 44.2774 16.5162 44.04V44.4014C16.5162 44.9492 16.2987 45.4745 15.9115 45.8618C15.5243 46.2491 14.9992 46.4666 14.4517 46.4666C13.9041 46.4666 13.379 46.2491 12.9918 45.8618C12.6046 45.4745 12.3871 44.9492 12.3871 44.4014V44.04C13.0497 44.2774 13.7479 44.3997 14.4517 44.4014Z" fill="white"/>
<path d="M7.22614 54.7275H5.16162V64.0209H7.22614V54.7275Z" fill="white"/>
<path d="M45.1172 53.3922L43.6576 51.9321L42.6253 52.9647C42.2383 53.3502 41.9236 53.802 41.6963 54.2988L43.576 55.1558C43.6992 54.8836 43.8706 54.636 44.0818 54.4248L45.1172 53.3922Z" fill="white"/>
<path d="M60.5572 46.3303L57.7196 45.0685C58.8279 44.737 59.8561 44.1809 60.7403 43.4348C61.6245 42.6887 62.3458 41.7685 62.8592 40.7316C62.9376 40.5742 62.9745 40.3993 62.9664 40.2236C62.9584 40.0479 62.9055 39.8772 62.813 39.7276C62.7205 39.578 62.5913 39.4546 62.4377 39.369C62.284 39.2834 62.1111 39.2385 61.9353 39.2384H61.9291C61.5038 39.2364 61.0837 39.1457 60.6955 38.9719C60.3073 38.7982 59.9596 38.5454 59.6747 38.2296C59.8938 37.6528 59.9311 37.0227 59.7817 36.424C59.6322 35.8254 59.3031 35.2869 58.8385 34.8809V32.0103C58.8385 29.8193 57.9685 27.7182 56.4198 26.169C54.8711 24.6198 52.7706 23.7495 50.5805 23.7495C48.3903 23.7495 46.2898 24.6198 44.7411 26.169C43.1924 27.7182 42.3224 29.8193 42.3224 32.0103V34.8809C41.999 35.169 41.7399 35.522 41.562 35.917C41.3841 36.312 41.2915 36.74 41.2901 37.1733C41.293 37.5343 41.3601 37.892 41.4883 38.2296C41.2022 38.5461 40.8531 38.7993 40.4635 38.973C40.0738 39.1467 39.6522 39.2371 39.2256 39.2384C39.0498 39.2385 38.8769 39.2834 38.7233 39.369C38.5697 39.4546 38.4405 39.578 38.3479 39.7276C38.2554 39.8772 38.2026 40.0479 38.1945 40.2236C38.1864 40.3993 38.2233 40.5742 38.3018 40.7316C38.8148 41.7684 39.5357 42.6885 40.4196 43.4346C41.3034 44.1807 42.3313 44.7369 43.4393 45.0685L40.6027 46.3303C39.5856 46.7827 38.7207 47.5192 38.1118 48.4513C38.1631 48.1365 38.1904 47.8182 38.1934 47.4992V45.434C38.1934 43.7909 37.5408 42.215 36.3793 41.0531C35.2178 39.8912 33.6425 39.2385 31.9998 39.2384C30.3572 39.2385 28.7818 39.8912 27.6203 41.0531C26.4588 42.215 25.8063 43.7909 25.8063 45.434V47.4992C25.8062 49.0893 26.4201 50.6179 27.5198 51.766C25.8758 52.0887 24.3947 52.9721 23.3292 54.2655C22.2637 55.5588 21.6798 57.1819 21.6772 58.8578V64.0208H23.7418V58.8578C23.7452 57.64 24.179 56.4626 24.9663 55.5337C25.7536 54.6048 26.8438 53.9842 28.0442 53.7816C28.2836 54.6471 28.8001 55.4102 29.5146 55.954C30.2291 56.4978 31.1021 56.7923 31.9998 56.7923C32.8976 56.7923 33.7706 56.4978 34.485 55.954C35.1995 55.4102 35.716 54.6471 35.9554 53.7816C37.1559 53.9842 38.2461 54.6048 39.0334 55.5337C39.8207 56.4626 40.2544 57.64 40.2579 58.8578V64.0208H42.3224V58.8578C42.3218 57.694 42.0398 56.5475 41.5006 55.5162C40.9614 54.4849 40.1809 53.5993 39.2256 52.9349V51.6296C39.2272 50.9657 39.4059 50.3142 39.7432 49.7424C40.0806 49.1707 40.5643 48.6993 41.1446 48.377C42.7694 50.9419 46.4576 52.6622 50.5805 52.6622C54.7033 52.6622 58.3916 50.943 60.0163 48.377C60.5966 48.6993 61.0804 49.1707 61.4177 49.7424C61.755 50.3142 61.9337 50.9657 61.9353 51.6296V64.0208H63.9998V51.6296C63.9991 50.5081 63.6735 49.4107 63.0626 48.4703C62.4517 47.5299 61.5815 46.7866 60.5572 46.3303ZM27.8708 45.434C27.8708 44.3386 28.3058 43.288 29.0802 42.5134C29.8545 41.7388 30.9047 41.3036 31.9998 41.3036C33.0949 41.3036 34.1451 41.7388 34.9195 42.5134C35.6938 43.288 36.1289 44.3386 36.1289 45.434V47.4992C36.1289 48.5947 35.6938 49.6453 34.9195 50.4199C34.1451 51.1945 33.0949 51.6296 31.9998 51.6296C30.9047 51.6296 29.8545 51.1945 29.0802 50.4199C28.3058 49.6453 27.8708 48.5947 27.8708 47.4992V45.434ZM31.9998 54.7274C31.5803 54.7261 31.1711 54.5969 30.8268 54.3571C30.4825 54.1173 30.2194 53.7782 30.0726 53.3851C31.324 53.7995 32.6756 53.7995 33.927 53.3851C33.7802 53.7782 33.5171 54.1173 33.1728 54.3571C32.8285 54.5969 32.4194 54.7261 31.9998 54.7274ZM36.4798 51.766C36.7566 51.4748 37.0048 51.1577 37.221 50.8191C37.1818 51.0875 37.1618 51.3584 37.1611 51.6296V51.9394C36.9381 51.8706 36.711 51.8128 36.4798 51.766ZM46.4514 38.2058V35.108C47.2444 35.0846 48.0232 34.8915 48.7354 34.5419C49.4476 34.1923 50.0767 33.6941 50.5805 33.0811C51.0839 33.6945 51.7129 34.1929 52.4252 34.5425C53.1375 34.8922 53.9164 35.085 54.7095 35.108V38.2058C54.7095 39.3013 54.2745 40.3519 53.5001 41.1265C52.7258 41.9011 51.6756 42.3363 50.5805 42.3363C49.4854 42.3363 48.4351 41.9011 47.6608 41.1265C46.8865 40.3519 46.4514 39.3013 46.4514 38.2058ZM60.2331 41.0197C59.6319 41.7566 58.8737 42.3499 58.014 42.7564C57.1543 43.1628 56.2147 43.372 55.2638 43.3688H54.7095V42.8112C55.48 42.1197 56.0655 41.2465 56.4127 40.271H56.774C57.327 40.2685 57.869 40.1158 58.342 39.8291C58.8769 40.3606 59.5227 40.7672 60.2331 41.0197ZM56.774 36.1406C57.0478 36.1406 57.3103 36.2494 57.5039 36.4431C57.6975 36.6367 57.8063 36.8994 57.8063 37.1733C57.8063 37.4471 57.6975 37.7098 57.5039 37.9034C57.3103 38.0971 57.0478 38.2058 56.774 38.2058V36.1406ZM56.774 32.0103V34.0754C56.774 33.8016 56.6653 33.5389 56.4717 33.3453C56.2781 33.1516 56.0155 33.0429 55.7418 33.0429H54.8757C54.1651 33.0422 53.4717 32.8243 52.8885 32.4183C52.3053 32.0122 51.8601 31.4375 51.6127 30.7711V25.9076C53.0543 26.1526 54.3629 26.8994 55.3074 28.0161C56.2518 29.1328 56.7713 30.5475 56.774 32.0103ZM44.3869 32.0103C44.3896 30.5475 44.9091 29.1328 45.8535 28.0161C46.798 26.8994 48.1066 26.1526 49.5482 25.9076V30.7763C49.2994 31.4417 48.8534 32.0152 48.2699 32.4202C47.6865 32.8253 46.9934 33.0425 46.2832 33.0429H45.4192C45.1454 33.0429 44.8828 33.1516 44.6893 33.3453C44.4957 33.5389 44.3869 33.8016 44.3869 34.0754V32.0103ZM43.3547 37.1733C43.3547 36.8994 43.4634 36.6367 43.657 36.4431C43.8506 36.2494 44.1131 36.1406 44.3869 36.1406V38.2058C44.1131 38.2058 43.8506 38.0971 43.657 37.9034C43.4634 37.7098 43.3547 37.4471 43.3547 37.1733ZM40.9289 41.0187C41.6388 40.7663 42.2842 40.3601 42.8189 39.8291C43.2919 40.1158 43.8339 40.2685 44.3869 40.271H44.7482C45.0954 41.2465 45.6809 42.1197 46.4514 42.8112V43.3688H45.8971C44.9462 43.3722 44.0067 43.1629 43.1471 42.7563C42.2875 42.3496 41.5296 41.756 40.9289 41.0187ZM50.5805 50.597C47.3299 50.597 44.3621 49.3393 43.045 47.5065L46.4514 45.9906V46.4666H48.5159V44.04C49.8501 44.5219 51.3108 44.5219 52.645 44.04V46.4666H54.7095V45.9917L58.1159 47.5075C56.7978 49.3393 53.83 50.597 50.5805 50.597Z" fill="white"/>
<path d="M57.0767 58.1269C56.9807 58.2229 56.9046 58.3369 56.8527 58.4623C56.8008 58.5878 56.7741 58.7222 56.7742 58.858V64.021H58.8388V59.2556C59.5089 58.4415 59.874 57.4189 59.871 56.3643V56.1867C59.8728 55.5879 59.7558 54.9947 59.5267 54.4414C59.2976 53.8882 58.9609 53.386 58.5363 52.9639L57.504 51.9313L56.0444 53.3914L57.0767 54.424C57.3091 54.6549 57.4933 54.9298 57.6186 55.2326C57.7439 55.5353 57.8078 55.86 57.8065 56.1877V56.3653C57.8075 56.6927 57.7435 57.0169 57.6182 57.3194C57.493 57.6218 57.3089 57.8963 57.0767 58.1269Z" fill="white"/>
<path d="M28.9034 58.8579H26.8389V64.0209H28.9034V58.8579Z" fill="white"/>
<path d="M38.1939 58.8579H36.1294V64.0209H38.1939V58.8579Z" fill="white"/>
<path d="M32 28.9128C32.8213 28.9128 33.609 28.5864 34.1897 28.0055C34.7705 27.4245 35.0968 26.6366 35.0968 25.815V20.2834C35.2145 20.335 35.3352 20.3773 35.4498 20.4341L37.7321 21.5813C37.8754 21.653 38.0334 21.6902 38.1935 21.6902C38.3537 21.6902 38.5117 21.653 38.655 21.5813L40.9373 20.4393C42.0113 19.9133 43.1913 19.6398 44.3871 19.6398C45.5829 19.6398 46.7629 19.9133 47.8369 20.4393L50.1192 21.5813C50.3443 21.6938 50.6026 21.7202 50.8457 21.6555C51.0888 21.5909 51.3 21.4396 51.4395 21.2303C51.9787 20.417 52.7109 19.75 53.5706 19.2887C54.4304 18.8274 55.3909 18.5863 56.3665 18.5868H57.8064C57.9733 18.5869 58.1377 18.5466 58.2855 18.4692C58.4333 18.3919 58.5602 18.2798 58.6553 18.1427C58.7504 18.0055 58.8108 17.8474 58.8314 17.6818C58.8521 17.5162 58.8322 17.348 58.7737 17.1918C56.8659 12.1515 53.4734 7.80935 49.0452 4.73959C44.6169 1.66982 39.3613 0.0170937 33.9737 0H30.0263C24.6387 0.0170937 19.3831 1.66982 14.9548 4.73959C10.5266 7.80935 7.13415 12.1515 5.22632 17.1918C5.16776 17.348 5.14794 17.5162 5.16855 17.6818C5.18917 17.8474 5.2496 18.0055 5.34469 18.1427C5.43977 18.2798 5.56666 18.3919 5.7145 18.4692C5.86233 18.5466 6.02671 18.5869 6.19355 18.5868H7.63871C8.61381 18.5857 9.57403 18.8261 10.4337 19.2864C11.2934 19.7468 12.0258 20.4128 12.5657 21.2251C12.7052 21.4345 12.9163 21.5857 13.1594 21.6504C13.4026 21.715 13.6609 21.6886 13.8859 21.5762L16.1683 20.4341C17.2423 19.9081 18.4222 19.6346 19.6181 19.6346C20.8139 19.6346 21.9939 19.9081 23.0679 20.4341L25.345 21.5813C25.4883 21.653 25.6463 21.6902 25.8065 21.6902C25.9666 21.6902 26.1246 21.653 26.2679 21.5813L28.5502 20.4393C28.6648 20.3825 28.7855 20.336 28.9032 20.2885V25.815C28.9032 26.2218 28.9833 26.6246 29.139 27.0005C29.2946 27.3763 29.5227 27.7178 29.8102 28.0055C30.0978 28.2931 30.4392 28.5213 30.8149 28.677C31.1906 28.8327 31.5933 28.9128 32 28.9128ZM33.0323 25.815C33.0323 26.0889 32.9235 26.3515 32.7299 26.5452C32.5363 26.7388 32.2738 26.8476 32 26.8476C31.7262 26.8476 31.4637 26.7388 31.2701 26.5452C31.0765 26.3515 30.9677 26.0889 30.9677 25.815V19.7082C31.653 19.6194 32.3469 19.6194 33.0323 19.7082V25.815ZM40.0145 18.5868L39.2 18.9936C39.079 13.456 37.5328 8.04305 34.7107 3.27747C41.183 6.41002 46.2198 11.8908 48.7969 18.6054L48.7597 18.5868C47.3985 17.9198 45.9028 17.5731 44.3871 17.5731C42.8713 17.5731 41.3757 17.9198 40.0145 18.5868ZM56.2674 16.5216C54.3177 16.5452 52.4444 17.2838 51.0028 18.5971C48.552 11.691 43.6877 5.90418 37.3068 2.30373C41.4093 2.88213 45.2989 4.48897 48.614 6.97479C51.929 9.46062 54.5617 12.7447 56.2674 16.5216ZM7.73264 16.5216C9.43826 12.7447 12.071 9.46062 15.386 6.97479C18.7011 4.48897 22.5907 2.88213 26.6932 2.30373C20.3112 5.90392 15.4455 11.6907 12.993 18.5971C11.5525 17.2847 9.68092 16.5463 7.73264 16.5216ZM15.2403 18.5868L15.2031 18.6054C17.7802 11.8908 22.8169 6.41002 29.2893 3.27747C26.4672 8.04305 24.921 13.456 24.8 18.9936L23.9855 18.5868C22.6243 17.9198 21.1286 17.5731 19.6129 17.5731C18.0972 17.5731 16.6015 17.9198 15.2403 18.5868ZM27.6274 18.5868L26.8655 18.9678C27.0041 13.2161 28.7858 7.62423 32 2.85307C35.2142 7.62423 36.9959 13.2161 37.1344 18.9678L36.3726 18.5868C35.015 17.9077 33.5179 17.5542 32 17.5542C30.4821 17.5542 28.985 17.9077 27.6274 18.5868Z" fill="white"/>
</svg>
