<svg width="64" height="64" viewBox="0 0 64 64" fill="none" xmlns="http://www.w3.org/2000/svg">
<path d="M62.625 32H57.625C56.9347 32 56.375 32.5596 56.375 33.25V58.25H53.875V44.5C53.875 43.8096 53.3153 43.25 52.625 43.25H47.625C46.9347 43.25 46.375 43.8096 46.375 44.5V58.25H43.875V49.5C43.875 48.8096 43.3153 48.25 42.625 48.25H37.625C36.9347 48.25 36.375 48.8096 36.375 49.5V58.25H33.875C33.875 56.7385 33.875 46.2895 33.875 44.9385L42.9188 33.6339L48.232 36.8218C48.7505 37.1329 49.4176 37.0281 49.8158 36.573L61.043 23.7418L61.3812 27.1243C61.4501 27.8125 62.0646 28.3129 62.7494 28.2436C63.4362 28.175 63.9375 27.5624 63.8688 26.8755C63.3834 22.0334 63.2465 20.6234 63.2294 20.5281C63.1281 19.9635 62.654 19.5396 62.0788 19.5036C61.9841 19.4978 62.3814 19.5007 55.75 19.4999C55.0597 19.4999 54.5 20.0595 54.5 20.7499C54.5 21.4402 55.0597 21.9999 55.75 21.9999H59.2454L48.6222 34.1405L43.2681 30.928C42.7319 30.606 42.0399 30.7304 41.649 31.219L33.875 40.9365C33.875 39.7703 33.875 30.7866 33.875 29.5C33.875 28.8096 33.3153 28.25 32.625 28.25H24.8965C28.434 25.7596 30.75 21.6454 30.75 17C30.75 9.41825 24.5817 3.25 17 3.25C9.41825 3.25 3.25 9.41825 3.25 17C3.25 21.6454 5.566 25.7596 9.1035 28.25H1.375C0.684625 28.25 0.125 28.8096 0.125 29.5V59.5C0.125 60.1904 0.684625 60.75 1.375 60.75H62.625C63.3153 60.75 63.875 60.1904 63.875 59.5V33.25C63.875 32.5596 63.3153 32 62.625 32ZM2.625 43.25V38.25H31.375V43.25H2.625ZM2.625 45.75H31.375V50.75H2.625V45.75ZM5.75 17C5.75 10.7968 10.7968 5.75 17 5.75C23.2033 5.75 28.25 10.7968 28.25 17C28.25 23.2033 23.2033 28.25 17 28.25C10.7968 28.25 5.75 23.2033 5.75 17ZM2.625 30.75H31.375V35.75H2.625V30.75ZM2.625 53.25H31.375V58.25H2.625V53.25ZM38.875 50.75H41.375V58.25H38.875V50.75ZM48.875 45.75H51.375V58.25H48.875V45.75ZM61.375 58.25H58.875V34.5H61.375V58.25Z" fill="white"/>
<path d="M17.9735 22.9909C17.8699 22.9903 17.7675 22.9688 17.6727 22.9278C17.5779 22.8867 17.4927 22.827 17.4224 22.7523L13.219 18.3119C13.0787 18.1728 13 17.9849 13 17.789C13 17.5932 13.0787 17.4052 13.219 17.2661C13.3558 17.1406 13.5364 17.0716 13.7234 17.0734H15.8064C16.1574 17.0673 16.4995 16.9643 16.7935 16.7761C17.0876 16.5879 17.3217 16.3221 17.4691 16.0092H14.4707C14.2857 15.9889 14.1148 15.9024 13.9907 15.7661C13.8666 15.6299 13.798 15.4535 13.798 15.2707C13.798 15.0878 13.8666 14.9114 13.9907 14.7752C14.1148 14.6389 14.2857 14.5524 14.4707 14.5321H17.5158C17.3671 14.2209 17.1324 13.9571 16.8384 13.7705C16.5445 13.584 16.2031 13.4823 15.8531 13.4771H13.7701C13.5852 13.4568 13.4143 13.3702 13.2902 13.234C13.1661 13.0977 13.0975 12.9213 13.0975 12.7385C13.0975 12.5557 13.1661 12.3793 13.2902 12.2431C13.4143 12.1068 13.5852 12.0203 13.7701 12H20.3087C20.4936 12.0203 20.6645 12.1068 20.7886 12.2431C20.9127 12.3793 20.9813 12.5557 20.9813 12.7385C20.9813 12.9213 20.9127 13.0977 20.7886 13.234C20.6645 13.3702 20.4936 13.4568 20.3087 13.4771H18.6367C18.8534 13.7984 19.0085 14.156 19.0944 14.5321H20.3273C20.5123 14.5524 20.6832 14.6389 20.8073 14.7752C20.9314 14.9114 21 15.0878 21 15.2707C21 15.4535 20.9314 15.6299 20.8073 15.7661C20.6832 15.9024 20.5123 15.9889 20.3273 16.0092H19.1037C18.9331 16.7308 18.5191 17.3745 17.929 17.8358C17.3389 18.2971 16.6073 18.549 15.8531 18.5505H15.4982L18.5713 21.7982C18.711 21.9358 18.7895 22.1222 18.7895 22.3165C18.7895 22.5109 18.711 22.6973 18.5713 22.8349C18.4882 22.9003 18.392 22.9479 18.2891 22.9748C18.1862 23.0016 18.0787 23.0071 17.9735 22.9909Z" fill="white"/>
</svg>
