<svg width="64" height="64" viewBox="0 0 64 64" fill="none" xmlns="http://www.w3.org/2000/svg">
<path d="M59.1798 42.485C59.6977 42.485 60.1173 42.0654 60.1173 41.5475V28.1175C60.1173 27.5996 59.6977 27.18 59.1798 27.18H56.2336V0.9375C56.2336 0.419625 55.8139 0 55.2961 0H36.8736C36.3557 0 35.9361 0.419625 35.9361 0.9375C35.9361 1.45537 36.3557 1.875 36.8736 1.875H54.3586V27.18H48.4686V16.4688C48.4686 15.9509 48.049 15.5312 47.5311 15.5312H43.6486C43.1307 15.5312 42.7111 15.9509 42.7111 16.4688V27.18H40.7023V21.735C40.7023 21.2171 40.2827 20.7975 39.7648 20.7975H35.8823C35.3644 20.7975 34.9448 21.2171 34.9448 21.735V27.1801H32.9373V19.1012C32.9373 18.5834 32.5177 18.1637 31.9998 18.1637H28.1173C27.5994 18.1637 27.1798 18.5834 27.1798 19.1012V23.2975H17.4061V1.875H32.7886C33.3064 1.875 33.7261 1.45537 33.7261 0.9375C33.7261 0.419625 33.3064 0 32.7886 0H16.4686C15.9507 0 15.5311 0.419625 15.5311 0.9375V3.8825H8.70357C8.1857 3.8825 7.76607 4.30212 7.76607 4.82V15.5312H4.81982C4.30195 15.5312 3.88232 15.9509 3.88232 16.4688V33.8725C3.88232 34.3904 4.30195 34.81 4.81982 34.81C5.3377 34.81 5.75732 34.3904 5.75732 33.8725V17.4062H7.76607V55.2962C7.76607 55.8141 8.1857 56.2337 8.70357 56.2337H11.6486C11.6486 56.2337 11.6476 59.2572 11.6476 59.258C11.6059 60.8511 10.2922 62.125 8.70357 62.125C7.07895 62.125 5.75732 60.804 5.75732 59.18V37.9588C5.75732 37.4409 5.3377 37.0213 4.81982 37.0213C4.30195 37.0213 3.88232 37.4409 3.88232 37.9588V59.18C3.88232 61.8377 6.0452 64 8.70357 64H55.2961C57.9546 64 60.1173 61.8377 60.1173 59.18V45.6325C60.1173 45.1146 59.6977 44.695 59.1798 44.695C58.6619 44.695 58.2423 45.1146 58.2423 45.6325V59.18C58.2423 60.8039 56.9207 62.125 55.2961 62.125H12.5197C13.1184 61.3526 13.4648 60.4234 13.5167 59.4395L13.5236 25.1725H27.5378L29.2199 28.5368C29.3788 28.8544 29.7033 29.055 30.0584 29.055H58.2423V41.5474C58.2423 42.0653 58.6621 42.485 59.1798 42.485ZM44.5861 17.4062H46.5936V27.18H44.5861V17.4062ZM36.8198 22.6725H38.8274V27.1801H36.8198V22.6725ZM12.5861 23.2975C12.0682 23.2975 11.6486 23.7171 11.6486 24.235V54.3587H9.64107V5.7575H15.5311V23.2975H12.5861ZM29.0548 24.0138V20.0387H31.0623V27.1801H30.6379L29.0548 24.0138Z" fill="white"/>
<path d="M20.3516 34.9453C19.8337 34.9453 19.4141 35.3649 19.4141 35.8828V55.2966C19.4141 55.8145 19.8337 56.2341 20.3516 56.2341H35.8827C36.4006 56.2341 36.8202 55.8145 36.8202 55.2966V35.8828C36.8202 35.3649 36.4006 34.9453 35.8827 34.9453H20.3516ZM21.3532 54.3591C21.8116 51.0361 24.6702 48.4686 28.1171 48.4686C31.5641 48.4686 34.4227 51.0361 34.8811 54.3591H21.3532ZM25.1719 43.6484C25.1719 42.0244 26.4931 40.7031 28.1172 40.7031C29.7413 40.7031 31.0624 42.0244 31.0624 43.6484C31.0624 45.2724 29.7412 46.5936 28.1172 46.5936C26.4932 46.5936 25.1719 45.2724 25.1719 43.6484ZM31.3536 47.2175C32.3259 46.335 32.9374 45.0618 32.9374 43.6483C32.9374 40.9903 30.7751 38.828 28.1172 38.828C25.4593 38.828 23.2969 40.9904 23.2969 43.6483C23.2969 45.0618 23.9084 46.335 24.8808 47.2175C23.4608 47.7884 22.2249 48.7232 21.2892 49.906V36.8203H34.9453V49.906C34.0096 48.7234 32.7736 47.7884 31.3536 47.2175Z" fill="white"/>
<path d="M39.7656 40.703H47.5311C48.049 40.703 48.4686 40.2834 48.4686 39.7655C48.4686 39.2476 48.049 38.828 47.5311 38.828H39.7656C39.2477 38.828 38.8281 39.2476 38.8281 39.7655C38.8281 40.2834 39.2477 40.703 39.7656 40.703Z" fill="white"/>
<path d="M51.414 42.7109H39.7656C39.2477 42.7109 38.8281 43.1305 38.8281 43.6484C38.8281 44.1663 39.2477 44.5859 39.7656 44.5859H51.414C51.9319 44.5859 52.3515 44.1663 52.3515 43.6484C52.3515 43.1305 51.9318 42.7109 51.414 42.7109Z" fill="white"/>
<path d="M51.414 46.5936H39.7656C39.2477 46.5936 38.8281 47.0133 38.8281 47.5311C38.8281 48.049 39.2477 48.4686 39.7656 48.4686H51.414C51.9319 48.4686 52.3515 48.049 52.3515 47.5311C52.3515 47.0133 51.9318 46.5936 51.414 46.5936Z" fill="white"/>
<path d="M51.414 54.3591H39.7656C39.2477 54.3591 38.8281 54.7788 38.8281 55.2966C38.8281 55.8145 39.2477 56.2341 39.7656 56.2341H51.414C51.9319 56.2341 52.3515 55.8145 52.3515 55.2966C52.3515 54.7788 51.9318 54.3591 51.414 54.3591Z" fill="white"/>
<path d="M51.414 50.4765H39.7656C39.2477 50.4765 38.8281 50.8961 38.8281 51.414C38.8281 51.9319 39.2477 52.3515 39.7656 52.3515H51.414C51.9319 52.3515 52.3515 51.9319 52.3515 51.414C52.3515 50.8961 51.9318 50.4765 51.414 50.4765Z" fill="white"/>
<path d="M31.1003 12.0401C30.7345 11.6744 30.1414 11.674 29.7752 12.0395L22.0097 19.7901C21.6432 20.156 21.6425 20.7495 22.0083 21.1159C22.45 21.4825 22.8919 21.4829 23.334 21.1173L30.4367 14.0282L33.6573 17.2488C34.0233 17.6148 34.6169 17.6148 34.983 17.2488L45.0309 7.20087V8.82025C45.0309 9.33812 45.4505 9.75775 45.9684 9.75775C46.4863 9.75775 46.9059 9.33812 46.9059 8.82025V4.94012C46.9078 4.43338 46.4805 4 45.9684 4H42.0857C41.5678 4 41.1482 4.41962 41.1482 4.9375C41.1482 5.45537 41.5678 5.875 42.0857 5.875H43.7049L34.32 15.26L31.1003 12.0401Z" fill="white"/>
<path d="M22.7301 12.9925C22.6524 12.992 22.5756 12.9745 22.5045 12.9409C22.4334 12.9073 22.3695 12.8585 22.3168 12.7974L19.1643 9.16432C19.059 9.05047 19 8.89671 19 8.73646C19 8.57622 19.059 8.42246 19.1643 8.30861C19.2668 8.20597 19.4023 8.14952 19.5426 8.15097H21.1048C21.368 8.14601 21.6246 8.0617 21.8451 7.9077C22.0657 7.7537 22.2413 7.53624 22.3518 7.28024H20.103C19.9643 7.26365 19.8361 7.19285 19.7431 7.08137C19.65 6.96989 19.5985 6.82556 19.5985 6.67599C19.5985 6.52641 19.65 6.38209 19.7431 6.27061C19.8361 6.15913 19.9643 6.08833 20.103 6.07173H22.3868C22.2753 5.81714 22.0993 5.60123 21.8788 5.44861C21.6583 5.29599 21.4023 5.2128 21.1398 5.20851H19.5776C19.4389 5.19192 19.3107 5.12111 19.2176 5.00963C19.1246 4.89816 19.0731 4.75383 19.0731 4.60426C19.0731 4.45468 19.1246 4.31035 19.2176 4.19888C19.3107 4.0874 19.4389 4.01659 19.5776 4H24.4815C24.6202 4.01659 24.7484 4.0874 24.8415 4.19888C24.9345 4.31035 24.986 4.45468 24.986 4.60426C24.986 4.75383 24.9345 4.89816 24.8415 5.00963C24.7484 5.12111 24.6202 5.19192 24.4815 5.20851H23.2275C23.39 5.47146 23.5064 5.764 23.5708 6.07173H24.4955C24.6342 6.08833 24.7624 6.15913 24.8555 6.27061C24.9485 6.38209 25 6.52641 25 6.67599C25 6.82556 24.9485 6.96989 24.8555 7.08137C24.7624 7.19285 24.6342 7.26365 24.4955 7.28024H23.5778C23.4498 7.87062 23.1393 8.39729 22.6967 8.77475C22.2542 9.15221 21.7055 9.35827 21.1398 9.35948H20.8736L23.1785 12.0167C23.2833 12.1293 23.3421 12.2818 23.3421 12.4408C23.3421 12.5998 23.2833 12.7523 23.1785 12.8649C23.1161 12.9184 23.044 12.9574 22.9668 12.9794C22.8896 13.0013 22.809 13.0058 22.7301 12.9925Z" fill="white"/>
</svg>
