<svg width="64" height="64" viewBox="0 0 64 64" fill="none" xmlns="http://www.w3.org/2000/svg">
<path d="M56.4126 35.8875C57.8876 30.6625 57.1251 24.7875 54.3251 20.1375C54.0376 19.65 53.4001 19.4875 52.9001 19.775L37.9376 28.6375V11.2625C37.9376 10.6875 37.4751 10.225 36.9001 10.225C22.2251 9.98749 12.0626 26.2625 18.7251 39.325L17.9126 39.7625C17.9751 38.3125 16.8001 37.075 15.3376 37.0875H5.98756C4.73756 37.0875 3.67506 37.975 3.46256 39.2L0.162564 57.15C0.0250636 57.9 0.225064 58.675 0.712564 59.2625C1.20006 59.85 1.92506 60.1875 2.68756 60.1875H15.3376C16.7251 60.1875 17.8626 59.075 17.9001 57.7H43.8751C44.6626 57.7 45.4501 57.4375 46.0876 56.975L61.6251 45.4625C63.0251 44.425 63.8626 42.775 63.8626 41.0375C63.9876 37.2875 59.8001 34.4625 56.4126 35.8875ZM15.8376 57.625C15.8376 57.9 15.6126 58.125 15.3376 58.125H2.70006C2.35006 58.1 2.18756 57.875 2.21256 57.5375L5.50006 39.575C5.53756 39.3375 5.75006 39.175 5.98756 39.175H15.3501C15.6251 39.175 15.8501 39.4 15.8501 39.675V57.625H15.8376ZM35.8626 12.325V30.4625C35.8626 30.8375 36.0626 31.175 36.3876 31.3625C36.7126 31.55 37.1126 31.5375 37.4251 31.35L53.0376 22.1C55.5376 26.85 55.7501 32.8375 53.5501 37.7375L44.3876 44.525C44.0626 44.775 43.6501 44.875 43.2376 44.8375L33.4251 43.8375C37.3126 41.3125 36.6126 35.2375 32.1501 33.9125C30.7126 33.4625 29.2001 33.6125 27.8751 34.3375L20.5376 38.3375C14.8251 26.9875 23.2501 12.8125 35.8626 12.325ZM60.4001 43.8L44.8751 55.3C44.5876 55.5125 44.2376 55.625 43.8876 55.625H17.9126V42.1375L28.8626 36.1625C33.0376 34.1375 36.0626 39.925 31.9876 42.2875L30.0626 43.3375C29.0001 43.85 29.3376 45.5625 30.5001 45.625L43.0251 46.9C43.9376 46.9875 44.8751 46.7375 45.6251 46.1875L56.3251 38.2625C60.0501 35.6875 63.9876 40.9875 60.4001 43.8ZM12.9251 50.2875H9.37506C8.55006 50.2875 7.87506 50.9625 7.87506 51.7875V55.3375C7.87506 56.1625 8.55006 56.8375 9.37506 56.8375H12.9251C13.7501 56.8375 14.4251 56.1625 14.4251 55.3375V51.7875C14.4251 50.9625 13.7501 50.2875 12.9251 50.2875ZM12.3626 54.775H9.95006V52.375H12.3501V54.775H12.3626ZM40.3626 25.0875C40.5501 25.0875 40.7251 25.0375 40.8876 24.9375L57.4126 15.15C57.9001 14.875 58.0751 14.2 57.7751 13.725C54.1501 7.59999 47.4751 3.79999 40.3626 3.79999C39.7876 3.79999 39.3251 4.26249 39.3251 4.83749V24.0375C39.3126 24.6 39.8001 25.1 40.3626 25.0875ZM41.4001 5.91249C47.0501 6.23749 52.2751 9.22499 55.4376 13.9125L41.4001 22.225V5.91249ZM5.43756 25.6125H6.97506V32.6C6.97506 33.175 7.43756 33.6375 8.01256 33.6375H12.2876C12.8626 33.6375 13.3251 33.175 13.3251 32.6V25.6125H14.8626C15.6626 25.6375 16.1876 24.6625 15.7251 24.0125L11.0251 16.825C10.6501 16.2125 9.67506 16.2125 9.28756 16.825L4.57506 24C4.11256 24.6625 4.63756 25.6375 5.43756 25.6125ZM10.1376 19.275L12.9251 23.5375H12.2751C11.7001 23.5375 11.2376 24 11.2376 24.575V31.5625H9.03756V24.575C9.03756 24 8.57506 23.5375 8.00006 23.5375H7.35006L10.1376 19.275Z" fill="white"/>
</svg>
