<svg width="64" height="64" viewBox="0 0 64 64" fill="none" xmlns="http://www.w3.org/2000/svg">
<path d="M49 62H15C13.1441 61.9979 11.3649 61.2597 10.0526 59.9474C8.7403 58.6351 8.00212 56.8559 8 55V9C8.00212 7.14413 8.7403 5.36489 10.0526 4.05259C11.3649 2.7403 13.1441 2.00212 15 2H49C50.8559 2.00212 52.6351 2.7403 53.9474 4.05259C55.2597 5.36489 55.9979 7.14413 56 9V55C55.9979 56.8559 55.2597 58.6351 53.9474 59.9474C52.6351 61.2597 50.8559 61.9979 49 62ZM15 4C13.6744 4.00159 12.4036 4.52888 11.4662 5.46622C10.5289 6.40356 10.0016 7.6744 10 9V55C10.0016 56.3256 10.5289 57.5964 11.4662 58.5338C12.4036 59.4711 13.6744 59.9984 15 60H49C50.3256 59.9984 51.5964 59.4711 52.5338 58.5338C53.4711 57.5964 53.9984 56.3256 54 55V9C53.9984 7.6744 53.4711 6.40356 52.5338 5.46622C51.5964 4.52888 50.3256 4.00159 49 4H15Z" fill="white"/>
<path d="M35 58H29C28.2044 58 27.4413 57.6839 26.8787 57.1213C26.3161 56.5587 26 55.7956 26 55V51C26 50.2044 26.3161 49.4413 26.8787 48.8787C27.4413 48.3161 28.2044 48 29 48H35C35.7956 48 36.5587 48.3161 37.1213 48.8787C37.6839 49.4413 38 50.2044 38 51V55C38 55.7956 37.6839 56.5587 37.1213 57.1213C36.5587 57.6839 35.7956 58 35 58ZM29 50C28.7348 50 28.4804 50.1054 28.2929 50.2929C28.1054 50.4804 28 50.7348 28 51V55C28 55.2652 28.1054 55.5196 28.2929 55.7071C28.4804 55.8946 28.7348 56 29 56H35C35.2652 56 35.5196 55.8946 35.7071 55.7071C35.8946 55.5196 36 55.2652 36 55V51C36 50.7348 35.8946 50.4804 35.7071 50.2929C35.5196 50.1054 35.2652 50 35 50H29Z" fill="white"/>
<path d="M21 58H15C14.2044 58 13.4413 57.6839 12.8787 57.1213C12.3161 56.5587 12 55.7956 12 55V51C12 50.2044 12.3161 49.4413 12.8787 48.8787C13.4413 48.3161 14.2044 48 15 48H21C21.7956 48 22.5587 48.3161 23.1213 48.8787C23.6839 49.4413 24 50.2044 24 51V55C24 55.7956 23.6839 56.5587 23.1213 57.1213C22.5587 57.6839 21.7956 58 21 58ZM15 50C14.7348 50 14.4804 50.1054 14.2929 50.2929C14.1054 50.4804 14 50.7348 14 51V55C14 55.2652 14.1054 55.5196 14.2929 55.7071C14.4804 55.8946 14.7348 56 15 56H21C21.2652 56 21.5196 55.8946 21.7071 55.7071C21.8946 55.5196 22 55.2652 22 55V51C22 50.7348 21.8946 50.4804 21.7071 50.2929C21.5196 50.1054 21.2652 50 21 50H15Z" fill="white"/>
<path d="M49 58H43C42.2044 58 41.4413 57.6839 40.8787 57.1213C40.3161 56.5587 40 55.7956 40 55V39C40 38.2044 40.3161 37.4413 40.8787 36.8787C41.4413 36.3161 42.2044 36 43 36H49C49.7956 36 50.5587 36.3161 51.1213 36.8787C51.6839 37.4413 52 38.2044 52 39V55C52 55.7956 51.6839 56.5587 51.1213 57.1213C50.5587 57.6839 49.7956 58 49 58ZM43 38C42.7348 38 42.4804 38.1054 42.2929 38.2929C42.1054 38.4804 42 38.7348 42 39V55C42 55.2652 42.1054 55.5196 42.2929 55.7071C42.4804 55.8946 42.7348 56 43 56H49C49.2652 56 49.5196 55.8946 49.7071 55.7071C49.8946 55.5196 50 55.2652 50 55V39C50 38.7348 49.8946 38.4804 49.7071 38.2929C49.5196 38.1054 49.2652 38 49 38H43Z" fill="white"/>
<path d="M35 46H29C28.2044 46 27.4413 45.6839 26.8787 45.1213C26.3161 44.5587 26 43.7956 26 43V39C26 38.2044 26.3161 37.4413 26.8787 36.8787C27.4413 36.3161 28.2044 36 29 36H35C35.7956 36 36.5587 36.3161 37.1213 36.8787C37.6839 37.4413 38 38.2044 38 39V43C38 43.7956 37.6839 44.5587 37.1213 45.1213C36.5587 45.6839 35.7956 46 35 46ZM29 38C28.7348 38 28.4804 38.1054 28.2929 38.2929C28.1054 38.4804 28 38.7348 28 39V43C28 43.2652 28.1054 43.5196 28.2929 43.7071C28.4804 43.8946 28.7348 44 29 44H35C35.2652 44 35.5196 43.8946 35.7071 43.7071C35.8946 43.5196 36 43.2652 36 43V39C36 38.7348 35.8946 38.4804 35.7071 38.2929C35.5196 38.1054 35.2652 38 35 38H29Z" fill="white"/>
<path d="M21 46H15C14.2044 46 13.4413 45.6839 12.8787 45.1213C12.3161 44.5587 12 43.7956 12 43V39C12 38.2044 12.3161 37.4413 12.8787 36.8787C13.4413 36.3161 14.2044 36 15 36H21C21.7956 36 22.5587 36.3161 23.1213 36.8787C23.6839 37.4413 24 38.2044 24 39V43C24 43.7956 23.6839 44.5587 23.1213 45.1213C22.5587 45.6839 21.7956 46 21 46ZM15 38C14.7348 38 14.4804 38.1054 14.2929 38.2929C14.1054 38.4804 14 38.7348 14 39V43C14 43.2652 14.1054 43.5196 14.2929 43.7071C14.4804 43.8946 14.7348 44 15 44H21C21.2652 44 21.5196 43.8946 21.7071 43.7071C21.8946 43.5196 22 43.2652 22 43V39C22 38.7348 21.8946 38.4804 21.7071 38.2929C21.5196 38.1054 21.2652 38 21 38H15Z" fill="white"/>
<path d="M35 34H29C28.2044 34 27.4413 33.6839 26.8787 33.1213C26.3161 32.5587 26 31.7956 26 31V27C26 26.2044 26.3161 25.4413 26.8787 24.8787C27.4413 24.3161 28.2044 24 29 24H35C35.7956 24 36.5587 24.3161 37.1213 24.8787C37.6839 25.4413 38 26.2044 38 27V31C38 31.7956 37.6839 32.5587 37.1213 33.1213C36.5587 33.6839 35.7956 34 35 34ZM29 26C28.7348 26 28.4804 26.1054 28.2929 26.2929C28.1054 26.4804 28 26.7348 28 27V31C28 31.2652 28.1054 31.5196 28.2929 31.7071C28.4804 31.8946 28.7348 32 29 32H35C35.2652 32 35.5196 31.8946 35.7071 31.7071C35.8946 31.5196 36 31.2652 36 31V27C36 26.7348 35.8946 26.4804 35.7071 26.2929C35.5196 26.1054 35.2652 26 35 26H29Z" fill="white"/>
<path d="M21 34H15C14.2044 34 13.4413 33.6839 12.8787 33.1213C12.3161 32.5587 12 31.7956 12 31V27C12 26.2044 12.3161 25.4413 12.8787 24.8787C13.4413 24.3161 14.2044 24 15 24H21C21.7956 24 22.5587 24.3161 23.1213 24.8787C23.6839 25.4413 24 26.2044 24 27V31C24 31.7956 23.6839 32.5587 23.1213 33.1213C22.5587 33.6839 21.7956 34 21 34ZM15 26C14.7348 26 14.4804 26.1054 14.2929 26.2929C14.1054 26.4804 14 26.7348 14 27V31C14 31.2652 14.1054 31.5196 14.2929 31.7071C14.4804 31.8946 14.7348 32 15 32H21C21.2652 32 21.5196 31.8946 21.7071 31.7071C21.8946 31.5196 22 31.2652 22 31V27C22 26.7348 21.8946 26.4804 21.7071 26.2929C21.5196 26.1054 21.2652 26 21 26H15Z" fill="white"/>
<path d="M49 34H43C42.2044 34 41.4413 33.6839 40.8787 33.1213C40.3161 32.5587 40 31.7956 40 31V27C40 26.2044 40.3161 25.4413 40.8787 24.8787C41.4413 24.3161 42.2044 24 43 24H49C49.7956 24 50.5587 24.3161 51.1213 24.8787C51.6839 25.4413 52 26.2044 52 27V31C52 31.7956 51.6839 32.5587 51.1213 33.1213C50.5587 33.6839 49.7956 34 49 34ZM43 26C42.7348 26 42.4804 26.1054 42.2929 26.2929C42.1054 26.4804 42 26.7348 42 27V31C42 31.2652 42.1054 31.5196 42.2929 31.7071C42.4804 31.8946 42.7348 32 43 32H49C49.2652 32 49.5196 31.8946 49.7071 31.7071C49.8946 31.5196 50 31.2652 50 31V27C50 26.7348 49.8946 26.4804 49.7071 26.2929C49.5196 26.1054 49.2652 26 49 26H43Z" fill="white"/>
<path d="M49 20H15C14.2044 20 13.4413 19.6839 12.8787 19.1213C12.3161 18.5587 12 17.7956 12 17V9C12 8.20435 12.3161 7.44129 12.8787 6.87868C13.4413 6.31607 14.2044 6 15 6H49C49.7956 6 50.5587 6.31607 51.1213 6.87868C51.6839 7.44129 52 8.20435 52 9V17C52 17.7956 51.6839 18.5587 51.1213 19.1213C50.5587 19.6839 49.7956 20 49 20ZM15 8C14.7348 8 14.4804 8.10536 14.2929 8.29289C14.1054 8.48043 14 8.73478 14 9V17C14 17.2652 14.1054 17.5196 14.2929 17.7071C14.4804 17.8946 14.7348 18 15 18H49C49.2652 18 49.5196 17.8946 49.7071 17.7071C49.8946 17.5196 50 17.2652 50 17V9C50 8.73478 49.8946 8.48043 49.7071 8.29289C49.5196 8.10536 49.2652 8 49 8H15Z" fill="white"/>
<path d="M46 17C45.2044 17 44.4413 16.6839 43.8787 16.1213C43.3161 15.5587 43 14.7956 43 14V12C43 11.2044 43.3161 10.4413 43.8787 9.87868C44.4413 9.31607 45.2044 9 46 9C46.7956 9 47.5587 9.31607 48.1213 9.87868C48.6839 10.4413 49 11.2044 49 12V14C49 14.7956 48.6839 15.5587 48.1213 16.1213C47.5587 16.6839 46.7956 17 46 17ZM46 11C45.7348 11 45.4804 11.1054 45.2929 11.2929C45.1054 11.4804 45 11.7348 45 12V14C45 14.2652 45.1054 14.5196 45.2929 14.7071C45.4804 14.8946 45.7348 15 46 15C46.2652 15 46.5196 14.8946 46.7071 14.7071C46.8946 14.5196 47 14.2652 47 14V12C47 11.7348 46.8946 11.4804 46.7071 11.2929C46.5196 11.1054 46.2652 11 46 11Z" fill="white"/>
</svg>
