<svg width="181" height="180" viewBox="0 0 181 180" fill="none" xmlns="http://www.w3.org/2000/svg">
<path d="M22.3355 117.648C32.3991 128.196 46.8791 134.712 61.2867 136.26V163.44C61.2867 168.552 65.486 172.728 70.6264 172.728H147.189C150.375 172.728 150.52 167.652 147.189 167.652H70.6625C68.3095 167.652 66.4271 165.744 66.4271 163.44V124.56C66.4271 122.22 68.3457 120.348 70.6625 120.348H168.185C170.538 120.348 172.421 122.256 172.421 124.56V163.44C172.421 165.78 170.502 167.652 168.185 167.652H160.837C157.651 167.652 157.506 172.728 160.837 172.728H168.185C173.326 172.728 177.525 168.552 177.525 163.44V124.56C177.525 119.448 173.326 115.272 168.185 115.272H163.335C163.335 105.264 163.335 91.404 163.335 81.396C163.335 79.992 162.176 78.876 160.801 78.876H135.75C135.75 73.584 135.75 62.496 135.75 57.132C135.75 55.728 134.592 54.612 133.216 54.612H131.044C123.696 27.252 96.9799 6.84 68.3819 7.308C60.4541 7.308 52.7435 8.712 45.3949 11.484C42.3903 12.6 44.0917 17.388 47.2049 16.236C53.1779 14.004 59.4405 12.708 65.8479 12.456V65.88L27.8379 28.044C30.2271 25.848 32.8335 23.832 35.5847 22.032C38.2635 20.304 35.5847 15.984 32.7973 17.784C-1.48406 39.276 -6.62446 89.604 22.3355 117.648ZM158.23 103.14H135.75V96.084H158.23V103.14ZM108.166 83.952H130.646V91.008H108.166V83.952ZM108.166 96.084H130.646V103.14H108.166V96.084ZM130.646 78.876H108.166V71.82H130.646V78.876ZM130.646 59.652V66.708H108.166V59.652H130.646ZM103.062 103.14H80.5814V96.084H103.062V103.14ZM80.5814 108.216H103.062V115.272H80.5814V108.216ZM108.166 108.216H130.646V115.272H108.166V108.216ZM135.75 115.272V108.216H158.23V115.272H135.75ZM158.23 91.008H135.75V83.952H158.23V91.008ZM125.723 54.576H105.632C104.22 54.576 103.098 55.728 103.098 57.096C103.098 67.104 103.098 80.964 103.098 90.972H78.0835C76.6717 90.972 75.5495 92.124 75.5495 93.492C75.5495 98.856 75.5495 109.908 75.5495 115.236H70.6987C65.5583 115.236 61.3591 119.412 61.3591 124.524V131.112C48.8339 129.636 37.1775 124.308 27.8741 115.812L70.2281 73.692C70.6987 73.224 70.9883 72.576 70.9883 71.892V12.42C95.7854 13.068 118.736 30.924 125.723 54.576ZM24.2179 31.644L64.7619 71.964L24.2179 112.284C3.25814 90.54 3.40294 53.208 24.2179 31.644Z" fill="#8D572D"/>
<path d="M115.189 134.028C118.555 133.92 118.555 129.06 115.189 128.952H104.546C103.134 128.952 102.012 130.104 102.012 131.472V156.6C102.012 158.004 103.17 159.12 104.546 159.12H115.189C118.555 159.012 118.555 154.152 115.189 154.044H107.116V146.556H114.428C117.795 146.448 117.795 141.588 114.428 141.48H107.116V133.992H115.189V134.028Z" fill="#8D572D"/>
<path d="M75.0791 156.204C75.0791 157.716 75.9841 159.156 77.6855 159.156C77.9027 159.156 82.8983 159.12 84.8893 159.084C101.288 158.796 101.288 129.204 84.6359 129.456H77.6493C76.2013 129.456 75.1153 130.608 75.1153 132.012L75.0791 156.204ZM84.6359 134.568C94.6995 134.388 94.4461 153.9 84.7807 154.044C83.7309 154.08 81.7761 154.08 80.1833 154.08C80.1471 147.564 80.1833 141.084 80.1833 134.568H84.6359Z" fill="#8D572D"/>
<path d="M132.745 128.736H125.361C123.949 128.736 122.827 129.888 122.827 131.256C122.827 137.52 122.827 150.3 122.827 156.6C122.827 157.86 124.094 159.12 125.397 159.12H134.085C143.28 159.048 146.936 147.312 139.515 142.092C143.642 136.728 139.66 128.7 132.745 128.736ZM132.745 133.812C137.126 133.992 137.126 140.22 132.745 140.4C131.116 140.4 129.524 140.4 127.895 140.4V133.812H132.745ZM134.049 154.044C132.926 154.044 130.03 154.044 127.895 154.08V145.512C129.958 145.512 131.985 145.512 134.049 145.512C139.768 145.728 139.768 153.828 134.049 154.044Z" fill="#8D572D"/>
<path d="M154.103 159.264C155.515 159.264 156.637 158.112 156.637 156.744V133.92H161.162C164.529 133.812 164.529 128.952 161.162 128.844H147.081C143.714 128.952 143.714 133.812 147.081 133.92H151.533V156.708C151.569 158.148 152.692 159.264 154.103 159.264Z" fill="#8D572D"/>
</svg>
