<svg width="64" height="64" viewBox="0 0 64 64" fill="none" xmlns="http://www.w3.org/2000/svg">
<g clip-path="url(#clip0_4925_2)">
<mask id="mask0_4925_2" style="mask-type:luminance" maskUnits="userSpaceOnUse" x="0" y="0" width="64" height="64">
<path d="M64 0H0V64H64V0Z" fill="white"/>
</mask>
<g mask="url(#mask0_4925_2)">
<mask id="mask1_4925_2" style="mask-type:luminance" maskUnits="userSpaceOnUse" x="0" y="0" width="64" height="64">
<path d="M64 0H0V64H64V0Z" fill="white"/>
</mask>
<g mask="url(#mask1_4925_2)">
<path d="M61.4049 18.1894C59.425 15.8142 56.5172 14.4516 53.4245 14.4516C50.8222 14.4516 48.3665 15.4013 46.4516 17.1386C44.9889 15.8121 43.2093 14.9481 41.2903 14.6126V6.19355H33.0323C33.0323 5.05497 32.1063 4.12903 30.9677 4.12903H25.7022C25.2232 1.77652 23.1381 0 20.6452 0C18.1523 0 16.0671 1.77652 15.5881 4.12903H10.3226C9.184 4.12903 8.25806 5.05497 8.25806 6.19355H0V64H41.2903V41.2428L46.4516 45.759L60.191 33.7373C62.6116 31.6181 64 28.5585 64 25.3419C64 22.7386 63.0813 20.2023 61.4049 18.1894ZM39.2258 8.25806V14.465C38.5249 14.4815 37.8333 14.561 37.1613 14.7138V10.3226H33.0323V8.25806H39.2258ZM14.2617 26.8387C13.8343 25.6403 12.6988 24.7742 11.3548 24.7742C9.64748 24.7742 8.25806 26.1636 8.25806 27.871C8.25806 29.5783 9.64748 30.9677 11.3548 30.9677C12.6988 30.9677 13.8343 30.1017 14.2617 28.9032H15.8895L18.9688 35.0627L20.9383 26.1966L22.0222 28.9032H25.2439L29.887 35.8493L31.9959 33.0374C32.2261 33.2779 32.4604 33.5154 32.7133 33.7363L35.0968 35.8235V57.8064H6.19355V12.3871H35.0968V15.4199C33.7239 16.0588 32.4893 16.9992 31.488 18.2008C29.8219 20.2023 28.9032 22.7386 28.9032 25.3419C28.9032 27.4973 29.5391 29.5742 30.6787 31.3528L29.984 32.2787L26.3463 26.8387H23.4188L20.3737 19.2237L18.2142 28.9383L17.1654 26.8387H14.2617ZM12.3871 27.871C12.3871 28.4397 11.9246 28.9032 11.3548 28.9032C10.785 28.9032 10.3226 28.4397 10.3226 27.871C10.3226 27.3022 10.785 26.8387 11.3548 26.8387C11.9246 26.8387 12.3871 27.3022 12.3871 27.871ZM17.5484 6.19355V5.16129C17.5484 3.45394 18.9378 2.06452 20.6452 2.06452C22.3525 2.06452 23.7419 3.45394 23.7419 5.16129V6.19355H30.9677V10.3226H10.3226V6.19355H17.5484ZM39.2258 61.9355H2.06452V8.25806H8.25806V10.3226H4.12903V59.871H37.1613V37.6299L39.2258 39.4364V61.9355ZM58.8315 32.1837L46.4516 43.0152L34.0717 32.1837C33.7786 31.9267 33.5102 31.648 33.2552 31.36L33.5484 30.9677H36.6452L39.2258 27.5272L41.8064 30.9677H43.5448C43.9721 32.1662 45.1076 33.0323 46.4516 33.0323C48.159 33.0323 49.5484 31.6428 49.5484 29.9355C49.5484 28.2281 48.159 26.8387 46.4516 26.8387C45.1076 26.8387 43.9721 27.7048 43.5448 28.9032H42.8387L39.2258 24.0857L35.6129 28.9032H32.5161L32.0217 29.5628C31.3445 28.2735 30.9677 26.8315 30.9677 25.3419C30.9677 23.2196 31.7161 21.153 33.0849 19.5107C34.6704 17.6083 37.0013 16.5161 39.4787 16.5161C41.7022 16.5161 43.7935 17.3822 45.3646 18.9533L46.4516 20.0413L47.5375 18.9543C49.1097 17.3822 51.201 16.5161 53.4245 16.5161C55.9019 16.5161 58.2328 17.6083 59.8286 19.5231C61.1871 21.1541 61.9355 23.2206 61.9355 25.3419C61.9355 27.9628 60.8041 30.4568 58.8315 32.1837ZM45.4194 29.9355C45.4194 29.3667 45.8818 28.9032 46.4516 28.9032C47.0214 28.9032 47.4839 29.3667 47.4839 29.9355C47.4839 30.5043 47.0214 30.9677 46.4516 30.9677C45.8818 30.9677 45.4194 30.5043 45.4194 29.9355Z" fill="white"/>
<path d="M8.2583 14.4517H12.3873V16.5162H8.2583V14.4517Z" fill="white"/>
<path d="M14.4517 14.4517H18.5807V16.5162H14.4517V14.4517Z" fill="white"/>
<path d="M8.2583 18.5808H16.5164V20.6453H8.2583V18.5808Z" fill="white"/>
<path d="M8.2583 45.4194H16.5164V37.1614H8.2583V45.4194ZM11.7824 43.3549L14.4518 40.6855V43.3549H11.7824ZM12.9922 39.2259L10.3228 41.8953V39.2259H12.9922Z" fill="white"/>
<path d="M8.2583 55.742H16.5164V47.4839H8.2583V55.742ZM11.7824 53.6774L14.4518 51.008V53.6774H11.7824ZM12.9922 49.5484L10.3228 52.2178V49.5484H12.9922Z" fill="white"/>
<path d="M18.5806 53.6775H33.0322V55.742H18.5806V53.6775Z" fill="white"/>
<path d="M18.5806 49.5483H30.9677V51.6128H18.5806V49.5483Z" fill="white"/>
<path d="M18.5806 43.3547H26.8386V45.4192H18.5806V43.3547Z" fill="white"/>
<path d="M18.5806 39.2258H24.7741V41.2903H18.5806V39.2258Z" fill="white"/>
<path d="M26.8389 39.2258H33.0324V41.2903H26.8389V39.2258Z" fill="white"/>
</g>
</g>
</g>
<defs>
<clipPath id="clip0_4925_2">
<rect width="64" height="64" fill="white"/>
</clipPath>
</defs>
</svg>
