<svg width="64" height="64" viewBox="0 0 64 64" fill="none" xmlns="http://www.w3.org/2000/svg">
<path fill-rule="evenodd" clip-rule="evenodd" d="M43.6283 10.9253C43.0531 10.3499 42.0639 10.7588 42.0639 11.5733C42.0639 12.3878 43.0529 12.7967 43.6283 12.2213C43.9861 11.8635 43.9861 11.2829 43.6283 10.9253ZM42.9803 9.06007C45.2117 9.06007 46.3372 11.7708 44.7574 13.3505C43.1778 14.9303 40.4669 13.8048 40.4669 11.5734C40.4669 10.1855 41.5924 9.06007 42.9803 9.06007ZM49.8286 17.1288C49.2532 16.5534 48.2642 16.9624 48.2642 17.7768C48.2642 18.5912 49.2531 19.0003 49.8286 18.4248C50.1863 18.067 50.1863 17.4864 49.8286 17.1288ZM49.1806 15.2635C51.4118 15.2635 52.5376 17.9742 50.9577 19.554C49.3778 21.1339 46.6672 20.0082 46.6672 17.7769C46.6672 16.389 47.7927 15.2635 49.1806 15.2635ZM23.1516 40.2267C20.2473 37.3225 15.5383 37.3224 12.6341 40.2267C9.72994 43.1308 9.72994 47.8399 12.6341 50.7442C15.5382 53.6483 20.2473 53.6483 23.1516 50.7442C26.0558 47.8399 26.0557 43.1309 23.1516 40.2267ZM17.8928 36.4515C12.9038 36.4515 8.85894 40.4963 8.85894 45.4854C8.85894 50.4745 12.9037 54.5193 17.8928 54.5193C22.8819 54.5193 26.9267 50.4745 26.9267 45.4854C26.9267 40.4963 22.8819 36.4515 17.8928 36.4515ZM44.0437 19.6978C43.8249 20.0784 43.3389 20.2098 42.9583 19.9909C42.5777 19.772 42.4463 19.2862 42.6652 18.9055L48.1172 9.46244C48.3359 9.08182 48.8219 8.95044 49.2027 9.16932C49.5833 9.38807 49.7147 9.87407 49.4958 10.2547L44.0437 19.6978ZM53.0173 7.73832C56.8483 11.5693 56.8483 17.7809 53.0173 21.6119C49.1863 25.4429 42.9746 25.4429 39.1437 21.6119C35.3127 17.7809 35.3127 11.5693 39.1437 7.73832C42.9747 3.90732 49.1863 3.90732 53.0173 7.73832ZM46.0804 3.26807C52.3802 3.26807 57.4874 8.37532 57.4874 14.675C57.4874 20.9748 52.3802 26.082 46.0804 26.082C39.7807 26.082 34.6734 20.9748 34.6734 14.675C34.6734 8.37532 39.7807 3.26807 46.0804 3.26807ZM24.8831 29.8057H11.7317C10.9851 29.8057 10.5808 30.7195 11.1276 31.2662C11.2832 31.4218 11.4971 31.5183 11.7317 31.5183H24.8831C25.6297 31.5183 26.0338 30.6043 25.4873 30.0578C25.3318 29.9022 25.1178 29.8057 24.8831 29.8057ZM12.8938 28.2087H23.8971C25.2924 26.1604 26.5457 23.4125 26.8821 21.0265C26.3667 20.7624 25.8546 20.4149 25.3424 20.0673C24.5116 19.5034 23.6807 18.9395 23.0934 18.9244C21.8869 18.8934 20.5961 21.283 18.5916 21.2317C16.6497 21.1818 14.5402 18.7047 13.2387 18.6713C12.2551 18.646 11.1191 20.3124 9.70619 20.8173C9.94894 23.2947 11.4003 26.155 12.8938 28.2087ZM43.3449 47.4283L46.4431 44.33C46.7548 44.0183 47.2604 44.0183 47.5722 44.33C47.8839 44.6418 47.8839 45.1474 47.5722 45.4592L44.4734 48.5579C44.6807 48.945 44.7983 49.3893 44.7983 49.8578H44.8014C44.8014 52.3057 41.8278 53.5402 40.0949 51.8073C38.3624 50.0747 39.6044 47.1008 42.0444 47.1008C42.5141 47.1008 42.9569 47.2193 43.3449 47.4283ZM42.8969 49.0682C42.6534 48.8498 42.4459 48.6979 42.0443 48.6979C41.4139 48.6979 40.8846 49.2055 40.8846 49.8364C40.8996 50.9485 42.1659 51.3772 42.8648 50.6783C43.0747 50.4684 43.2046 50.1783 43.2046 49.8579H43.2076C43.2067 49.5529 43.0913 49.2782 42.8969 49.0682ZM32.2206 34.4357C31.3339 34.9987 30.4992 35.6354 29.7251 36.3374C31.0233 38.362 32.1373 40.567 32.9711 42.7419C33.7141 41.7964 34.6026 40.9694 35.6032 40.2945L32.2206 34.4357ZM41.2458 31.6049V38.3525C39.7266 38.457 38.2863 38.8573 36.9819 39.4965L33.6012 33.6409C35.9411 32.4262 38.5332 31.7208 41.2458 31.6049ZM50.4888 33.6417C48.1836 32.4449 45.5918 31.7228 42.8428 31.6052V38.3524C44.3652 38.4565 45.8066 38.856 47.1098 39.4942L50.4888 33.6417ZM57.4866 40.0225L51.6107 43.4149C50.7791 42.1825 49.7184 41.122 48.4859 40.2905L51.8668 34.4348C54.1218 35.8663 56.0421 37.7763 57.4866 40.0225ZM60.3696 49.0595C60.2411 46.3035 59.5038 43.7062 58.2892 41.3988L52.4087 44.7939C53.0464 46.0968 53.4457 47.5377 53.5498 49.0595H60.3696ZM28.8251 35.0053C36.6847 28.0378 48.6347 28.3535 56.1148 35.8053C57.3207 37.0065 58.4226 38.4222 59.2816 39.9047C59.2877 39.9152 59.2933 39.9258 59.2989 39.9364C60.9662 42.8095 61.9366 46.1378 61.9791 49.6898C61.9907 49.744 61.9968 49.8003 61.9968 49.8579C61.9968 50.2989 61.6393 50.6564 61.1983 50.6564H52.7787C52.3377 50.6564 51.9802 50.2989 51.9802 49.8579C51.9802 44.3703 47.5318 39.9219 42.0443 39.9219C38.5906 39.9219 35.4318 41.6887 33.6143 44.5925C34.8066 48.4304 35.0206 52.0347 33.7322 54.266C28.7476 62.8992 7.98982 62.8743 3.01982 54.266C1.47694 51.5938 1.80719 47.7507 3.22269 43.8134C4.67407 39.7762 7.27519 35.5975 10.1357 32.5225C8.64894 31.2448 9.19319 28.8607 11.0313 28.3107C9.49107 25.9748 8.09407 22.8715 8.08082 20.1844C8.07919 19.7555 8.41719 19.4048 8.84194 19.3868C10.0324 19.3317 11.3048 17.0299 13.2758 17.0804C15.2176 17.1303 17.3271 19.6074 18.6287 19.6408C19.8351 19.6718 21.1263 17.2822 23.1307 17.3337C24.8648 17.3782 26.6009 19.2758 28.0097 19.7882C28.3541 19.913 28.5598 20.2508 28.5323 20.599H28.5337C28.3343 23.1334 27.1183 26.072 25.7041 28.3504C27.3496 28.9383 27.8897 31.0297 26.6777 32.3315C27.4256 33.1503 28.1452 34.0502 28.8251 35.0053ZM28.0572 36.692C28.0398 36.6689 28.0238 36.645 28.0093 36.6205C27.1436 35.3324 26.2014 34.1353 25.2118 33.0934C25.1043 33.1079 24.9946 33.1154 24.8832 33.1154H11.7717C8.86419 36.0783 6.17944 40.2905 4.72007 44.3502C3.45269 47.8757 3.11557 51.2454 4.39869 53.4678C5.14244 54.7559 6.33007 55.828 7.80719 56.6809C13.4726 59.9522 23.2734 59.9589 28.9408 56.6869C30.4188 55.8335 31.6079 54.7598 32.3538 53.4679C33.4381 51.5899 33.1519 48.315 31.9983 44.7627L31.7881 44.139C30.9043 41.6135 29.6047 39.008 28.0572 36.692Z" fill="white"/>
<path d="M18.7273 49.433C18.6496 49.4325 18.5729 49.416 18.5019 49.3846C18.4308 49.3531 18.367 49.3073 18.3143 49.25L15.1642 45.843C15.059 45.7362 15 45.592 15 45.4417C15 45.2915 15.059 45.1473 15.1642 45.0405C15.2666 44.9443 15.402 44.8913 15.5422 44.8927H17.1032C17.3662 44.888 17.6226 44.809 17.843 44.6645C18.0634 44.5201 18.2388 44.3162 18.3493 44.0761H16.1022C15.9636 44.0606 15.8355 43.9942 15.7425 43.8896C15.6495 43.7851 15.5981 43.6497 15.5981 43.5095C15.5981 43.3692 15.6495 43.2339 15.7425 43.1293C15.8355 43.0248 15.9636 42.9584 16.1022 42.9428H18.3843C18.2728 42.7041 18.0969 42.5016 17.8766 42.3585C17.6563 42.2154 17.4005 42.1373 17.1382 42.1333H15.5772C15.4385 42.1178 15.3105 42.0514 15.2175 41.9468C15.1245 41.8423 15.0731 41.7069 15.0731 41.5667C15.0731 41.4264 15.1245 41.291 15.2175 41.1865C15.3105 41.082 15.4385 41.0156 15.5772 41H20.4773C20.616 41.0156 20.744 41.082 20.837 41.1865C20.93 41.291 20.9814 41.4264 20.9814 41.5667C20.9814 41.7069 20.93 41.8423 20.837 41.9468C20.744 42.0514 20.616 42.1178 20.4773 42.1333H19.2243C19.3867 42.3799 19.5029 42.6542 19.5673 42.9428H20.4913C20.63 42.9584 20.758 43.0248 20.851 43.1293C20.944 43.2339 20.9954 43.3692 20.9954 43.5095C20.9954 43.6497 20.944 43.7851 20.851 43.8896C20.758 43.9942 20.63 44.0606 20.4913 44.0761H19.5743C19.4464 44.6298 19.1362 45.1237 18.6939 45.4776C18.2517 45.8316 17.7034 46.0249 17.1382 46.026H16.8722L19.1753 48.5179C19.28 48.6234 19.3388 48.7665 19.3388 48.9156C19.3388 49.0647 19.28 49.2077 19.1753 49.3133C19.113 49.3635 19.041 49.4 18.9638 49.4206C18.8867 49.4412 18.8061 49.4454 18.7273 49.433Z" fill="white"/>
</svg>
