<svg width="185" height="184" viewBox="0 0 185 184" fill="none" xmlns="http://www.w3.org/2000/svg">
<path d="M114.144 91.6406L112.084 90.4906C112.12 90.0234 112.156 89.5562 112.156 89.125C112.156 88.6578 112.12 88.2266 112.084 87.7594L114.144 86.6094C115.3 85.9625 115.878 84.6328 115.517 83.375C114.433 79.3141 112.229 75.6125 109.157 72.7375C108.254 71.875 106.845 71.6953 105.761 72.3062L103.701 73.6C102.834 73.025 101.931 72.5219 100.991 72.0547V69.7547C100.991 68.4609 100.124 67.3109 98.8594 66.9875C94.7041 65.8734 90.3321 65.8734 86.2129 66.9875C84.9483 67.3109 84.0811 68.4609 84.0811 69.7547V72.0187C83.1778 72.4141 82.3106 72.9172 81.4795 73.4922L79.2754 72.2703C78.1553 71.6594 76.7822 71.8391 75.8789 72.7016C72.8076 75.6125 70.6035 79.2781 69.5196 83.3391C69.1944 84.5969 69.7363 85.9625 70.8926 86.5734L72.9522 87.7234C72.916 88.1906 72.8799 88.6578 72.8799 89.0891C72.8799 89.5562 72.916 90.0234 72.9522 90.4547L70.8926 91.6047C69.7363 92.2516 69.1582 93.5812 69.5196 94.875C70.6035 98.9359 72.8076 102.637 75.8789 105.512C76.7822 106.375 78.1914 106.555 79.2754 105.944L81.335 104.65C82.2022 105.225 83.1055 105.728 84.0449 106.195V108.495C84.0449 109.789 84.9121 110.939 86.1768 111.262C88.2364 111.802 90.3682 112.089 92.5 112.089H92.7891C94.8125 112.053 96.836 111.766 98.8233 111.227C100.088 110.903 100.955 109.753 100.955 108.459V106.195C101.858 105.8 102.726 105.297 103.557 104.722L105.761 105.944C106.881 106.555 108.254 106.375 109.157 105.512C112.229 102.602 114.433 98.9359 115.517 94.875C115.878 93.6531 115.3 92.2875 114.144 91.6406ZM106.122 86.7172C106.447 88.2984 106.447 89.9156 106.122 91.4969C105.869 92.7187 106.447 93.9406 107.567 94.5516L109.266 95.4859C108.615 97.0672 107.712 98.5047 106.628 99.8344L106.411 99.7266C104.568 98.6844 102.256 98.7562 100.485 99.9062C99.835 100.337 99.1485 100.733 98.4258 101.056C96.4746 101.955 95.21 103.895 95.21 106.052V106.159C94.3789 106.267 93.584 106.339 92.753 106.375C91.7774 106.375 90.8018 106.303 89.8262 106.195V106.087C89.8262 103.931 88.5977 101.991 86.6104 101.092C85.8877 100.769 85.2012 100.373 84.5508 99.9422C82.7803 98.7922 80.4678 98.7203 78.625 99.7625L78.4082 99.8703C77.3242 98.5766 76.4209 97.1031 75.7705 95.5219L77.4688 94.5875C78.5528 93.9766 79.1309 92.7547 78.9141 91.5328C78.5889 89.9516 78.5889 88.2984 78.9141 86.7172C79.1309 85.4953 78.5528 84.2734 77.4688 83.6625L75.7705 82.7281C76.4209 81.1469 77.3242 79.7094 78.4082 78.3797L78.625 78.4875C80.4678 79.5297 82.7803 79.4578 84.5508 78.3078C85.2012 77.8766 85.8877 77.4812 86.6104 77.1578C88.5615 76.2594 89.8262 74.3187 89.8262 72.1625V72.0547C91.5967 71.7672 93.4395 71.7672 95.21 72.0547V72.1625C95.21 74.3187 96.4385 76.2594 98.4258 77.1578C99.1485 77.4812 99.835 77.8766 100.485 78.3078C102.256 79.4578 104.568 79.5297 106.411 78.4875L106.628 78.3797C107.712 79.7094 108.615 81.1469 109.266 82.7281L107.567 83.6625C106.447 84.2734 105.869 85.4953 106.122 86.7172Z" fill="#8D572D"/>
<path d="M92.5 79.0625C86.8994 79.0625 82.3828 83.5547 82.3828 89.125C82.3828 94.6953 86.8994 99.1875 92.5 99.1875C98.1006 99.1875 102.617 94.6953 102.617 89.125C102.617 83.5547 98.1006 79.0625 92.5 79.0625ZM92.5 93.4375C90.1152 93.4375 88.1641 91.4969 88.1641 89.125C88.1641 86.7531 90.1152 84.8125 92.5 84.8125C94.8848 84.8125 96.8359 86.7531 96.8359 89.125C96.8359 91.4969 94.8848 93.4375 92.5 93.4375Z" fill="#8D572D"/>
<path d="M63.594 57.5C58.8245 57.5 54.9221 61.3812 54.9221 66.125V115H52.0315C50.4417 115 49.1409 116.294 49.1409 117.875V123.625C49.1409 128.369 53.0432 132.25 57.8127 132.25H127.188C131.957 132.25 135.86 128.369 135.86 123.625V117.875C135.86 116.294 134.559 115 132.969 115H130.078V66.125C130.078 61.3812 126.176 57.5 121.406 57.5H63.594ZM130.078 123.625C130.078 125.206 128.778 126.5 127.188 126.5H57.8127C56.2229 126.5 54.9221 125.206 54.9221 123.625V120.75H130.078V123.625ZM124.297 66.125V115H60.7034V66.125C60.7034 64.5438 62.0042 63.25 63.594 63.25H121.406C122.996 63.25 124.297 64.5438 124.297 66.125ZM5.78149 158.125H11.5627V178.25C11.5627 179.831 12.8635 181.125 14.4534 181.125H49.1409C50.7307 181.125 52.0315 179.831 52.0315 178.25V158.125H57.8127C59.4026 158.125 60.7034 156.831 60.7034 155.25C60.7034 154.495 60.4143 153.741 59.8723 153.202L33.8567 127.327C32.7366 126.212 30.8938 126.212 29.7737 127.327L3.75806 153.202C2.63794 154.316 2.63794 156.148 3.75806 157.262C4.26392 157.838 5.02271 158.125 5.78149 158.125ZM34.6877 175.375H28.9065V166.75H34.6877V175.375ZM31.7971 133.436L50.8391 152.375H49.1409C47.551 152.375 46.2502 153.669 46.2502 155.25V175.375H40.469V163.875C40.469 162.294 39.1682 161 37.5784 161H26.0159C24.426 161 23.1252 162.294 23.1252 163.875V175.375H17.344V155.25C17.344 153.669 16.0432 152.375 14.4534 152.375H12.7551L31.7971 133.436ZM138.75 69H179.219C180.809 69 182.11 67.7063 182.11 66.125V8.625C182.11 5.4625 179.508 2.875 176.328 2.875H141.641C138.461 2.875 135.86 5.4625 135.86 8.625V66.125C135.86 67.7063 137.16 69 138.75 69ZM161.875 54.625V63.25H156.094V54.625H161.875ZM141.641 8.625H176.328V63.25H167.656V54.625H170.547V48.875H147.422V54.625H150.313V63.25H141.641V8.625Z" fill="#8D572D"/>
<path d="M144.531 14.375H150.312V20.125H144.531V14.375ZM156.094 14.375H161.875V20.125H156.094V14.375ZM167.656 14.375H173.438V20.125H167.656V14.375ZM144.531 25.875H150.312V31.625H144.531V25.875ZM156.094 25.875H161.875V31.625H156.094V25.875ZM167.656 25.875H173.438V31.625H167.656V25.875ZM144.531 37.375H150.312V43.125H144.531V37.375ZM156.094 37.375H161.875V43.125H156.094V37.375ZM167.656 37.375H173.438V43.125H167.656V37.375ZM20.2344 71.875C20.2705 48.0844 39.6738 28.7859 63.5938 28.75H104.062V34.5C104.062 36.0812 105.363 37.375 106.953 37.375C107.495 37.375 108.001 37.2313 108.435 36.9797L122.888 28.3547C124.261 27.5281 124.694 25.7672 123.863 24.4016C123.61 24.0063 123.285 23.6469 122.888 23.4312L108.435 14.8063C107.062 13.9797 105.291 14.4469 104.46 15.7766C104.207 16.2078 104.062 16.7469 104.062 17.25V23H63.5938C36.458 23.0359 14.4893 44.8859 14.4531 71.875V117.875H20.2344V71.875ZM109.844 22.3172L115.77 25.875L109.844 29.4328V22.3172ZM170.547 115V86.25H164.766V115C164.729 138.791 145.326 158.089 121.406 158.125H92.5V152.375C92.5 150.794 91.1992 149.5 89.6094 149.5C89.0674 149.5 88.5615 149.644 88.1279 149.895L73.6748 158.52C72.3018 159.347 71.8682 161.108 72.6992 162.473C72.9521 162.869 73.2773 163.228 73.6748 163.444L88.1279 172.069C89.501 172.895 91.2715 172.428 92.1025 171.098C92.3555 170.667 92.5 170.128 92.5 169.625V163.875H121.406C148.542 163.839 170.511 141.989 170.547 115ZM86.7188 164.558L80.793 161L86.7188 157.442V164.558Z" fill="#8D572D"/>
</svg>
