<svg width="64" height="64" viewBox="0 0 64 64" fill="none" xmlns="http://www.w3.org/2000/svg">
<path d="M14.4478 16.1797C14.9729 16.1797 15.4981 15.7595 15.4981 15.1293V7.1467C15.4981 5.46615 16.8636 4.10069 18.5441 4.10069H24.1109C24.6361 4.10069 25.1613 3.68056 25.1613 3.05035C25.1613 2.42014 24.7412 2 24.1109 2H18.5441C15.8132 2 13.5024 4.20573 13.5024 7.04167V15.1293C13.5024 15.7595 13.9226 16.1797 14.4478 16.1797Z" fill="white"/>
<path d="M34.929 46.3246C34.929 45.7994 34.5088 45.2743 33.8786 45.2743H19.4889V43.2786C19.4889 42.7534 19.0687 42.2283 18.4385 42.2283C17.9134 42.2283 17.3882 42.6484 17.3882 43.2786V46.3246C17.3882 46.8498 17.8083 47.375 18.4385 47.375H33.8786C34.5088 47.375 34.929 46.9548 34.929 46.3246Z" fill="white"/>
<path d="M54.4659 31.6197L47.6386 24.7924V7.14665C47.6386 4.41575 45.4329 2.10498 42.5969 2.10498H29.0475C28.5223 2.10498 27.9971 2.52512 27.9971 3.15533C27.9971 3.78554 28.4173 4.20568 29.0475 4.20568H42.5969C44.2775 4.20568 45.643 5.57113 45.643 7.25168V35.4009C45.643 35.9261 46.0631 36.4513 46.6933 36.4513C47.2185 36.4513 47.7436 36.0312 47.7436 35.4009V27.7334L53.1004 33.0902C54.781 34.7707 55.7263 37.0815 55.7263 39.4973V60.5042H35.5596V52.5216C35.5596 49.6857 37.8704 47.3749 40.7063 47.3749C41.2315 47.3749 41.7567 46.9548 41.7567 46.3246C41.7567 46.0094 41.6516 45.7994 41.4416 45.5893L32.9338 37.0815C31.5683 35.716 31.5683 33.5103 32.9338 32.1449C34.2992 30.7794 36.5049 30.7794 37.8704 32.1449L49.3192 43.5937C49.7393 44.0138 50.3695 44.0138 50.7897 43.5937C51.2098 43.1735 51.2098 42.5433 50.7897 42.2282L43.6473 34.9808V7.14665C43.6473 6.62147 43.2272 6.0963 42.5969 6.0963H37.5553C37.0301 6.0963 36.5049 6.51644 36.5049 7.14665C36.5049 7.67182 36.0848 8.19699 35.4546 8.19699H25.3713C24.8461 8.19699 24.3209 7.77686 24.3209 7.14665C24.3209 6.62147 23.9008 6.0963 23.2706 6.0963H18.2289C17.7037 6.0963 17.1785 6.51644 17.1785 7.14665V17.2299H5.41466C3.7341 17.2299 2.36865 18.5954 2.36865 20.2759V38.3419C2.36865 40.0225 3.7341 41.3879 5.41466 41.3879H13.5023V50.4209C13.5023 53.1518 15.7081 55.4626 18.544 55.4626H33.669V61.4496C33.669 61.9747 34.0891 62.4999 34.7193 62.4999H56.8817C57.4068 62.4999 57.932 62.0798 57.932 61.4496V39.4973C57.7219 36.5563 56.5666 33.7204 54.4659 31.6197ZM5.41466 19.2256H37.5553V21.2213H4.46935V20.1709C4.46935 19.6457 4.88949 19.2256 5.41466 19.2256ZM30.518 53.3619H18.544C16.8634 53.3619 15.498 51.9964 15.498 50.3159V41.2829H30.623C31.1482 41.2829 31.6733 40.8627 31.6733 40.2325C31.6733 39.7074 31.2532 39.1822 30.623 39.1822H5.41466C4.88949 39.1822 4.36431 38.7621 4.36431 38.1318V29.0989H31.5683C32.0935 29.0989 32.6186 28.6787 32.6186 28.0485C32.6186 27.5233 32.1985 26.9982 31.5683 26.9982H4.46935V23.0068H37.6603V28.0485C37.6603 28.5737 38.0805 29.0989 38.7107 29.0989C39.2358 29.0989 39.761 28.6787 39.761 28.0485V15.2343C39.761 14.7091 39.3409 14.1839 38.7107 14.1839C38.1855 14.1839 37.6603 14.6041 37.6603 15.2343V17.2299H19.4893V8.19699H22.6404C23.0605 9.35238 24.2159 10.1926 25.4763 10.1926H35.5596C36.82 10.1926 37.9754 9.35238 38.3956 8.19699H41.5466V33.0902L39.4459 30.7794C37.2402 28.5737 33.774 28.5737 31.6733 30.7794C29.5726 32.9851 29.4676 36.4513 31.6733 38.552L38.7107 45.5893C35.6647 46.5346 33.669 49.2655 33.669 52.4166V53.2568H30.518V53.3619Z" fill="white"/>
<path d="M12.4519 31.3047H7.41021C6.88504 31.3047 6.35986 31.7248 6.35986 32.355V36.3464C6.35986 36.8715 6.78 37.3967 7.41021 37.3967H12.4519C12.9771 37.3967 13.5022 36.9766 13.5022 36.3464V32.355C13.5022 31.7248 12.9771 31.3047 12.4519 31.3047ZM11.5066 35.296H8.46056V33.3003H11.5066V35.296Z" fill="white"/>
<path d="M33.5637 50.421C33.5637 48.7404 32.1982 47.375 30.5177 47.375C28.8371 47.375 27.4717 48.7404 27.4717 50.421C27.4717 52.1015 28.8371 53.467 30.5177 53.467C32.1982 53.362 33.5637 51.9965 33.5637 50.421ZM30.5177 51.3663C29.9925 51.3663 29.4673 50.9462 29.4673 50.3159C29.4673 49.7908 29.8875 49.2656 30.5177 49.2656C31.0429 49.2656 31.568 49.6857 31.568 50.3159C31.568 50.9462 31.1479 51.3663 30.5177 51.3663Z" fill="white"/>
</svg>
