<svg width="64" height="64" viewBox="0 0 64 64" fill="none" xmlns="http://www.w3.org/2000/svg">
<path d="M56.6101 4H8.37005C7.89251 4.00131 7.41992 4.09683 6.97935 4.28109C6.53879 4.46536 6.13891 4.73474 5.80263 5.0738C5.46635 5.41287 5.20028 5.81496 5.01966 6.25703C4.83904 6.6991 4.74742 7.17246 4.75006 7.65V57.06C4.75005 58.021 5.13112 58.9428 5.80972 59.6233C6.48832 60.3037 7.40905 60.6874 8.37005 60.69H56.6101C57.5693 60.6874 58.4886 60.3051 59.1669 59.6268C59.8452 58.9485 60.2274 58.0293 60.2301 57.07V7.65C60.2327 7.17246 60.1411 6.6991 59.9604 6.25703C59.7798 5.81496 59.5138 5.41287 59.1775 5.0738C58.8412 4.73474 58.4413 4.46536 58.0008 4.28109C57.5602 4.09683 57.0876 4.00131 56.6101 4ZM8.37005 5.75H56.6101C57.1166 5.75 57.6024 5.95123 57.9606 6.30943C58.3188 6.66762 58.5201 7.15344 58.5201 7.66V13.84H6.52006V7.65C6.52006 7.14609 6.72023 6.66282 7.07655 6.3065C7.43287 5.95018 7.91614 5.75 8.42006 5.75H8.37005ZM56.6101 59H8.37005C7.8643 58.9974 7.38001 58.7953 7.02238 58.4377C6.66476 58.08 6.46268 57.5958 6.46006 57.09V15.56H58.5101V57.07C58.5127 57.3217 58.4656 57.5714 58.3714 57.8048C58.2772 58.0382 58.1378 58.2506 57.9613 58.43C57.7847 58.6093 57.5744 58.752 57.3425 58.8498C57.1107 58.9477 56.8617 58.9987 56.6101 59Z" fill="white"/>
<path d="M50.84 10.65H52.91C53.1381 10.65 53.3568 10.5593 53.5181 10.3981C53.6794 10.2368 53.77 10.018 53.77 9.78993C53.77 9.56185 53.6794 9.3431 53.5181 9.18182C53.3568 9.02054 53.1381 8.92993 52.91 8.92993H50.84C50.6119 8.92993 50.3932 9.02054 50.2319 9.18182C50.0706 9.3431 49.98 9.56185 49.98 9.78993C49.98 10.018 50.0706 10.2368 50.2319 10.3981C50.3932 10.5593 50.6119 10.65 50.84 10.65Z" fill="white"/>
<path d="M45.3698 10.65H47.4398C47.6679 10.65 47.8866 10.5593 48.0479 10.3981C48.2092 10.2368 48.2998 10.018 48.2998 9.78993C48.2998 9.56185 48.2092 9.3431 48.0479 9.18182C47.8866 9.02054 47.6679 8.92993 47.4398 8.92993H45.3698C45.1417 8.92993 44.9229 9.02054 44.7617 9.18182C44.6004 9.3431 44.5098 9.56185 44.5098 9.78993C44.5098 10.018 44.6004 10.2368 44.7617 10.3981C44.9229 10.5593 45.1417 10.65 45.3698 10.65Z" fill="white"/>
<path d="M39.9 10.65H42C42.2281 10.65 42.4469 10.5593 42.6082 10.3981C42.7694 10.2368 42.86 10.018 42.86 9.78993C42.86 9.56185 42.7694 9.3431 42.6082 9.18182C42.4469 9.02054 42.2281 8.92993 42 8.92993H39.9C39.672 8.92993 39.4532 9.02054 39.2919 9.18182C39.1306 9.3431 39.04 9.56185 39.04 9.78993C39.04 10.018 39.1306 10.2368 39.2919 10.3981C39.4532 10.5593 39.672 10.65 39.9 10.65Z" fill="white"/>
<path d="M12.2199 10.65H26.3899C26.6179 10.65 26.8367 10.5593 26.998 10.3981C27.1593 10.2368 27.2499 10.018 27.2499 9.78993C27.2499 9.56185 27.1593 9.3431 26.998 9.18182C26.8367 9.02054 26.6179 8.92993 26.3899 8.92993H12.2199C11.9918 8.92993 11.773 9.02054 11.6118 9.18182C11.4505 9.3431 11.3599 9.56185 11.3599 9.78993C11.3599 10.018 11.4505 10.2368 11.6118 10.3981C11.773 10.5593 11.9918 10.65 12.2199 10.65Z" fill="white"/>
<path d="M12.2199 22.4099H19.5799C19.808 22.4099 20.0267 22.3193 20.188 22.1581C20.3493 21.9968 20.4399 21.778 20.4399 21.5499C20.4399 21.3219 20.3493 21.1031 20.188 20.9418C20.0267 20.7805 19.808 20.6899 19.5799 20.6899H12.2199C11.9918 20.6899 11.773 20.7805 11.6118 20.9418C11.4505 21.1031 11.3599 21.3219 11.3599 21.5499C11.3599 21.778 11.4505 21.9968 11.6118 22.1581C11.773 22.3193 11.9918 22.4099 12.2199 22.4099Z" fill="white"/>
<path d="M20.4399 25.9999C20.4399 25.7718 20.3493 25.5531 20.188 25.3918C20.0267 25.2305 19.808 25.1399 19.5799 25.1399H12.2199C12.1069 25.1399 11.9951 25.1622 11.8908 25.2054C11.7864 25.2486 11.6916 25.3119 11.6118 25.3918C11.5319 25.4717 11.4685 25.5665 11.4253 25.6708C11.3821 25.7751 11.3599 25.887 11.3599 25.9999C11.3599 26.1129 11.3821 26.2247 11.4253 26.329C11.4685 26.4334 11.5319 26.5282 11.6118 26.608C11.6916 26.6879 11.7864 26.7512 11.8908 26.7945C11.9951 26.8377 12.1069 26.8599 12.2199 26.8599H19.5799C19.6932 26.8613 19.8056 26.8399 19.9106 26.7972C20.0155 26.7544 20.1108 26.6911 20.191 26.611C20.2711 26.5309 20.3344 26.4355 20.3771 26.3306C20.4199 26.2257 20.4412 26.1132 20.4399 25.9999Z" fill="white"/>
<path d="M43.9301 17.3601C42.8601 17.3546 41.7997 17.5622 40.8107 17.9708C39.8218 18.3794 38.9241 18.9809 38.1701 19.7401L33.0901 24.8301C31.8854 26.0283 31.0891 27.5758 30.8144 29.2526C30.5397 30.9294 30.8007 32.6501 31.5601 34.1701L29.7401 36.0001C28.6256 35.43 27.3919 35.1319 26.1401 35.1301C25.071 35.1272 24.0121 35.3371 23.0249 35.7474C22.0378 36.1577 21.1421 36.7603 20.3901 37.5201L15.3101 42.6001C13.7838 44.1237 12.9252 46.1913 12.9233 48.348C12.9215 50.5047 13.7764 52.5738 15.3001 54.1001C16.8237 55.6264 18.8913 56.4849 21.048 56.4868C23.2047 56.4887 25.2737 55.6338 26.8001 54.1101L31.9001 49.0001C32.6545 48.2451 33.2522 47.3484 33.6589 46.3616C34.0656 45.3748 34.2733 44.3174 34.2701 43.2501C34.2659 42.0439 33.989 40.8542 33.4601 39.7701L35.3401 37.8601C36.4347 38.3907 37.6337 38.6708 38.8501 38.6801C39.9182 38.6826 40.9762 38.4736 41.9631 38.0651C42.95 37.6566 43.8462 37.0567 44.6001 36.3001L49.6801 31.2101C50.819 30.0744 51.5951 28.6261 51.9098 27.0488C52.2244 25.4715 52.0636 23.8362 51.4477 22.3504C50.8317 20.8646 49.7884 19.5953 48.45 18.7032C47.1116 17.8112 45.5385 17.3368 43.9301 17.3401V17.3601ZM33.2201 34.9301L34.4401 33.6801L37.3501 30.6801C37.5294 30.512 37.7644 30.4159 38.0101 30.4101C38.1317 30.4088 38.2524 30.4316 38.3652 30.4772C38.478 30.5229 38.5806 30.5904 38.6671 30.676C38.7536 30.7615 38.8222 30.8634 38.8691 30.9757C38.916 31.088 38.9401 31.2084 38.9401 31.3301C38.937 31.5745 38.8445 31.8092 38.6801 31.9901L36.7401 33.9901L34.5301 36.2401L29.9201 41.0001L29.0901 41.8501L27.8701 43.0901C27.6946 43.2605 27.4597 43.3559 27.2151 43.3559C26.9705 43.3559 26.7355 43.2605 26.5601 43.0901C26.387 42.9163 26.2837 42.685 26.2701 42.4401C26.2734 42.1909 26.3697 41.952 26.5401 41.7701L33.2101 34.9601L33.2201 34.9301ZM39.8701 29.4601C39.3904 28.9957 38.7532 28.7295 38.0857 28.7147C37.4183 28.6999 36.7699 28.9375 36.2701 29.3801C36.4039 29.0771 36.5939 28.8023 36.8301 28.5701L41.9201 23.4901C42.4605 22.9788 43.1761 22.6939 43.9201 22.6939C44.664 22.6939 45.3797 22.9788 45.9201 23.4901C46.1837 23.7522 46.393 24.0638 46.5357 24.407C46.6785 24.7503 46.752 25.1183 46.752 25.4901C46.752 25.8618 46.6785 26.2299 46.5357 26.5731C46.393 26.9164 46.1837 27.228 45.9201 27.4901L40.8301 32.5801C40.5587 32.8442 40.2397 33.0546 39.8901 33.2001C40.1329 32.9515 40.3243 32.6575 40.4533 32.3348C40.5823 32.0121 40.6463 31.6672 40.6416 31.3197C40.637 30.9722 40.5638 30.6291 40.4263 30.31C40.2887 29.9909 40.0895 29.702 39.8401 29.4601H39.8701ZM25.3501 44.2801C25.8484 44.7535 26.5128 45.012 27.2001 45.0001C27.7008 44.9993 28.1906 44.8534 28.6101 44.5801C28.4835 44.8256 28.3218 45.0513 28.1301 45.2501L23.0501 50.3301C22.7877 50.5925 22.4757 50.8001 22.1324 50.9409C21.789 51.0816 21.4211 51.1527 21.0501 51.1501C20.4907 51.1496 19.944 50.9834 19.479 50.6724C19.014 50.3614 18.6516 49.9196 18.4376 49.4028C18.2236 48.8859 18.1675 48.3173 18.2766 47.7686C18.3856 47.2199 18.6547 46.7159 19.0501 46.3201L24.1401 41.2301C24.4645 40.9211 24.8541 40.6888 25.2801 40.5501C24.8111 41.0549 24.5571 41.7224 24.5721 42.4113C24.587 43.1002 24.8696 43.7561 25.3601 44.2401L25.3501 44.2801ZM32.1601 41.1201C32.4139 41.8118 32.5426 42.5432 32.5401 43.2801C32.5418 44.1234 32.3766 44.9588 32.0539 45.738C31.7313 46.5172 31.2575 47.2248 30.6601 47.8201L25.5801 52.9001C24.9856 53.4997 24.2785 53.976 23.4993 54.3016C22.7202 54.6271 21.8845 54.7955 21.0401 54.7971C20.1957 54.7987 19.3593 54.6335 18.5789 54.3108C17.7986 53.9882 17.0897 53.5146 16.4929 52.9172C15.8962 52.3198 15.4233 51.6104 15.1016 50.8297C14.7798 50.049 14.6155 49.2124 14.618 48.368C14.6205 47.5236 14.7899 46.688 15.1163 45.9093C15.4427 45.1305 15.9198 44.4239 16.5201 43.8301L21.6101 38.7401C22.4911 37.858 23.6102 37.2519 24.8304 36.9961C26.0507 36.7404 27.319 36.846 28.4801 37.3001L27.0001 38.8001C26.7106 38.74 26.4157 38.7098 26.1201 38.7101C24.9254 38.7033 23.776 39.1667 22.9201 40.0001L17.8401 45.0901C17.2067 45.7263 16.7757 46.5358 16.6013 47.4165C16.427 48.2971 16.5171 49.2097 16.8602 50.0393C17.2034 50.8689 17.7843 51.5785 18.5299 52.0786C19.2754 52.5788 20.1523 52.8472 21.0501 52.8501C21.6465 52.8517 22.2373 52.7349 22.7883 52.5066C23.3393 52.2783 23.8395 51.943 24.2601 51.5201L29.3401 46.4401C29.7656 46.0189 30.1031 45.5173 30.3332 44.9645C30.5632 44.4118 30.6811 43.8188 30.6801 43.2201C30.6904 43.0169 30.6904 42.8133 30.6801 42.6101L31.6801 41.6101L32.1601 41.1201ZM48.4601 30.0001L43.3801 35.0901C42.5131 35.9611 41.413 36.5632 40.212 36.824C39.011 37.0848 37.7602 36.9931 36.6101 36.5601L38.0901 35.0501C38.8098 35.175 39.549 35.1249 40.2452 34.9038C40.9415 34.6827 41.5742 34.2973 42.0901 33.7801L47.1801 28.6901C48.023 27.8421 48.4973 26.6958 48.5001 25.5001C48.5015 24.9004 48.3828 24.3065 48.1509 23.7535C47.919 23.2004 47.5787 22.6995 47.1501 22.2801C46.2953 21.4276 45.1373 20.9489 43.9301 20.9489C42.7228 20.9489 41.5649 21.4276 40.7101 22.2801L35.6201 27.3701C35.1101 27.8906 34.7302 28.5242 34.5112 29.2192C34.2923 29.9143 34.2405 30.6512 34.3601 31.3701L33.3601 32.3701L32.8701 32.8701C32.4273 31.7156 32.3296 30.4573 32.5888 29.2483C32.848 28.0393 33.453 26.9316 34.3301 26.0601L39.3901 21.0001C39.9607 20.3227 40.6656 19.7709 41.4601 19.3796C42.2547 18.9882 43.1218 18.7658 44.0066 18.7263C44.8914 18.6869 45.7749 18.8312 46.6011 19.1502C47.4274 19.4692 48.1786 19.956 48.8073 20.5799C49.436 21.2037 49.9286 21.9511 50.254 22.7749C50.5794 23.5987 50.7306 24.481 50.698 25.3661C50.6654 26.2512 50.4497 27.1199 50.0645 27.9175C49.6793 28.7151 49.133 29.4242 48.4601 30.0001Z" fill="white"/>
</svg>
